<svg width="64" height="22" viewBox="0 0 64 22" fill="none" xmlns="http://www.w3.org/2000/svg">
<g clip-path="url(#clip0_47_411)">
<path d="M7.05968 21.9908C5.15274 21.9177 3.59258 21.4144 2.37267 20.4796C2.13985 20.3011 1.58508 19.7657 1.39895 19.5398C0.90426 18.9399 0.567934 18.3559 0.343608 17.7081C-0.346677 15.7138 0.00858765 13.0969 1.35977 10.2249C2.51667 7.76609 4.30181 5.32745 7.41625 1.94993C7.87503 1.45294 9.24123 -0.000549316 9.25005 -0.000549316C9.25331 -0.000549316 9.17886 0.123855 9.08515 0.275347C8.27535 1.58364 7.58245 3.12469 7.20499 4.45882C6.59862 6.59952 6.67176 8.43662 7.41919 9.86113C7.93478 10.8425 8.8187 11.6926 9.81266 12.1625C11.5527 12.9848 14.1003 13.0528 17.2115 12.3615C17.4257 12.3136 28.0399 9.59595 40.7987 6.32205C53.5576 3.04784 63.9984 0.37109 64 0.373294C64.0036 0.376134 34.3576 12.6119 18.9679 18.9597C16.5307 19.9647 15.8789 20.2186 14.7331 20.6066C11.8042 21.5987 9.18049 22.072 7.05968 21.9908Z" fill="#111111"/>
</g>
<defs>
<clipPath id="clip0_47_411">
<rect width="64" height="22" fill="white"/>
</clipPath>
</defs>
</svg>
