<?xml version="1.0" encoding="utf-8"?>
<!-- Generator: Adobe Illustrator 22.0.1, SVG Export Plug-In . SVG Version: 6.00 Build 0)  -->
<svg version="1.1" id="Capa_1" xmlns="http://www.w3.org/2000/svg" xmlns:xlink="http://www.w3.org/1999/xlink" x="0px" y="0px"
	 viewBox="0 0 512 512" style="enable-background:new 0 0 512 512;" xml:space="preserve">
<style type="text/css">
	.st0{fill:#FFFFFF;}
</style>
<g>
	<g>
		<path class="st0" d="M432.3,296.4v-23.5c0-60.7-49.4-110-110-110c-53.4,0-98,38.2-108,88.6c-2.9-3.8-4-8.7-2.9-13.4l23.1-102.9
			c5-22.4-0.3-45.4-14.6-63.3c-5.7-7.1-12.5-13-20.1-17.5c17.6,8.2,36.7,12.4,56.3,12.4h42.9v-30h-42.9c-20.7,0-40.7-6.1-57.8-17.6
			L169.6,0l-16.7,24.9l28.7,19.2c3,2,6.2,3.9,9.4,5.7c-9.2-4-19.3-6.1-29.6-6.1h-4.1c-12.5,0-22.9,9.2-24.7,21.2l-26.4,28.8h36.7
			l-41.4,41.4l21.2,21.2l53.4-53.4c0.9,1.3,1.7,2.7,2.3,4.3c3.5,8.5,1.7,17.5-4.8,24l-70.3,70.3c-15.3,15.3-25,35.6-27.3,57.1
			c-2.3,21.5,2.9,43.4,14.6,61.6L194.7,482h-23.5v30h120v-30h-29.8l-12-56.8c-2.4-11.4,0.4-23,7.7-32c7.3-9,18.2-14.2,29.8-14.2
			c21.1,0,38.3,17.2,38.3,38.3V450h23.6c0,0,30.5-41.9,31.2-42.9l18.4,6.1l28.4-52.9C437.8,340.2,439.4,317.1,432.3,296.4z
			 M400.5,346.1l-2.9,5.4c-9.3-27.8-32.3-49.2-61.9-56.2l-18.4-4.3v29.8l19.4,8.5c10.3,4.5,18.1,12.7,22.2,23.1
			c5.3,13.4,3.3,28.4-5.2,40l-2.1,2.9c-9.2-26.9-34.7-46.3-64.7-46.3c-20.7,0-40,9.2-53.1,25.3c-13,16.1-18.1,36.9-13.8,57.1
			l10.7,50.6h-0.3L115.8,304.1c-16.5-25.6-12.8-59.7,8.7-81.2l70.3-70.3c2.7-2.7,5.1-5.6,7.1-8.7l-19.7,87.7c-3.1,13.8,0.2,28,9,39
			c8.8,11,22,17.3,36.1,17.3h15v-15c0-44.1,35.9-80,80-80c36.8,0,67.8,24.9,77.1,58.7l-39.3-12.9l-9.6,28.4l23.3,7.9
			c8.5,3.2,15.9,8.5,21.6,15.6C408.1,306.4,410.2,328.2,400.5,346.1z"/>
	</g>
</g>
</svg>
