<?xml version="1.0" encoding="utf-8"?>
<!-- Generator: Adobe Illustrator 22.0.1, SVG Export Plug-In . SVG Version: 6.00 Build 0)  -->
<svg version="1.1" id="Calque_1" xmlns="http://www.w3.org/2000/svg" xmlns:xlink="http://www.w3.org/1999/xlink" x="0px" y="0px"
	 viewBox="0 0 446.8 446.8" style="enable-background:new 0 0 446.8 446.8;" xml:space="preserve">
<style type="text/css">
	.st0{fill:#FFFFFF;stroke:#FFFFFF;stroke-width:9.5076;stroke-miterlimit:10;}
</style>
<path class="st0" d="M414.3,88.7c8.3-8,12.8-18.8,12.8-30.4c0-11.5-4.6-22.3-12.9-30.3c-8.3-8-19.2-12.2-30.8-11.9
	c-11.5,0.4-22.2,5.3-29.9,13.8l-3.9,4.3l-3.9-3.9c-12.4-12.4-29-19.3-46.6-19.3c-17.6,0-34.1,6.8-46.6,19.3
	c-12.4,12.4-19.3,29-19.3,46.6c0,17.6,6.8,34.1,19.3,46.6l8.4,8.4L244,150.3c-23.7,26-47,52.5-70,79.4l-23.5-23.5
	c-11.6-11.6-27.1-18-43.5-18s-31.9,6.4-43.5,18c-11.6,11.6-18,27.1-18,43.5c0,16.5,6.4,31.9,18,43.5l31.8,31.8
	c-25.1,31.5-49.7,63.4-73.7,95.5c-2.9,3.8-2.4,9.2,1,12.5c1.8,1.8,4.2,2.7,6.6,2.7c2.1,0,4.2-0.7,5.9-2.1
	c31.1-24.8,61.9-50.3,92.4-76.4l29.8,29.8c1.9,1.9,4.3,2.8,6.7,2.8c2.4,0,4.9-0.9,6.7-2.8c3.7-3.7,3.7-9.7,0-13.4L142,344.9
	c21.5-18.6,42.8-37.4,63.8-56.5l35.7,35.7c15.9,15.9,37.1,24.7,59.7,24.7s43.7-8.8,59.7-24.7c15.9-15.9,24.7-37.1,24.7-59.7
	c0-22.5-8.8-43.7-24.7-59.7l-32.4-32.4l66.3-64.5c3.2,5.5,5,11.8,5,18.4c0,9.8-3.8,19-10.7,25.9l-3.1,3.1c-3.7,3.7-3.7,9.7,0,13.4
	c1.9,1.9,4.3,2.8,6.7,2.8c2.4,0,4.9-0.9,6.7-2.8l3.1-3.1c10.5-10.5,16.3-24.5,16.3-39.4c0-11.6-3.5-22.7-10.1-31.9L414.3,88.7
	L414.3,88.7z M266,109.9c-8.8-8.8-13.7-20.6-13.7-33.1c0-12.5,4.9-24.3,13.7-33.1c8.8-8.8,20.6-13.7,33.1-13.7s24.3,4.9,33.1,13.7
	l4.6,4.6l-63.1,69.4L266,109.9z M258.1,163.1l92.1-101.4l9.2,9.2l-19.3,20c-3.6,3.8-3.5,9.8,0.2,13.4c1.8,1.8,4.2,2.7,6.6,2.7
	c2.5,0,5-1,6.8-2.9l39.5-40.8c3.6-3.8,3.5-9.8-0.2-13.4c-3.8-3.6-9.8-3.5-13.4,0.2l-7,7.2l-9.6-9.6l4.5-5c4.3-4.7,10.1-7.4,16.5-7.6
	c0.3,0,0.5,0,0.8,0c6.1,0,11.8,2.3,16.1,6.5c4.6,4.4,7.1,10.3,7.1,16.7c0,6.4-2.5,12.3-7,16.7L284.4,188.5
	c-25.5,24.9-51.6,49.4-78,73.6l-18.9-18.9C210.7,216.1,234.2,189.4,258.1,163.1z M76.9,279.9c-8-8-12.5-18.7-12.5-30.1
	c0-11.4,4.4-22,12.5-30.1c8-8,18.7-12.5,30.1-12.5s22,4.4,30.1,12.5l24.6,24.6c-18.4,21.7-36.6,43.7-54.5,65.9L76.9,279.9z
	 M85.7,367.8c29-37.2,58.9-74,89.5-110.1l17.2,17.2C157.4,306.6,121.8,337.6,85.7,367.8L85.7,367.8z M347.3,218.2
	c12.3,12.3,19.1,28.8,19.1,46.2s-6.8,33.9-19.1,46.2c-12.3,12.3-28.8,19.1-46.2,19.1c-17.5,0-33.9-6.8-46.2-19.1l-35-35
	c26.3-24.1,52.3-48.6,77.8-73.4l17-16.6L347.3,218.2L347.3,218.2z"/>
</svg>
