<?xml version="1.0" encoding="utf-8"?>
<!-- Generator: Adobe Illustrator 22.0.1, SVG Export Plug-In . SVG Version: 6.00 Build 0)  -->
<svg version="1.1" id="Layer_1" xmlns="http://www.w3.org/2000/svg" xmlns:xlink="http://www.w3.org/1999/xlink" x="0px" y="0px"
	 viewBox="0 0 512 512" style="enable-background:new 0 0 512 512;" xml:space="preserve">
<style type="text/css">
	.st0{fill:#D1A194;}
</style>
<g>
	<g>
		<path class="st0" d="M482.3,281.4c-11.7,33.7-58.4,35.1-59.7,35.1h-26.3c-1-26.2-7.7-77.3-41.4-113.4c-24.3-26-57.6-39.1-99-39.1
			c-41.4,0-74.7,13.2-99,39.1c-33.8,36.1-40.4,87.2-41.4,113.4H87.6c-42.3,0-58-34.7-58.6-36.2l0,0.1L0,292.6
			c1,2.3,24,55.3,87.6,55.3h335.1l0.1,0c2.9,0,70.1-1.2,89.2-56.3L482.3,281.4z M179.8,224.6c18.1-19.3,43.7-29.1,76-29.1
			c32.3,0,57.9,9.8,75.9,29c11.4,12.2,18.9,27,23.9,41.6H155.9C160.9,251.6,168.4,236.8,179.8,224.6z M146.9,316.5
			c0.2-5.3,0.8-11.8,1.8-18.9h214.3c1,7.1,1.5,13.6,1.8,18.9H146.9z"/>
	</g>
</g>
</svg>
