<?xml version="1.0" encoding="utf-8"?>
<!-- Generator: Adobe Illustrator 22.0.1, SVG Export Plug-In . SVG Version: 6.00 Build 0)  -->
<svg version="1.1" id="Capa_1" xmlns="http://www.w3.org/2000/svg" xmlns:xlink="http://www.w3.org/1999/xlink" x="0px" y="0px"
	 viewBox="0 0 512 512" style="enable-background:new 0 0 512 512;" xml:space="preserve">
<style type="text/css">
	.st0{fill:#1E4C3D;stroke:#1E4C3D;stroke-width:18.8889;stroke-miterlimit:10;}
</style>
<g>
	<g>
		<path class="st0" d="M256,14.2c-93.8,0-170,76.2-170,170c0,31.6,8.8,62.6,25.4,89.4l135,217.5c2.6,4.2,7.2,6.7,12,6.7h0.1
			c4.9,0,9.5-2.6,12.1-6.9L402,271.4c15.7-26.3,24-56.4,24-87.1C426,90.4,349.8,14.2,256,14.2z M377.7,256.8L258.2,456.4
			L135.5,258.6c-13.8-22.3-21.3-48.1-21.3-74.4c0-78.1,63.8-141.9,141.9-141.9s141.8,63.8,141.8,141.9
			C397.8,209.8,390.8,234.9,377.7,256.8z"/>
	</g>
</g>
<g>
	<g>
		<path class="st0" d="M256,99.2c-46.8,0-85,38.2-85,85c0,46.6,37.5,85,85,85c48.1,0,85-38.9,85-85C341,137.4,302.8,99.2,256,99.2z
			 M256,241.1c-31.5,0-56.9-25.5-56.9-56.9c0-31.3,25.6-56.9,56.9-56.9s56.8,25.6,56.8,56.9C312.8,215.1,287.9,241.1,256,241.1z"/>
	</g>
</g>
</svg>
