<?xml version="1.0" encoding="utf-8"?>
<!-- Generator: Adobe Illustrator 22.0.1, SVG Export Plug-In . SVG Version: 6.00 Build 0)  -->
<svg version="1.1" id="Calque_1" xmlns="http://www.w3.org/2000/svg" xmlns:xlink="http://www.w3.org/1999/xlink" x="0px" y="0px"
	 viewBox="0 0 928.9 434.3" style="enable-background:new 0 0 928.9 434.3;" xml:space="preserve">
<style type="text/css">
	.st0{fill:#1E4C3D;}
	.st1{font-family:'Poppins-Black';}
	.st2{font-size:120.8061px;}
</style>
<text transform="matrix(1 0 0 1 5.4359 276.2079)"><tspan x="0" y="0" class="st0 st1 st2">LES CHAPEAUX</tspan><tspan x="124.4" y="145" class="st0 st1 st2">DE MANON</tspan></text>
<g>
	<g>
		<g>
			<path class="st0" d="M611.6,86.5c-7.6,21.6-38.1,22.5-38.9,22.6h-17.1c-0.7-16.8-5-49.6-27-72.8C512.7,19.6,491,11.2,464,11.2
				c-27,0-48.7,8.4-64.6,25.1c-22,23.2-26.3,56-27,72.8h-18.1c-27.6,0-37.8-22.3-38.2-23.2l0,0.1l-18.9,7.8
				c0.6,1.5,15.7,35.5,57.1,35.5h218.5l0,0c1.9,0,45.7-0.8,58.2-36.1L611.6,86.5z M414.4,48.8c11.8-12.6,28.5-19,49.6-19
				c21.1,0,37.7,6.4,49.5,18.9c7.4,7.9,12.3,17.6,15.6,27.1H398.9C402.1,66.3,407,56.7,414.4,48.8z M392.5,109.1
				c0.2-3.5,0.5-7.7,1.2-12.4h140.6c0.7,4.7,1,8.9,1.2,12.4H392.5z"/>
		</g>
	</g>
</g>
</svg>
