<?xml version="1.0" encoding="utf-8"?>
<!-- Generator: Adobe Illustrator 22.0.1, SVG Export Plug-In . SVG Version: 6.00 Build 0)  -->
<svg version="1.1" id="Capa_1" xmlns="http://www.w3.org/2000/svg" xmlns:xlink="http://www.w3.org/1999/xlink" x="0px" y="0px"
	 viewBox="0 0 493.5 493.5" style="enable-background:new 0 0 493.5 493.5;" xml:space="preserve">
<style type="text/css">
	.st0{fill:none;stroke:#FFFFFF;stroke-width:28.1875;stroke-miterlimit:10;}
</style>
<g>
	<g>
		<path class="st0" d="M400.1,329.6h-99.7v-31.4l-28.7,38l-28.7,38l28.7,38l28.7,38v-21.7l53.1-2c47-2.8,58.2-22.2,58.2-22.2
			l52.8-98C445,333.3,400.1,329.6,400.1,329.6z"/>
		<path class="st0" d="M427.5,188.6l-85,49.4l42.5,73.7c43.3,4,56.7-9.3,56.7-9.3c34.7-19.6,15.4-63.2,15.4-63.2L427.5,188.6z"/>
		<path class="st0" d="M88.1,394.6c-13.1-30.7,13.3-67.2,13.3-67.2l51.7-85.2l26.8,16.3l-17.6-44.2L144.7,170l-47.3,4.8L50,179.7
			L68.6,191l-25.8,46.5c-21.9,41.6-11.1,61.3-11.1,61.3L88.1,394.6z"/>
		<path class="st0" d="M102.9,379.6c-1.2,39.9,46,45.9,46,45.9l58.6,1l1.8-98.3l-85.1-1.8C98.4,361.2,102.9,379.6,102.9,379.6z"/>
		<path class="st0" d="M315.2,178.7l47,7.2l19.8-43.3l19.8-43.3l-19.1,10.3l-27-45.8c-24.8-40-47.2-40.6-47.2-40.6l-111.3,0.1
			c33.1,4.2,51.3,45.5,51.3,45.5l47.4,87.7l-27.6,14.9L315.2,178.7z"/>
		<path class="st0" d="M237.9,85.7c-17-40-35.1-45.5-35.1-45.5C169,19,139.9,56.7,139.9,56.7l-30.5,50.1l83.9,51.3L237.9,85.7z"/>
	</g>
</g>
</svg>
