<svg width="65" height="46" viewBox="0 0 65 46" fill="none" xmlns="http://www.w3.org/2000/svg">
<g clip-path="url(#clip0_44_84)">
<path d="M49.157 15.69L44.58 0.654992L32.158 2.61499L21.044 0.653992L12.545 3.26899L6.00703 8.49899L1.43103 17.652V28.766L6.00703 37.266L13.853 42.496L24.313 44.456L32.158 41.842L41.311 44.457L53.079 41.842L60.925 33.996L62.885 28.112L63.54 20.921L55.694 19.613L49.157 15.691V15.69Z" fill="#EAB789" stroke="black"/>
<path fill-rule="evenodd" clip-rule="evenodd" d="M32.286 3.74901C25.346 7.39901 20.596 14.802 20.596 23.34C20.596 31.477 24.909 38.582 31.32 42.392C28.59 43.6708 25.6117 44.3322 22.597 44.329C10.999 44.329 1.59705 34.703 1.59705 22.829C1.59705 10.954 10.999 1.32901 22.597 1.32901C26.092 1.32901 29.387 2.20301 32.286 3.74901Z" fill="#9C6750"/>
<path d="M64.472 20.305C64.4573 20.1702 64.414 20.0402 64.3451 19.9234C64.2762 19.8067 64.1832 19.706 64.0723 19.628C63.9614 19.55 63.8351 19.4966 63.702 19.4713C63.5688 19.4459 63.4318 19.4492 63.3 19.481C62.6132 19.6463 61.8972 19.6479 61.2097 19.4857C60.5222 19.3234 59.8824 19.0019 59.342 18.547C59.1949 18.4218 59.0132 18.3442 58.8211 18.3246C58.6289 18.3049 58.4353 18.3441 58.266 18.437C57.806 18.689 57.289 18.82 56.764 18.819C56.1115 18.8177 55.4754 18.6141 54.9435 18.2362C54.4116 17.8583 54.01 17.3247 53.794 16.709C53.732 16.5336 53.6202 16.3802 53.4722 16.2675C53.3242 16.1549 53.1465 16.088 52.961 16.075C51.8215 15.9907 50.7558 15.4799 49.9764 14.6445C49.1969 13.8091 48.7612 12.7105 48.756 11.568C48.758 11.338 48.778 11.108 48.816 10.881C48.8379 10.7454 48.8303 10.6066 48.7935 10.4742C48.7567 10.3418 48.6917 10.2189 48.603 10.114C48.1972 9.6387 47.9263 9.06334 47.8183 8.4478C47.7103 7.83227 47.7692 7.19904 47.989 6.614C48.0654 6.40927 48.0692 6.18448 47.9997 5.9773C47.9301 5.77012 47.7915 5.59313 47.607 5.476C46.9548 5.06616 46.455 4.45384 46.1841 3.73283C45.9132 3.01182 45.8861 2.22188 46.107 1.484C46.1484 1.35319 46.161 1.21495 46.144 1.0788C46.1269 0.942644 46.0806 0.81179 46.0082 0.695221C45.9358 0.578653 45.8391 0.479131 45.7246 0.403488C45.6101 0.327845 45.4806 0.277873 45.345 0.257004C40.9041 -0.418508 36.3627 0.24399 32.3 2.16C29.2863 0.73179 25.9919 -0.00580639 22.657 0.00100358C19.262 0.000741143 15.9103 0.763546 12.8498 2.23302C9.78928 3.7025 7.09818 5.84107 4.97545 8.49063C2.85273 11.1402 1.35266 14.233 0.586156 17.5403C-0.180351 20.8477 -0.193694 24.285 0.547111 27.5982C1.28792 30.9114 2.76393 34.0157 4.86602 36.6817C6.96811 39.3476 9.64252 41.507 12.6915 43.0002C15.7405 44.4934 19.0862 45.2822 22.4811 45.3083C25.876 45.3344 29.2334 44.5972 32.305 43.151C35.9374 44.8614 39.9593 45.5752 43.9585 45.2193C47.9577 44.8634 51.7903 43.4506 55.0637 41.1257C58.337 38.8008 60.9333 35.6473 62.5866 31.9885C64.2398 28.3297 64.8905 24.2971 64.472 20.304V20.305ZM22.657 43.4C19.9325 43.4 17.2347 42.8634 14.7176 41.8208C12.2005 40.7782 9.91347 39.25 7.98698 37.3235C6.06049 35.397 4.53231 33.1099 3.4897 30.5928C2.4471 28.0758 1.91047 25.378 1.91047 22.6535C1.91047 19.929 2.4471 17.2312 3.4897 14.7142C4.53231 12.1971 6.06049 9.91 7.98698 7.98351C9.91347 6.05702 12.2005 4.52885 14.7176 3.48624C17.2347 2.44363 19.9325 1.907 22.657 1.907C25.223 1.903 27.767 2.38 30.158 3.314C26.8386 5.33412 24.0949 8.1746 22.1912 11.5621C20.2874 14.9496 19.2876 18.7701 19.2879 22.6558C19.2882 26.5416 20.2886 30.362 22.1929 33.7492C24.0972 37.1363 26.8412 39.9764 30.161 41.996C27.769 42.9275 25.2239 43.4036 22.657 43.4ZM41.943 43.4C39.1302 43.3977 36.3472 42.8234 33.7632 41.7121C31.1793 40.6008 28.8483 38.9756 26.912 36.9353C24.9757 34.8951 23.4745 32.4824 22.4997 29.8439C21.5248 27.2054 21.0967 24.3962 21.2414 21.5871C21.386 18.7781 22.1004 16.0277 23.3411 13.5033C24.5818 10.9789 26.3228 8.73316 28.4585 6.90259C30.5941 5.07202 33.0797 3.69485 35.7641 2.8548C38.4486 2.01476 41.2758 1.72937 44.074 2.016C43.9963 2.88598 44.1302 3.76183 44.4641 4.56889C44.7981 5.37595 45.3223 6.09029 45.992 6.651C45.9038 7.03883 45.8592 7.43528 45.859 7.833C45.8599 8.96928 46.2166 10.0767 46.879 11C46.8604 11.1888 46.851 11.3783 46.851 11.568C46.8559 13.0901 47.3984 14.5616 48.3828 15.7225C49.3672 16.8835 50.7301 17.6593 52.231 17.913C52.7906 19.0496 53.7568 19.9345 54.9381 20.3923C56.1194 20.8501 57.4295 20.8475 58.609 20.385C59.7948 21.2026 61.2215 21.5972 62.659 21.505C62.8123 24.3214 62.3903 27.1395 61.4188 29.7875C60.4473 32.4355 58.9465 34.8578 57.0081 36.9067C55.0696 38.9557 52.7342 40.5883 50.1441 41.705C47.554 42.8217 44.7635 43.3991 41.943 43.402V43.4Z" fill="#634647"/>
<path d="M54.962 34.3C54.1758 35.1772 53.3042 35.9738 52.36 36.678C52.1571 36.8292 52.0225 37.0548 51.986 37.3051C51.9494 37.5555 52.0138 37.8101 52.165 38.013C52.3161 38.2159 52.5417 38.3504 52.7921 38.387C53.0424 38.4236 53.2971 38.3592 53.5 38.208C54.5464 37.428 55.5126 36.5457 56.384 35.574C56.5445 35.3842 56.6247 35.1393 56.6076 34.8913C56.5904 34.6433 56.4773 34.4118 56.2921 34.2459C56.107 34.08 55.8644 33.9929 55.6161 34.003C55.3677 34.0131 55.133 34.1196 54.962 34.3Z" fill="#644647"/>
<path d="M44.5 32.829C43.988 32.829 42.926 33.044 42.5 33.329C42.074 33.613 42.158 33.592 41.963 34.065C41.8152 34.419 41.7479 34.8014 41.7659 35.1846C41.7839 35.5678 41.8868 35.9422 42.0672 36.2808C42.2476 36.6193 42.5009 36.9136 42.8089 37.1423C43.1169 37.371 43.4718 37.5285 43.848 37.6033C44.2243 37.6781 44.6125 37.6683 44.9845 37.5748C45.3565 37.4813 45.7032 37.3063 45.9993 37.0624C46.2955 36.8186 46.5337 36.512 46.697 36.1649C46.8602 35.8177 46.9442 35.4386 46.943 35.055C46.943 34.369 46.485 33.814 46 33.329C45.515 32.843 45.186 32.829 44.5 32.829ZM13.584 30.329C13.288 30.329 12.672 30.463 12.425 30.64C12.179 30.817 12.228 30.804 12.115 31.099C12.001 31.3958 11.9713 31.7183 12.029 32.031C12.087 32.343 12.229 32.631 12.439 32.856C12.649 33.082 12.916 33.236 13.207 33.298C13.498 33.36 13.8 33.328 14.074 33.206C14.348 33.084 14.582 32.877 14.747 32.612C14.9131 32.3427 15.0007 32.0324 15 31.716C15 31.288 14.734 30.942 14.453 30.64C14.172 30.338 13.982 30.33 13.584 30.329ZM31.389 18.954C31.246 18.462 30.742 17.503 30.349 17.174C29.957 16.844 30.001 16.919 29.492 16.864C29.1121 16.8233 28.7279 16.8672 28.3669 16.9926C28.006 17.118 27.6773 17.3217 27.4045 17.5892C27.1316 17.8567 26.9214 18.1813 26.7888 18.5397C26.6563 18.898 26.6048 19.2813 26.638 19.662C26.6711 20.0426 26.7882 20.4112 26.9807 20.7413C27.1732 21.0713 27.4365 21.3546 27.7515 21.5709C28.0665 21.7871 28.4255 21.931 28.8027 21.992C29.1799 22.0531 29.5659 22.0298 29.933 21.924C30.593 21.73 30.997 21.136 31.328 20.534C31.658 19.933 31.58 19.614 31.388 18.954H31.389ZM9.38903 20.954C9.24603 20.462 8.74203 19.503 8.34903 19.174C7.95803 18.844 8.00203 18.919 7.49303 18.864C7.11261 18.8224 6.72769 18.8656 6.36597 18.9905C6.00425 19.1155 5.67473 19.3191 5.40113 19.5866C5.12753 19.8542 4.91665 20.1791 4.78366 20.538C4.65068 20.8968 4.5989 21.2807 4.63205 21.6619C4.6652 22.0432 4.78246 22.4123 4.97539 22.7428C5.16832 23.0733 5.43211 23.357 5.7478 23.5733C6.06348 23.7896 6.42319 23.9333 6.80105 23.9939C7.17891 24.0546 7.56551 24.0307 7.93303 23.924C8.59303 23.73 8.99703 23.136 9.32803 22.534C9.65803 21.933 9.58003 21.614 9.38803 20.954H9.38903ZM38.112 7.329C37.717 7.329 36.896 7.508 36.567 7.744C36.239 7.98 36.304 7.962 36.152 8.355C36.001 8.748 35.962 9.181 36.038 9.598C36.116 10.015 36.306 10.398 36.586 10.698C36.866 10.999 37.222 11.204 37.61 11.288C37.998 11.37 38.4 11.328 38.765 11.165C39.131 11.002 39.443 10.727 39.663 10.373C39.883 10.019 40 9.603 40 9.178C40 8.608 39.646 8.147 39.27 7.744C38.896 7.341 38.642 7.329 38.112 7.329ZM18.989 8.032C19.012 7.736 18.927 7.112 18.77 6.852C18.613 6.592 18.622 6.642 18.338 6.505C18.0512 6.36813 17.7321 6.31311 17.416 6.346C17.1038 6.37716 16.807 6.49647 16.56 6.69C16.322 6.87611 16.1471 7.13099 16.059 7.42C15.974 7.705 15.982 8.009 16.082 8.292C16.182 8.574 16.369 8.824 16.62 9.01C16.8753 9.19679 17.1776 9.30865 17.493 9.333C17.92 9.366 18.286 9.129 18.609 8.873C18.933 8.617 18.956 8.428 18.989 8.032Z" fill="#845556" stroke="#644647" stroke-width="1.8"/>
<path d="M15.027 15.605C14.8783 15.4037 14.6564 15.2689 14.4093 15.2296C14.1621 15.1904 13.9093 15.2498 13.7056 15.3952C13.5018 15.5406 13.3634 15.7602 13.3201 16.0067C13.2767 16.2532 13.332 16.5069 13.474 16.713L14.806 18.576C14.935 18.754 15.1215 18.8821 15.334 18.9386C15.5465 18.995 15.772 18.9764 15.9724 18.8859C16.1728 18.7955 16.3358 18.6386 16.4339 18.4418C16.532 18.2451 16.5593 18.0205 16.511 17.806C16.4829 17.6837 16.4309 17.5682 16.358 17.466L15.027 15.605Z" fill="#634647"/>
<path d="M43.31 23.21C43.3829 23.312 43.4751 23.3986 43.5815 23.4649C43.6878 23.5312 43.8062 23.5759 43.9299 23.5965C44.0535 23.6171 44.18 23.6131 44.3021 23.5848C44.4242 23.5565 44.5395 23.5044 44.6415 23.4315C44.7435 23.3586 44.8301 23.2664 44.8964 23.16C44.9627 23.0536 45.0074 22.9353 45.028 22.8116C45.0486 22.688 45.0446 22.5615 45.0163 22.4394C44.988 22.3173 44.9359 22.202 44.863 22.1L43.597 20.328C43.5241 20.2261 43.4319 20.1395 43.3255 20.0733C43.2192 20.007 43.1009 19.9624 42.9773 19.9418C42.8537 19.9213 42.7272 19.9253 42.6052 19.9537C42.4832 19.982 42.3679 20.0341 42.266 20.107C42.1641 20.1799 42.0775 20.2721 42.0113 20.3785C41.945 20.4848 41.9003 20.6031 41.8798 20.7267C41.8593 20.8503 41.8633 20.9768 41.8917 21.0988C41.92 21.2208 41.9721 21.3361 42.045 21.438L43.311 23.21H43.31Z" fill="#644647"/>
<path d="M19.672 35.374C19.4192 35.374 19.1767 35.4744 18.9978 35.6531C18.8189 35.8318 18.7183 36.0741 18.718 36.327V38.69C18.726 38.9375 18.83 39.1723 19.0079 39.3445C19.1859 39.5168 19.4238 39.6131 19.6715 39.6131C19.9192 39.6131 20.1571 39.5168 20.3351 39.3445C20.513 39.1723 20.617 38.9375 20.625 38.69V36.328C20.625 36.0751 20.5246 35.8326 20.346 35.6538C20.1673 35.4749 19.9249 35.3743 19.672 35.374Z" fill="#634647"/>
<path d="M33.129 29.18L30.326 30.245C30.1486 30.3112 29.9949 30.4288 29.8847 30.5827C29.7744 30.7366 29.7124 30.9199 29.7067 31.1092C29.701 31.2985 29.7519 31.4851 29.8527 31.6454C29.9536 31.8057 30.0999 31.9322 30.273 32.009C30.5038 32.1125 30.7663 32.1205 31.003 32.031L33.806 30.966C34.0424 30.8762 34.2335 30.6962 34.3372 30.4655C34.4409 30.2349 34.4488 29.9724 34.359 29.736C34.2692 29.4996 34.0892 29.3085 33.8585 29.2048C33.6278 29.1011 33.3654 29.0932 33.129 29.183V29.18ZM57.502 25.552L55.335 26.375C55.1587 26.4422 55.0062 26.5602 54.8967 26.7139C54.7873 26.8677 54.7258 27.0504 54.7201 27.239C54.7143 27.4276 54.7645 27.6137 54.8643 27.7739C54.9641 27.9341 55.1091 28.0611 55.281 28.139C55.3953 28.1903 55.5186 28.2185 55.6439 28.2221C55.7691 28.2257 55.8939 28.2046 56.011 28.16L58.18 27.337C58.2971 27.2925 58.4043 27.2253 58.4955 27.1394C58.5867 27.0534 58.6601 26.9503 58.7114 26.836C58.7628 26.7217 58.7911 26.5984 58.7948 26.4732C58.7985 26.3479 58.7775 26.2231 58.733 26.106C58.6885 25.9889 58.6213 25.8816 58.5354 25.7905C58.4494 25.6993 58.3463 25.6259 58.232 25.5746C58.1177 25.5232 57.9944 25.4949 57.8691 25.4912C57.7439 25.4875 57.6191 25.5085 57.502 25.553V25.552Z" fill="#644647"/>
</g>
<defs>
<clipPath id="clip0_44_84">
<rect width="65" height="46" fill="white"/>
</clipPath>
</defs>
</svg>
