<svg width="16" height="16" fill="none" xmlns="http://www.w3.org/2000/svg"><g filter="url(#a)"><path fill-rule="evenodd" clip-rule="evenodd" d="M12.908 0H3.092A3.096 3.096 0 0 0 0 3.092v9.816A3.096 3.096 0 0 0 3.092 16h9.816A3.096 3.096 0 0 0 16 12.908V3.092A3.096 3.096 0 0 0 12.908 0zm.887 1.845.354-.002v2.712l-2.704.009-.01-2.713 2.36-.006zM5.717 6.357A2.812 2.812 0 0 1 8 5.183c.94 0 1.771.465 2.283 1.174.334.463.534 1.03.534 1.643A2.82 2.82 0 0 1 8 10.816 2.82 2.82 0 0 1 5.184 8c0-.613.2-1.18.533-1.643zm8.724 6.55c0 .847-.688 1.534-1.533 1.534H3.092a1.535 1.535 0 0 1-1.533-1.533v-6.55h2.39A4.343 4.343 0 0 0 3.625 8 4.38 4.38 0 0 0 8 12.375 4.38 4.38 0 0 0 12.375 8a4.38 4.38 0 0 0-.322-1.643h2.388v6.55z" fill="#000"/></g><defs><filter id="a" x="0" y="0" width="16" height="17" filterUnits="userSpaceOnUse" color-interpolation-filters="sRGB"><feFlood flood-opacity="0" result="BackgroundImageFix"/><feBlend in="SourceGraphic" in2="BackgroundImageFix" result="shape"/><feColorMatrix in="SourceAlpha" values="0 0 0 0 0 0 0 0 0 0 0 0 0 0 0 0 0 0 127 0" result="hardAlpha"/><feOffset dy="1"/><feGaussianBlur stdDeviation="1.5"/><feComposite in2="hardAlpha" operator="arithmetic" k2="-1" k3="1"/><feColorMatrix values="0 0 0 0 0 0 0 0 0 0 0 0 0 0 0 0 0 0 0.5 0"/><feBlend in2="shape" result="effect1_innerShadow"/></filter></defs></svg>