<svg width="20" height="20" viewBox="0 0 20 20" fill="none" xmlns="http://www.w3.org/2000/svg" class="TheHeaderCartBtn__icon"><path fill-rule="evenodd" clip-rule="evenodd" d="M13.997 4h3.457c.537 0 .806 0 1.015.104a1 1 0 0 1 .423.396c.117.202.134.47.169 1.006l.495 7.637c.156 2.41.234 3.615-.194 4.54a4 4 0 0 1-1.716 1.83C16.751 20 15.544 20 13.13 20H6.871c-2.415 0-3.622 0-4.517-.487a4 4 0 0 1-1.715-1.83c-.429-.925-.35-2.13-.194-4.54L.94 5.506c.034-.536.052-.804.169-1.006a1 1 0 0 1 .422-.396C1.741 4 2.01 4 2.546 4h3.457C6.087 1.776 7.845 0 10 0c2.156 0 3.913 1.776 3.997 4ZM12 6v3h2V6h3.089l.471 7.273c.08 1.24.13 2.043.118 2.657-.012.59-.083.807-.13.911a2 2 0 0 1-.859.915c-.1.055-.313.14-.9.19-.612.052-1.418.054-2.66.054H6.871c-1.242 0-2.048-.002-2.659-.054-.588-.05-.8-.135-.9-.19a2 2 0 0 1-.859-.915c-.048-.104-.119-.321-.13-.912-.013-.613.037-1.417.117-2.656L2.912 6H6v3h2V6h4ZM8.006 4C8.086 2.815 9.017 2 10 2c.983 0 1.914.815 1.995 2h-3.99Z" fill="#131313"/></svg>