<svg width="16" height="17" xmlns="http://www.w3.org/2000/svg"><path d="M8 16.825c-4.412 0-8-3.746-8-8.348C0 3.874 3.589.13 8 .13c4.412 0 8 3.745 8 8.348 0 4.602-3.588 8.348-8 8.348zm0-15.65c-3.86 0-6.998 3.276-6.998 7.302S4.141 15.778 8 15.778c3.859 0 6.997-3.275 6.997-7.3 0-4.028-3.138-7.302-6.997-7.302zm0 11.11c-1.965 0-3.563-1.667-3.563-3.717S6.035 4.85 7.999 4.85c1.964 0 3.562 1.667 3.562 3.717S9.963 12.285 8 12.285zm0-6.387c-1.411 0-2.559 1.198-2.559 2.67S6.59 11.238 8 11.238c1.411 0 2.56-1.198 2.56-2.67 0-1.473-1.149-2.67-2.56-2.67z" fill="#131313" fill-rule="nonzero"/></svg>