<svg width="17" height="15" fill="none" xmlns="http://www.w3.org/2000/svg"><path fill-rule="evenodd" clip-rule="evenodd" d="M14.82 2.277a3.608 3.608 0 0 0 1.516-2.01 6.685 6.685 0 0 1-2.19.881A3.355 3.355 0 0 0 11.631 0C9.728 0 8.186 1.628 8.186 3.635c0 .285.028.562.087.828C5.41 4.31 2.871 2.865 1.17.665a3.78 3.78 0 0 0-.467 1.828c0 1.26.609 2.373 1.533 3.026a3.323 3.323 0 0 1-1.562-.454v.045c0 1.761 1.188 3.23 2.766 3.564-.29.085-.593.128-.909.128-.222 0-.439-.022-.648-.065.438 1.444 1.711 2.496 3.22 2.524A6.69 6.69 0 0 1 0 12.767 9.398 9.398 0 0 0 5.283 14.4c6.341 0 9.806-5.54 9.806-10.343 0-.158-.002-.315-.009-.47a7.205 7.205 0 0 0 1.72-1.882 6.606 6.606 0 0 1-1.98.572z" fill="#000"/></svg>