<svg xmlns="http://www.w3.org/2000/svg" viewBox="0 0 227.16 173.87"><title>digitelior_black_1</title><g id="Calque_2" data-name="Calque 2"><g id="Calque_1-2" data-name="Calque 1"><path d="M65.75,101.33c-5.6,3.22-11.36,5.88-16.38,9.56-10.58,7.76-21.08,15.7-31,24.3-4,3.47-6.9,8.58-9.19,13.47-3.36,7.16-1,12.29,6.83,13,10,.92,20.41,1.34,30.3-.22,52.48-8.26,98.89-30,138.4-65.57,9.16-8.24,16.82-18.49,23.66-28.81,4.16-6.28,6.17-14.31,7.86-21.84,2.51-11.2-2.17-20.24-11-27.14-9.92-7.77-21.56-11.47-33.87-12-35.59-1.59-67.21,9.48-95.16,31.32a47.83,47.83,0,0,0-7.67,7.84c-5.79,7.21-5.89,11.72-.87,19.39-7.55-.38-13.77-8.41-12.1-16.67a30.14,30.14,0,0,1,5.26-12.18,50.71,50.71,0,0,1,12.54-12C109.24,1,147.87-5.7,189.17,4.9a60.72,60.72,0,0,1,12.92,5.25C223.48,21.39,231.84,41.87,224.63,65c-4,12.83-11.38,23.67-20.3,33.5-20.74,22.86-46.22,39.05-74,51.75-31.85,14.53-65,23.87-100.34,23.65a59.09,59.09,0,0,1-19.9-3.74c-9.27-3.47-12.32-11.77-8.34-20.87A45.89,45.89,0,0,1,9.5,137.17C24.68,120.36,43.94,109.61,64.58,101,64.81,100.93,65.18,101.17,65.75,101.33Z"/><path d="M95,125l8.6-1.87.61,1c-3.25,1.78-6.35,4-9.8,5.22-3.26,1.16-6.24-1.76-5.66-5.5a32.28,32.28,0,0,1,3-9.46,345,345,0,0,1,60.78-84.9,41.47,41.47,0,0,1,5-4.19c8.31-6.22,15.92-4.69,21.14,3.44-3.82,2.21-8.33,3.74-11.4,6.75a525.92,525.92,0,0,0-68.56,81.73,41,41,0,0,0-2.39,4.37C95.87,122.31,95.67,123.1,95,125Z"/></g></g></svg>