<svg width="334" height="234" viewBox="0 0 334 234" fill="none" xmlns="http://www.w3.org/2000/svg">
<path opacity="0.1" d="M28.6259 231.81H320.692C344.903 211.594 332.439 150.779 312.228 138.444C290.466 125.172 325.026 79.272 291.492 64.3699C269.601 54.6405 234.784 65.2427 239.465 39.225C245.954 3.13129 170.049 -6.11033 114.136 3.61904C53.6583 14.1314 108.878 65.846 42.3861 76.2556C8.19737 81.6209 14.8017 127.457 17.9949 136.917C20.7777 145.17 39.1416 158.249 13.6091 176.271C-23.8241 202.699 27.7411 231.322 28.6259 231.81Z" fill="#9BC1F9"/>
<path d="M288.042 77.4365C288.042 77.4365 283.259 87.859 280.04 92.2616C276.821 96.6642 273.756 100.874 271.191 113.081C268.627 125.3 269.063 126.52 268.357 129.677C267.652 132.835 263.087 145.619 263.061 147.955C263.035 150.304 253.815 163.64 251.455 169.891C249.096 176.142 244.915 185.063 245.146 189.594L246.197 189.324C246.197 189.324 247.057 178.735 254.341 168.03C261.625 157.325 260.586 155.31 268.857 149.804C277.129 144.31 282.476 129.113 282.476 129.113C282.476 129.113 290.889 112.619 290.504 104.045C290.12 95.4705 292.351 87.7435 288.042 77.4365Z" fill="#256653"/>
<path d="M276.847 61.4049C276.847 61.4049 276.565 68.2462 274.359 72.3151C272.153 76.384 270.255 78.8484 269.858 83.251C269.46 87.6536 268.075 98.9875 261.92 104.52C255.764 110.052 254.982 126.648 250.301 131.667C245.621 136.686 245.005 140.292 245.877 148.892C246.736 157.505 249.673 169.429 242.889 184.999L241.35 181.122C241.35 181.122 246.21 168.312 245.031 160.816C243.851 153.321 239.76 141.987 241.26 136.557C242.761 131.128 237.182 130.062 240.542 121.835C243.902 113.62 242.517 110.758 247.083 103.647C247.083 103.647 247.557 103.313 248.75 97.306C249.955 91.2989 259.624 80.2732 264.087 76.5123C268.563 72.7515 274.987 66.7316 276.847 61.4049Z" fill="#256653"/>
<path d="M258.688 95.2908C258.688 95.2908 253.353 104.443 253.276 110.334C253.199 116.226 253.84 121.013 251.135 129.087C248.429 137.148 253.802 142.256 252.25 146.71C250.699 151.164 250.583 156.44 250.634 160.431C250.686 164.436 244.517 177.67 243.581 184.37C242.645 191.07 243.838 191.096 243.838 191.096C243.838 191.096 244.864 182.252 246.274 179.325C247.698 176.399 252.007 166.31 253.007 162.408C254.02 158.506 256.751 156.003 259.098 149.393C261.458 142.782 264.805 137.225 264.548 127.842C264.292 118.459 268.062 108.563 258.688 95.2908Z" fill="#3C8F7C"/>
<path d="M247.377 184.947C247.377 184.947 249.865 173.331 260.368 172.176C270.871 171.021 277.039 173.1 284.464 164.603C291.889 156.106 296.198 142.654 298.558 140.331C298.558 140.331 294.826 138.406 288.632 144.207C282.438 150.009 278.078 154.412 274.487 157.787C270.897 161.163 267.985 158.968 264.202 161.189C261.022 163.05 256.918 168.441 255.11 171.265C254.52 172.176 253.828 173.023 253.033 173.768C252.302 174.435 251.443 175.269 250.878 175.873C249.763 177.079 246.557 184.986 246.557 184.986L247.377 184.947Z" fill="#3C8F7C"/>
<path d="M243.671 182.894C243.671 182.894 247.377 168.685 244.89 161.741C242.414 154.784 234.643 149.65 234.964 145.273C235.272 140.909 240.26 129.1 236.195 120.32C236.195 120.32 234.656 128.163 233.13 129.896C231.604 131.641 221.152 138.675 223.012 147.955C224.858 157.235 235.028 159.417 237.529 162.151C240.029 164.885 243.415 164.885 243.428 166.695C243.453 168.518 244.107 175.128 242.992 181.649L243.671 182.894Z" fill="#3C8F7C"/>
<path d="M247.724 173.395L252.917 158.403C252.917 158.403 255.969 146.351 257.739 136.288C259.509 126.225 258.675 95.2908 258.675 95.2908C258.675 95.2908 253.34 104.443 253.264 110.334C253.187 116.226 253.828 121.013 251.122 129.087C248.416 137.148 253.789 142.256 252.238 146.71C250.686 151.164 250.57 156.44 250.622 160.431C250.673 164.423 244.505 177.67 243.569 184.37C243.056 188.041 243.184 189.709 243.402 190.467C242.568 184.601 247.724 173.395 247.724 173.395Z" fill="#327F6B"/>
<path d="M273.333 164.462C268.691 165.386 264.549 165.078 259.034 169.172C253.533 173.28 250.288 177.657 250.288 177.657C250.288 177.657 247.813 182.085 246.787 184.421C246.634 184.781 246.557 184.986 246.557 184.986L247.365 184.947C247.365 184.947 249.852 173.331 260.355 172.176C270.858 171.021 277.026 173.1 284.451 164.603C291.877 156.106 296.185 142.654 298.545 140.331C298.545 140.331 290.658 146.479 285.772 151.909C280.912 157.351 277.975 163.538 273.333 164.462Z" fill="#327F6B"/>
<path d="M233.13 129.908C231.604 131.654 221.152 138.688 223.012 147.968C224.858 157.248 235.028 159.43 237.529 162.164C240.029 164.898 243.415 164.898 243.428 166.708C243.453 168.531 244.107 175.141 242.992 181.661L243.287 182.201C243.838 179.659 244.595 175.783 244.838 172.831C245.236 168.056 244.466 166.066 242.927 162.203C241.389 158.326 231.86 150.445 229.462 146.299C227.077 142.154 234.066 135.222 235.618 131.872C237.169 128.522 236.182 120.32 236.182 120.32C236.182 120.32 234.656 128.163 233.13 129.908Z" fill="#327F6B"/>
<path d="M257.932 176.039L259.56 172.086C260.83 169.185 264.075 167.799 266.806 168.993C273.692 171.996 276.68 180.378 273.487 187.694L271.153 193.047C270.127 195.396 270.487 197.976 271.871 199.785C273.128 201.441 273.333 203.739 272.461 205.728L271.23 208.552C269.897 211.607 267.306 213.866 264.228 214.803C262.433 215.355 260.843 216.703 260.009 218.628L258.265 222.62C256.342 227.035 251.404 229.14 247.262 227.33L244.89 226.291C240.735 224.481 238.927 219.424 240.85 215.008C243.967 209.733 243.723 205.792 242.607 203.11C240.979 199.182 241.004 194.651 242.761 190.634L243.005 190.069C244.851 185.82 248.429 182.65 252.7 181.289C254.585 180.686 256.547 179.223 257.932 176.039Z" fill="#50BFA5"/>
<path d="M228.539 231.81C231.886 227.472 250.199 204.252 262.138 200.376C275.321 196.101 262.894 213.07 262.894 213.07C262.894 213.07 286.285 187.476 294.865 189.774C302.739 191.891 294.865 207.756 294.865 207.756C294.865 207.756 303.726 198.964 314.472 198.964C324.937 198.964 307.163 230.129 306.201 231.797H228.539V231.81Z" fill="#96D9C9"/>
<path d="M299.019 181.559C289.465 196.499 282.489 213.096 278.501 230.719L277.847 230.539C281.822 213.276 288.747 196.718 298.288 181.79C300.507 178.324 302.905 174.204 307.047 172.856C307.124 172.831 307.162 172.946 307.085 172.985C303.289 174.422 301.097 178.324 299.019 181.559Z" fill="#3C8F7C"/>
<path d="M280.81 231.348C291.492 216.818 304.47 203.379 319.91 191.699C320.064 191.583 320.269 191.853 320.115 191.968C305.47 203.238 292.518 216.536 281.617 231.566L280.81 231.348Z" fill="#3C8F7C"/>
<path d="M299.891 172.291C300.135 172.651 301.084 173.601 301.353 174.833C301.725 176.014 301.43 177.49 301.404 177.426C301.327 177.451 302.494 176.476 302.854 174.91C303.328 173.408 302.995 171.329 302.405 170.649C301.392 169.095 299.635 168.929 299.288 169.686C298.942 170.456 299.404 171.47 299.891 172.291Z" fill="#3C8F7C"/>
<path d="M302.186 185.628C301.827 185.371 300.904 184.408 299.673 184.113C298.506 183.715 297.031 183.985 297.082 184.01C297.057 184.075 298.057 182.945 299.622 182.611C301.122 182.175 303.199 182.547 303.879 183.138C305.418 184.177 305.533 185.949 304.777 186.269C304.007 186.629 302.994 186.141 302.186 185.628Z" fill="#3C8F7C"/>
<path d="M298.737 191.481C298.378 191.224 297.455 190.261 296.224 189.966C295.057 189.568 293.582 189.838 293.633 189.863C293.607 189.928 294.608 188.798 296.172 188.464C297.673 188.028 299.75 188.4 300.43 188.991C301.969 190.03 302.084 191.802 301.328 192.122C300.558 192.469 299.545 191.981 298.737 191.481Z" fill="#3C8F7C"/>
<path d="M311.035 205.035C310.676 204.778 309.753 203.816 308.521 203.52C307.354 203.123 305.88 203.392 305.931 203.418C305.905 203.482 306.906 202.352 308.47 202.019C309.971 201.582 312.048 201.955 312.728 202.545C314.267 203.585 314.382 205.356 313.625 205.677C312.856 206.023 311.856 205.548 311.035 205.035Z" fill="#3C8F7C"/>
<path d="M317.319 199.49C316.96 199.233 316.037 198.271 314.806 197.975C313.639 197.578 312.164 197.847 312.215 197.873C312.19 197.937 313.19 196.807 314.754 196.474C316.255 196.037 318.332 196.41 319.012 197C320.551 198.04 320.666 199.811 319.91 200.132C319.153 200.478 318.14 200.004 317.319 199.49Z" fill="#3C8F7C"/>
<path d="M295.069 178.915C295.364 179.236 296.454 180.018 296.916 181.199C297.467 182.303 297.416 183.805 297.378 183.754C297.314 183.792 298.301 182.637 298.416 181.045C298.647 179.492 297.993 177.49 297.301 176.899C296.057 175.526 294.3 175.642 294.082 176.437C293.838 177.246 294.454 178.17 295.069 178.915Z" fill="#3C8F7C"/>
<path d="M289.991 185.538C290.415 185.769 291.915 186.18 292.659 187.296C293.505 188.285 293.621 189.992 293.557 189.953C293.48 190.03 294.621 188.31 294.57 186.475C294.672 184.639 293.582 182.688 292.633 182.329C290.864 181.328 288.594 182.226 288.401 183.202C288.196 184.203 289.107 184.986 289.991 185.538Z" fill="#3C8F7C"/>
<path d="M284.656 195.575C285.118 195.729 286.657 195.883 287.58 196.859C288.581 197.693 288.978 199.349 288.914 199.323C288.85 199.413 289.683 197.526 289.324 195.729C289.119 193.907 287.721 192.161 286.721 191.968C284.798 191.275 282.72 192.546 282.694 193.547C282.656 194.561 283.682 195.177 284.656 195.575Z" fill="#3C8F7C"/>
<path d="M300.455 202.571C300.789 202.776 301.981 203.2 302.533 204.149C303.161 205.009 303.161 206.396 303.11 206.37C303.046 206.421 304.072 205.099 304.136 203.597C304.328 202.109 303.559 200.466 302.789 200.119C301.404 199.195 299.506 199.798 299.301 200.594C299.07 201.377 299.763 202.07 300.455 202.571Z" fill="#3C8F7C"/>
<path d="M308.675 174.653C308.47 174.486 307.97 173.883 307.252 173.652C306.572 173.37 305.687 173.46 305.726 173.485C305.7 173.524 306.354 172.895 307.29 172.766C308.201 172.574 309.406 172.882 309.778 173.267C310.637 173.947 310.637 175 310.176 175.154C309.714 175.321 309.137 174.987 308.675 174.653Z" fill="#3C8F7C"/>
<path d="M306.765 170.379C306.778 170.636 306.944 171.406 306.688 172.125C306.496 172.831 305.893 173.485 305.893 173.447C305.854 173.434 306.739 173.318 307.419 172.651C308.124 172.048 308.624 170.905 308.547 170.366C308.535 169.262 307.701 168.633 307.291 168.903C306.867 169.16 306.778 169.814 306.765 170.379Z" fill="#3C8F7C"/>
<path d="M321.859 193.842C321.654 193.676 321.154 193.072 320.435 192.841C319.756 192.559 318.871 192.649 318.909 192.674C318.884 192.713 319.538 192.084 320.474 191.956C321.384 191.763 322.59 192.071 322.962 192.456C323.821 193.136 323.821 194.189 323.359 194.343C322.885 194.51 322.308 194.176 321.859 193.842Z" fill="#3C8F7C"/>
<path d="M319.538 189.543C319.563 189.799 319.807 190.557 319.615 191.288C319.486 192.007 318.935 192.7 318.922 192.662C318.871 192.662 319.756 192.456 320.371 191.737C321.025 191.083 321.423 189.889 321.307 189.376C321.205 188.285 320.32 187.707 319.935 188.015C319.55 188.31 319.512 188.965 319.538 189.543Z" fill="#3C8F7C"/>
<path d="M317.934 217.344C308.175 218.41 299.083 222.723 290.337 226.933C284.438 229.769 284.733 230.578 283.528 231.001C283.335 231.066 283.143 230.86 283.233 230.668C283.694 229.756 284.913 229.127 285.746 228.601C286.734 227.985 287.76 227.446 288.798 226.945C291.03 225.867 293.312 224.892 295.582 223.903C300.199 221.901 304.892 220.001 309.765 218.731C312.446 218.025 315.164 217.524 317.922 217.28C317.973 217.255 317.986 217.332 317.934 217.344Z" fill="#3C8F7C"/>
<path d="M309.138 214.315C309.202 214.713 309.612 215.881 309.356 217.024C309.202 218.153 308.381 219.27 308.368 219.218C308.291 219.218 309.651 218.846 310.574 217.678C311.562 216.613 312.1 214.739 311.882 213.93C311.651 212.223 310.241 211.402 309.651 211.902C309.061 212.39 309.048 213.43 309.138 214.315Z" fill="#3C8F7C"/>
<path d="M300.545 217.396C300.609 217.794 301.019 218.962 300.763 220.104C300.609 221.234 299.788 222.35 299.776 222.299C299.699 222.299 301.071 221.927 301.981 220.759C302.969 219.693 303.507 217.819 303.289 217.011C303.059 215.304 301.648 214.482 301.058 214.983C300.468 215.47 300.455 216.51 300.545 217.396Z" fill="#3C8F7C"/>
<path d="M291.812 221.285C291.876 221.683 292.286 222.851 292.03 223.993C291.876 225.123 291.055 226.239 291.042 226.188C290.965 226.188 292.337 225.816 293.248 224.648C294.235 223.582 294.774 221.708 294.556 220.9C294.325 219.193 292.914 218.371 292.325 218.872C291.735 219.372 291.722 220.399 291.812 221.285Z" fill="#3C8F7C"/>
<path d="M311.702 222.35C311.522 222.017 311.189 220.926 310.355 220.232C309.611 219.488 308.38 219.116 308.406 219.167C308.355 219.206 309.56 218.718 310.894 219.064C312.215 219.308 313.664 220.374 313.946 221.092C314.728 222.479 314.138 223.878 313.433 223.839C312.728 223.814 312.138 223.056 311.702 222.35Z" fill="#3C8F7C"/>
<path d="M302.764 225.521C302.585 225.187 302.251 224.096 301.418 223.403C300.674 222.658 299.443 222.286 299.468 222.337C299.417 222.376 300.623 221.888 301.956 222.235C303.277 222.479 304.726 223.544 305.008 224.263C305.791 225.649 305.201 227.048 304.495 227.01C303.777 226.984 303.187 226.227 302.764 225.521Z" fill="#3C8F7C"/>
<path d="M318.511 219.09C318.357 218.91 317.998 218.269 317.383 217.935C316.818 217.563 315.998 217.498 316.01 217.524C315.985 217.563 316.677 217.088 317.562 217.126C318.421 217.101 319.473 217.588 319.755 217.999C320.422 218.769 320.242 219.719 319.794 219.796C319.345 219.873 318.87 219.475 318.511 219.09Z" fill="#3C8F7C"/>
<path d="M317.486 214.88C317.448 215.124 317.486 215.855 317.127 216.459C316.845 217.075 316.178 217.563 316.178 217.524C316.14 217.511 316.973 217.55 317.704 217.049C318.448 216.613 319.089 215.663 319.115 215.162C319.281 214.161 318.627 213.442 318.217 213.609C317.781 213.789 317.589 214.367 317.486 214.88Z" fill="#3C8F7C"/>
<path d="M66.1624 157.62C54.6978 147.39 48.7987 132.694 45.8749 122.169C42.6945 110.745 42.2329 101.619 42.2329 101.529L41.6045 101.49C41.6045 101.58 42.079 110.771 45.2721 122.271C48.2217 132.899 54.1848 147.75 65.7905 158.108L66.1624 157.62Z" fill="#3C8F7C"/>
<path d="M43.541 98.8848C44.1053 101.516 43.6308 104.006 42.4254 105.79C40.5402 104.404 39.0527 102.171 38.4884 99.5394C37.9242 96.9081 38.3986 94.418 39.6041 92.6339C41.4892 94.0201 42.964 96.2535 43.541 98.8848Z" fill="#3C8F7C"/>
<path d="M40.0137 106.381C41.9886 108.216 43.1428 110.642 43.3736 112.965C41.2064 113.068 38.8211 112.182 36.8462 110.347C34.8713 108.511 33.7172 106.086 33.4863 103.762C35.6536 103.66 38.0388 104.532 40.0137 106.381Z" fill="#3C8F7C"/>
<path d="M39.0919 114.249C41.5413 115.019 43.5546 116.726 44.7473 118.806C42.9647 119.948 40.5795 120.282 38.1173 119.512C35.6679 118.741 33.6545 117.034 32.4619 114.955C34.2444 113.813 36.6425 113.479 39.0919 114.249Z" fill="#3C8F7C"/>
<path d="M42.874 123.722C44.8232 124.338 46.3749 125.904 47.2598 127.893C45.785 129.138 43.8486 129.6 41.9122 128.984C39.9629 128.368 38.4112 126.802 37.5264 124.813C39.0011 123.58 40.9247 123.106 42.874 123.722Z" fill="#3C8F7C"/>
<path d="M46.1953 110.206C47.7214 108.665 49.7475 108.011 51.7096 108.216C51.8122 110.296 51.1069 112.401 49.568 113.941C48.042 115.481 46.0158 116.136 44.0537 115.93C43.9511 113.851 44.6564 111.746 46.1953 110.206Z" fill="#3C8F7C"/>
<path d="M47.9657 116.996C49.4917 115.456 51.5179 114.801 53.48 115.006C53.5826 117.086 52.8773 119.191 51.3384 120.731C49.8123 122.271 47.7861 122.926 45.8241 122.72C45.7215 120.641 46.4396 118.536 47.9657 116.996Z" fill="#3C8F7C"/>
<path d="M59.2487 171.508C48.6561 169.968 39.6024 163.679 33.8573 158.686C27.6248 153.269 23.8674 148.135 23.8289 148.084L23.457 148.302C23.4955 148.353 27.2914 153.513 33.5623 158.981C39.3587 164.025 48.5151 170.366 59.2359 171.932L59.2487 171.508Z" fill="#50BFA5"/>
<path d="M23.5736 146.043C24.9073 147.352 25.587 148.982 25.5742 150.484C23.9455 150.394 22.2271 149.675 20.8806 148.366C19.5469 147.057 18.8672 145.427 18.8801 143.925C20.5215 144.015 22.2399 144.733 23.5736 146.043Z" fill="#50BFA5"/>
<path d="M24.4055 151.755C26.265 152.063 27.8552 153.025 28.8811 154.296C27.6628 155.182 25.9316 155.592 24.0849 155.284C22.2255 154.976 20.6353 154.014 19.6094 152.743C20.8277 151.844 22.5461 151.446 24.4055 151.755Z" fill="#50BFA5"/>
<path d="M26.8826 156.683C28.601 156.183 30.4348 156.414 31.9224 157.158C31.3197 158.506 30.0629 159.623 28.3445 160.11C26.6261 160.598 24.7923 160.38 23.3047 159.636C23.9074 158.288 25.1642 157.184 26.8826 156.683Z" fill="#50BFA5"/>
<path d="M32.7174 160.739C34.0896 160.354 35.59 160.662 36.8596 161.484C36.4749 162.767 35.5387 163.781 34.1666 164.179C32.7944 164.564 31.294 164.256 30.0244 163.435C30.4091 162.139 31.3453 161.125 32.7174 160.739Z" fill="#50BFA5"/>
<path d="M29.4605 151.6C29.7555 150.112 30.6916 148.956 31.9099 148.327C32.7691 149.495 33.1666 150.997 32.8589 152.473C32.5639 153.962 31.6278 155.117 30.4095 155.746C29.5503 154.591 29.1656 153.089 29.4605 151.6Z" fill="#50BFA5"/>
<path d="M33.1015 154.874C33.3964 153.385 34.3326 152.229 35.5508 151.6C36.41 152.769 36.8076 154.27 36.4998 155.746C36.2049 157.235 35.2687 158.39 34.0504 159.019C33.1912 157.851 32.7937 156.35 33.1015 154.874Z" fill="#50BFA5"/>
<path d="M65.6237 203.225C53.4153 207.872 39.9629 205.42 30.8323 202.545C20.9193 199.426 13.8149 195.152 13.7507 195.1L13.4814 195.614C13.5584 195.652 20.7142 199.965 30.6912 203.11C39.9116 206.011 53.4922 208.488 65.8545 203.79L65.6237 203.225Z" fill="#96D9C9"/>
<path d="M12.2504 192.623C14.469 193.483 16.1745 195.165 17.0722 197.128C15.2769 198.04 13.007 198.181 10.8013 197.321C8.58276 196.461 6.87717 194.779 5.97949 192.816C7.76202 191.891 10.0319 191.75 12.2504 192.623Z" fill="#96D9C9"/>
<path d="M16.5718 199.49C18.739 198.733 21.0217 198.977 22.8683 199.978C22.0989 201.903 20.5087 203.508 18.3415 204.265C16.1742 205.022 13.8916 204.778 12.0449 203.777C12.8272 201.852 14.4174 200.247 16.5718 199.49Z" fill="#96D9C9"/>
<path d="M22.2026 204.329C23.7414 202.609 25.8189 201.749 27.8579 201.788C28.0375 203.906 27.3578 206.139 25.8317 207.859C24.2929 209.579 22.2154 210.439 20.1764 210.4C19.984 208.282 20.6637 206.049 22.2026 204.329Z" fill="#96D9C9"/>
<path d="M30.0639 206.819C31.6028 205.099 33.6802 204.239 35.7193 204.278C35.8988 206.396 35.2191 208.629 33.6931 210.349C32.167 212.069 30.0767 212.929 28.0377 212.89C27.8453 210.773 28.525 208.552 30.0639 206.819Z" fill="#96D9C9"/>
<path d="M22.6642 198.758C21.3177 197 20.7149 194.869 20.856 192.944C22.6385 193.149 24.4595 194.189 25.8061 195.947C27.1526 197.706 27.7553 199.837 27.6142 201.762C25.8317 201.557 24.0107 200.517 22.6642 198.758Z" fill="#96D9C9"/>
<path d="M30.8321 201.313C29.4599 199.567 28.8187 197.449 28.9341 195.524C30.7166 195.704 32.5505 196.705 33.9226 198.45C35.2948 200.196 35.936 202.314 35.8206 204.239C34.038 204.06 32.2042 203.058 30.8321 201.313Z" fill="#96D9C9"/>
<path d="M40.3868 207.512C40.7459 206.588 41.464 205.959 42.3104 205.69C42.708 206.537 42.7849 207.551 42.4258 208.462C42.0668 209.386 41.3486 210.015 40.5022 210.285C40.1047 209.438 40.0278 208.424 40.3868 207.512Z" fill="#96D9C9"/>
<path d="M91.8351 230.912C91.8351 230.912 107.403 169.314 102.235 163.114C95.1052 154.566 89.219 182.932 88.6419 180.532C83.1917 157.774 81.7426 128.638 64.1482 125.557C54.1455 123.799 66.4565 147.211 65.7127 153.552C64.9689 159.879 46.9512 138.868 36.0124 127.842C25.0607 116.829 19.4053 123.799 26.3303 137.648C33.0244 151.036 54.6584 165.668 50.1957 167.414C45.7329 169.16 18.6615 151.857 15.3401 159.251C11.2749 168.312 51.8884 180.647 48.0669 182.688C44.2454 184.729 24.8299 178.016 25.3557 184.947C25.8814 191.879 51.9782 191.622 51.5422 194.664C50.8241 199.606 33.563 188.426 32.8064 195.254C32.0241 202.237 55.5176 200.966 55.1073 206.421C54.8764 209.553 49.8366 204.83 49.0928 209.168C47.4001 219.064 78.3571 231.104 78.3571 231.104L91.8351 230.912Z" fill="#3C8F7C"/>
<path d="M103.71 231.284C103.71 231.284 88.8983 208.552 81.7681 204.265C74.1763 199.695 79.9599 213.378 79.9599 213.378C79.9599 213.378 64.443 194.895 60.1341 198.656C55.8253 202.417 59.7366 206.755 59.7366 206.755C59.7366 206.755 45.8097 202.622 43.2962 207.743C39.4491 215.612 62.3911 222.132 62.3911 222.132C62.3911 222.132 52.5423 222.029 54.3505 227.343C57.082 235.34 103.71 231.284 103.71 231.284Z" fill="#50BFA5"/>
<path d="M43.2969 207.743C45.7975 202.622 59.7372 206.755 59.7372 206.755C59.7372 206.755 55.8259 202.404 60.1347 198.656C64.4436 194.908 76.8572 206.139 76.8572 206.139C76.8572 206.139 75.562 196.872 84.8978 205.035C91.5791 210.862 103.711 231.284 103.711 231.284L43.2969 207.743Z" fill="#96D9C9"/>
<path d="M85.7306 174.217L86.3974 173.768C74.3429 155.49 70.6624 133.785 69.6878 118.806C68.6362 102.543 70.4829 90.4518 70.4957 90.3363L69.675 90.0924C69.6621 90.2079 67.8027 102.376 68.8542 118.741C69.8289 133.849 73.5478 155.746 85.7306 174.217Z" fill="#96D9C9"/>
<path d="M72.8683 87.4868C72.894 91.1578 71.6244 94.1998 69.5854 96.0096C67.5207 93.3783 66.1999 89.8357 66.1742 86.1647C66.1486 82.4937 67.4181 79.4517 69.4571 77.6419C71.5218 80.2604 72.8427 83.803 72.8683 87.4868Z" fill="#96D9C9"/>
<path d="M66.3404 95.7401C68.3923 98.9875 69.2386 102.633 68.9052 105.765C66.084 104.956 63.2499 102.787 61.1852 99.5394C59.1334 96.292 58.287 92.6467 58.6204 89.5148C61.4417 90.3106 64.2886 92.4927 66.3404 95.7401Z" fill="#96D9C9"/>
<path d="M63.0445 105.598C66.0068 107.651 68.1356 110.758 69.1231 113.979C66.5198 114.711 63.3523 114.108 60.4028 112.054C57.4404 110 55.3117 106.894 54.3242 103.672C56.9275 102.941 60.095 103.531 63.0445 105.598Z" fill="#96D9C9"/>
<path d="M66.9051 122.81C68.2003 123.58 69.1749 124.813 69.6751 126.148C68.6107 126.545 67.2898 126.391 65.9946 125.621C64.6994 124.851 63.7247 123.619 63.2246 122.284C64.289 121.899 65.6099 122.04 66.9051 122.81Z" fill="#96D9C9"/>
<path d="M67.9568 129.19C69.2521 129.96 70.2267 131.192 70.7268 132.527C69.6624 132.925 68.3416 132.771 67.0463 132.001C65.7511 131.23 64.7765 129.998 64.2764 128.663C65.3279 128.265 66.6616 128.419 67.9568 129.19Z" fill="#96D9C9"/>
<path d="M73.2783 103.377C75.6636 102.03 78.4464 102.042 80.9214 103.159C80.511 105.919 79.0235 108.357 76.6382 109.705C74.2529 111.053 71.4701 111.04 68.9951 109.923C69.4055 107.164 70.8931 104.725 73.2783 103.377Z" fill="#96D9C9"/>
<path d="M73.7529 112.978C76.1382 111.631 78.921 111.643 81.396 112.76C80.9856 115.52 79.4981 117.958 77.1128 119.306C74.7276 120.654 71.9448 120.641 69.4697 119.524C69.8929 116.765 71.3677 114.339 73.7529 112.978Z" fill="#96D9C9"/>
<path d="M73.2779 126.725C74.8296 125.84 76.6378 125.852 78.2536 126.584C77.9843 128.381 77.0225 129.96 75.4708 130.845C73.9191 131.731 72.1109 131.718 70.4951 130.987C70.7644 129.202 71.7262 127.611 73.2779 126.725Z" fill="#96D9C9"/>
<path d="M243.427 180.93C244.825 181.161 244.748 181.392 244.928 181.405C245.146 181.43 247.672 180.16 247.672 180.16C247.672 180.16 255.148 176.463 255.546 176.245L260.945 169.442L265.1 171.367C265.1 171.367 259.034 178.594 258.649 178.915C258.265 179.236 247.544 182.996 246.608 183.356C246.608 183.356 245.671 184.216 245.056 184.742C244.453 185.255 243.632 185.474 243.44 185.589C243.414 185.602 242.735 185.961 241.786 186.167C240.965 186.346 241.645 185.795 241.645 185.795C241.645 185.795 243.094 185.178 243.017 185.076C242.966 184.986 242.196 185.371 241.286 185.576C241.055 185.628 240.824 185.679 240.619 185.73C240.067 185.846 239.824 185.538 240.375 185.307C240.568 185.23 240.901 185.101 241.145 185.05C241.414 184.999 241.632 184.858 241.85 184.768C242.286 184.601 242.594 184.485 242.581 184.472C242.555 184.447 242.619 184.357 242.376 184.408C242.081 184.472 241.478 184.729 241.029 184.781C240.773 184.806 240.247 184.896 240.247 184.896C240.247 184.896 239.324 184.986 239.311 184.858C239.298 184.575 239.862 184.408 240.221 184.421C240.439 184.306 241.004 184.229 241.004 184.229C241.004 184.229 242.081 183.805 242.017 183.638C241.991 183.574 241.337 183.677 240.644 183.715C239.913 183.767 239.388 183.767 239.349 183.625C239.285 183.394 239.875 183.317 239.875 183.317C239.875 183.317 240.388 183.24 240.555 183.202C240.747 183.163 241.324 182.971 241.324 182.971C241.324 182.971 243.299 182.239 243.235 182.098C243.158 181.957 242.837 181.649 242.696 181.649C242.555 181.649 242.312 181.79 242.171 181.79C242.029 181.79 241.735 181.764 241.709 181.584C241.683 181.405 242.465 181.045 242.465 181.045C242.465 181.045 243.03 180.866 243.427 180.93Z" fill="#F8A492"/>
<path d="M257.188 173.678C257.188 173.678 258.534 174.897 259.098 175.308C259.56 175.642 261.83 176.733 261.83 176.733C261.83 176.733 264.087 173.267 265.074 171.534C266.267 169.429 267.1 166.297 266.818 166.207C266.023 165.964 264.933 165.822 263.92 166.284C260.432 167.902 257.188 173.678 257.188 173.678Z" fill="#355389"/>
<path d="M244.735 182.74C244.133 182.829 243.517 182.714 243.261 182.175C243.209 182.83 244.184 183.15 244.735 182.74Z" fill="#FE875E"/>
<path d="M77.3322 158.468C77.4092 156.452 77.1142 154.463 76.2294 152.589C75.4599 150.972 73.5492 150.06 71.8051 150.06C66.278 150.047 65.5727 157.402 62.0461 160.226C60.9689 161.086 59.7634 161.792 58.7503 162.729C54.9929 166.182 56.6856 172.561 60.1353 175.577C62.5334 177.67 66.2908 178.863 69.2403 177.22C70.7792 176.36 71.9462 174.948 72.7797 173.383C73.9595 171.175 74.729 168.621 75.5625 166.259C76.473 163.756 77.2296 161.15 77.3322 158.468Z" fill="#13375B"/>
<path d="M78.2423 168.223C76.5111 162.973 74.2412 163.063 74.2412 163.063L76.0879 174.23C77.1523 173.934 78.5372 173.293 79.6145 172.985C79.2426 171.329 78.6655 169.519 78.2423 168.223Z" fill="#E7BA29"/>
<path d="M86.9618 186.115L80.6524 181.289C80.6524 181.289 80.0112 176.797 79.1648 172.805C78.1004 173.1 77.1386 173.947 76.0742 174.23L77.6772 183.163L85.9487 187.437L88.2826 190.441L88.8084 187.36L86.9618 186.115Z" fill="#F48C7F"/>
<path d="M144.529 178.581C146.491 178.581 148.325 179.094 149.915 180.006C150.12 180.121 150.338 180.224 150.569 180.314C155.416 182.303 160.725 178.619 160.725 173.37V147.544H134.923C129.678 147.544 125.985 142.231 127.986 137.379C128.075 137.148 128.191 136.929 128.293 136.724C129.191 135.132 129.717 133.284 129.717 131.333C129.717 125.108 124.536 120.102 118.252 120.397C112.571 120.667 107.993 125.326 107.839 131.025C107.788 133.053 108.275 134.953 109.186 136.596C109.301 136.801 109.404 137.019 109.494 137.263C111.468 142.205 107.724 147.557 102.402 147.557H76.8438V206.396C76.8438 220.271 88.0904 231.528 101.953 231.528H160.738V205.792C160.738 200.517 155.416 196.795 150.53 198.784C150.299 198.874 150.081 198.977 149.876 199.092C148.132 200.068 146.106 200.581 143.939 200.466C138.373 200.17 133.872 195.639 133.603 190.069C133.308 183.779 138.309 178.581 144.529 178.581Z" fill="#F47458"/>
<path d="M200.441 164.256C200.531 162.293 201.133 160.483 202.108 158.93C202.236 158.737 202.352 158.519 202.454 158.288C204.673 153.526 201.236 148.045 195.991 147.801L170.215 146.595L169.009 172.394C168.766 177.644 163.29 181.084 158.532 178.863C158.301 178.761 158.096 178.645 157.891 178.517C156.339 177.541 154.531 176.938 152.569 176.848C146.362 176.553 141.117 181.507 141.117 187.797C141.117 193.483 145.567 198.284 151.235 198.707C153.249 198.861 155.172 198.45 156.865 197.629C157.07 197.526 157.301 197.436 157.545 197.347C162.559 195.601 167.74 199.606 167.483 204.907L166.291 230.475L225.012 233.222C238.861 233.864 250.621 223.159 251.262 209.296L254.007 150.522L228.32 149.316C223.05 149.072 219.1 154.219 220.857 159.199C220.946 159.443 221.036 159.661 221.139 159.867C222.036 161.651 222.447 163.704 222.242 165.861C221.69 171.419 216.958 175.706 211.38 175.706C205.096 175.719 200.146 170.469 200.441 164.256Z" fill="#E7BA29"/>
<path d="M128.627 123.645C128.73 125.608 128.307 127.47 127.473 129.1C127.37 129.305 127.281 129.536 127.191 129.767C125.447 134.722 129.397 139.843 134.642 139.574L160.405 138.277L159.11 112.49C158.84 107.241 163.97 103.287 168.907 105.033C169.138 105.123 169.369 105.213 169.574 105.315C171.203 106.137 173.075 106.56 175.024 106.471C181.231 106.163 185.963 100.733 185.36 94.4693C184.809 88.8088 179.923 84.4704 174.242 84.5988C172.216 84.6501 170.344 85.2277 168.753 86.2161C168.548 86.3444 168.343 86.4471 168.112 86.5626C163.29 88.7832 157.75 85.3047 157.481 79.9908L156.199 54.4223L97.4906 57.3745C83.6407 58.0676 72.984 69.8764 73.6765 83.7388L76.626 142.5L102.312 141.204C107.583 140.934 111.02 135.428 108.788 130.64C108.686 130.409 108.57 130.204 108.442 129.998C107.378 128.304 106.762 126.302 106.775 124.132C106.788 118.549 111.084 113.825 116.637 113.286C122.895 112.683 128.319 117.432 128.627 123.645Z" fill="#50BFA5"/>
<path d="M181.373 109.41C179.411 109.41 177.577 108.897 175.987 107.985C175.781 107.87 175.563 107.767 175.332 107.677C170.485 105.688 165.176 109.371 165.176 114.621V140.446H190.978C196.223 140.446 199.916 145.76 197.915 150.612C197.826 150.843 197.71 151.061 197.595 151.267C196.697 152.858 196.171 154.707 196.171 156.658C196.171 162.883 201.352 167.889 207.636 167.594C213.317 167.324 217.895 162.665 218.049 156.966C218.1 154.938 217.613 153.038 216.703 151.395C216.587 151.19 216.485 150.972 216.395 150.728C214.42 145.786 218.165 140.434 223.486 140.434H249.057V81.6081C249.057 67.7328 237.811 56.476 223.948 56.476H165.163V82.2113C165.163 87.4868 170.485 91.2091 175.371 89.2196C175.602 89.1297 175.82 89.027 176.025 88.9115C177.769 87.936 179.795 87.4226 181.962 87.5381C187.528 87.8333 192.029 92.3643 192.299 97.9349C192.594 104.224 187.592 109.41 181.373 109.41Z" fill="#184655"/>
<path d="M60.0439 223.351C60.0439 223.351 59.6592 226.06 58.9795 226.933C58.7487 227.228 58.3383 227.6 58.069 228.126C57.6459 228.948 57.8767 230.18 58.1973 230.86C58.3512 231.207 58.1845 231.207 58.5435 231.322C59.6207 231.656 60.7621 231.091 61.2109 230.064C61.4674 229.487 61.6854 228.717 61.7367 227.754C61.8521 225.29 62.6087 224.045 62.6087 224.045L60.0439 223.351Z" fill="#F7A491"/>
<path d="M71.7776 224.584C71.7776 224.584 72.0213 227.639 71.8289 228.64C71.7263 229.166 71.1364 230.27 71.4057 230.77C71.675 231.271 71.9828 231.399 71.9828 231.399L78.9077 231.515C79.2796 231.515 79.036 231.284 78.7282 231.053C78.2281 230.681 77.8305 230.437 76.2403 229.667C76.1378 229.615 75.753 229.371 75.6248 229.294C75.2785 229.089 74.9323 228.755 74.6373 228.421C74.1372 227.87 74.0987 225.174 74.0987 225.174L71.7776 224.584Z" fill="#F7A491"/>
<path d="M77.1778 183.959C77.1778 183.959 78.0498 188.926 77.4728 192.174C76.8957 195.421 74.1514 225.585 74.1514 225.585L71.0993 225.752C71.0993 225.752 70.4581 213.147 70.5735 211.401C70.6889 209.643 71.5994 206.717 71.5994 206.717L71.2916 196.551L75.1388 183.189L77.1778 183.959Z" fill="#355389"/>
<path d="M68.2136 182.919C68.2136 182.919 65.8155 186.552 65.2384 189.555C64.6614 192.559 65.6616 201.788 64.5588 205.728C63.9689 207.859 61.699 211.145 61.3656 213.904C61.0194 216.664 59.6729 223.865 59.6729 223.865L62.725 224.468L69.8166 206.46L75.3822 190.184L76.8057 181.803L68.2136 182.919Z" fill="#466EB6"/>
<path d="M70.1627 162.267C70.1627 162.267 66.9823 162.062 65.7256 163.435C64.4688 164.808 68.5212 175.706 68.752 177.451C68.9829 179.197 67.585 183.856 67.585 183.856C67.585 183.856 75.0614 185.371 77.203 183.946C77.203 183.946 77.4338 171.342 77.203 170.097C76.9722 168.839 75.0614 163.756 74.6126 163.255C74.1253 162.767 70.1627 162.267 70.1627 162.267Z" fill="#E7BA29"/>
<path d="M71.2142 157.993C71.2142 157.993 71.2014 158.082 71.1629 158.249C71.0219 159.019 70.4704 161.561 70.1114 162.267C69.6625 163.114 71.6374 165.809 73.5354 165.476C74.0996 165.373 73.0609 162.999 73.1122 162.742C73.2019 162.254 73.343 161.599 73.4712 160.919C73.5482 160.534 73.6251 160.149 73.6892 159.79C73.8944 158.763 74.0611 157.916 74.0611 157.916L71.2142 157.993Z" fill="#F7A491"/>
<path d="M71.1756 158.249C71.2012 158.095 71.2269 157.993 71.2269 157.993L74.0738 157.916C74.0738 157.916 73.9071 158.763 73.7019 159.79C73.625 160.149 73.5608 160.534 73.4839 160.919C73.0479 160.855 72.5862 160.637 72.1246 160.239C71.6244 159.802 71.291 159.263 71.0986 158.699C71.1243 158.532 71.1499 158.378 71.1756 158.249Z" fill="#F47458"/>
<path d="M73.1381 151.511C73.1381 151.511 71.7916 151.357 70.9581 152.448C70.1117 153.539 69.214 156.914 71.3043 158.75C73.3946 160.585 75.4593 158.506 75.767 156.311C76.062 154.103 76.1774 151.434 73.1381 151.511Z" fill="#F7A491"/>
<path d="M76.37 156.273C76.1264 156.76 75.7032 157.03 75.4339 156.876C75.1646 156.722 75.1518 156.208 75.4082 155.721C75.6519 155.233 76.0751 154.963 76.3444 155.117C76.6009 155.259 76.6137 155.785 76.37 156.273Z" fill="#F7A491"/>
<path d="M73.2788 151.151C73.2788 151.151 71.4835 154.36 70.2011 154.514C68.9187 154.668 68.752 156.363 68.752 156.363C68.752 156.363 69.2136 152.435 70.4832 151.678C71.7528 150.92 73.2788 151.151 73.2788 151.151Z" fill="#13375B"/>
<path d="M61.4286 229.525C59.7615 229.833 58.6587 228.858 58.0816 228.126C57.6584 228.948 57.4532 230.193 57.761 230.873C58.0303 231.476 58.8382 231.451 59.4666 231.476C60.1334 231.502 60.6464 231.13 60.9798 230.552C61.1337 230.27 61.3004 229.936 61.4286 229.525Z" fill="#F47458"/>
<path d="M75.6134 229.282C73.7795 229.756 72.433 229.436 71.6764 229.127C71.484 229.679 71.2276 230.373 71.3558 230.783C71.5225 231.271 71.7662 231.387 71.9714 231.387C73.6385 231.425 78.1012 231.489 79.3708 231.502C79.5503 231.502 79.6529 231.297 79.5375 231.156C79.2169 230.796 75.7416 229.371 75.6134 229.282Z" fill="#F47458"/>
<path d="M70.5474 155.31C70.65 155.875 70.4448 156.401 70.0729 156.478C69.7138 156.555 69.3291 156.157 69.2265 155.58C69.1239 155.015 69.3291 154.489 69.701 154.412C70.0601 154.334 70.4448 154.745 70.5474 155.31Z" fill="#F7A491"/>
<path d="M72.6378 157.287L74.2536 157.364C74.2536 157.364 74.1895 157.98 73.4713 157.967C72.6121 157.941 72.6378 157.287 72.6378 157.287Z" fill="white"/>
<path d="M210.625 28.1478C210.83 28.1607 211.381 28.3404 212.189 29.8678C213.215 31.8188 214.728 37.7103 214.728 37.7103L210.227 39.3918L209.65 38.1596L208.701 28.6869C208.688 28.6869 210.561 28.135 210.625 28.1478Z" fill="#DD513A"/>
<path d="M204.674 27.2878C205.956 27.2878 209.136 27.6601 210.624 28.135C210.624 28.135 211.714 37.4665 209.649 44.5645C209.188 46.1562 210.034 51.1492 210.034 51.1492L196.71 50.9695C196.71 50.9695 198.287 38.8912 197.697 36.9402C197.107 34.9892 197.095 28.1863 197.095 28.1863C197.095 28.1863 197.184 28.1735 200.095 27.6729C201.416 27.4547 203.301 27.2878 204.674 27.2878Z" fill="#F47458"/>
<path d="M203.122 68.4772C203.122 68.4772 203.417 71.8787 203.956 72.8285C204.495 73.7655 203.93 75.37 203.905 75.601C203.879 75.8192 202.763 76.1401 200.994 75.9476C199.224 75.755 199.25 75.3443 199.391 74.6897C199.532 74.0351 200.481 73.1751 200.532 72.5461C200.583 71.9172 199.993 69.6581 199.993 69.6581L203.122 68.4772Z" fill="#F7A491"/>
<path d="M208.521 48.3382C208.521 48.3382 217.729 47.8248 219.78 49.0698C221.832 50.3149 218.318 56.4246 218.318 56.4246C218.318 56.4246 211.919 56.1294 199.377 56.8482C196.402 57.0151 196.146 49.0955 196.71 48.4409C197.262 47.7991 208.521 48.3382 208.521 48.3382Z" fill="#E0973F"/>
<path d="M200.762 76.2043C198.941 76.0117 199.172 75.1132 199.313 74.433C199.403 74.0094 199.929 73.5088 200.236 73.0339C200.403 73.1622 200.66 73.3933 201.455 73.6243C202.275 73.8682 203.404 73.3804 204.122 73.0852C204.379 74.0351 204.391 75.2544 204.366 75.4341C204.34 75.6652 202.596 76.4096 200.762 76.2043Z" fill="#DD513A"/>
<path d="M201.776 54.9357C202.148 57.721 203.969 71.5835 203.969 71.5835L199.75 72.1097C199.75 72.1097 194.556 54.0244 194.826 51.2519C195.095 48.4794 197.031 48.2484 197.031 48.2484C197.031 48.2484 200.802 47.5552 201.776 54.9357Z" fill="#E7BA29"/>
<path d="M196.928 29.2389C198.172 28.7768 198.788 40.0079 198.955 44.6416C201.16 44.8598 205.007 44.6416 205.969 44.5774C206.418 44.5389 207.457 44.1667 207.906 44.1025C208.367 44.0383 208.778 44.0126 209.009 44.0511C209.085 44.064 211.394 45.001 211.586 45.2192C211.83 45.4759 212.484 46.1177 212.381 46.4C212.266 46.6824 211.112 45.6171 211.112 45.6171L210.547 45.2962C211.253 45.9893 212.599 46.8878 212.407 47.2215C212.215 47.5424 211.009 46.6182 210.137 46.0021C210.881 46.6696 211.804 47.8761 211.586 48.0558C211.394 48.2227 210.355 46.8365 209.227 46.4385C208.816 46.2845 208.393 46.6953 208.072 46.7466C207.829 46.7851 207.457 46.8621 207.226 46.7979L206.021 46.4514C205.61 46.4899 205.597 46.7338 205.187 46.8236C204.7 46.9263 203.905 47.029 203.289 47.183C199.737 48.0558 198.557 48.4537 197.467 48.4537C194.171 48.4409 193.979 30.3427 196.928 29.2389Z" fill="#F7A491"/>
<path d="M194.556 39.7897C194.325 35.0534 194.351 29.2132 197.005 28.212C198.057 27.8141 199.903 30.1887 199.57 39.8796C198.159 40.0079 196.082 40.0978 194.556 39.7897Z" fill="#DD513A"/>
<path d="M215.472 71.3909C215.472 71.3909 215.1 72.5718 215.767 73.3548C216.421 74.1377 219.165 74.9079 219.524 75.3315C219.883 75.755 219.857 76.1144 219.857 76.1144L212.163 75.8962L212.253 73.573L212.612 71.9044L215.472 71.3909Z" fill="#F7A491"/>
<path d="M216.241 73.7527C216.241 73.7527 214.266 74.5485 213.304 74.0736C212.355 73.5986 212.381 73.4703 212.098 73.65C211.816 73.8297 211.727 76.0117 211.727 76.0117L220.383 76.2684C220.985 76.2556 221.293 75.8064 220.806 75.4341C220.473 75.1774 220.088 74.9977 219.857 74.8694C219.177 74.4715 216.241 73.7527 216.241 73.7527Z" fill="#DD513A"/>
<path d="M215.177 50.5203C215.767 49.2624 217.126 47.6323 219.499 48.6206C221.769 49.5576 222.384 51.8552 221.666 54.2169C220.948 56.5787 216.229 70.4411 216.075 72.3408L212.305 72.3664C212.305 72.3664 212.984 61.392 213.151 58.7351C213.318 56.1936 214.151 52.6895 215.177 50.5203Z" fill="#E7BA29"/>
<path d="M221.294 37.7617H208.701C208.367 37.7617 208.072 37.9671 207.944 38.2751L204.071 47.7606H197.133C196.941 47.7606 196.787 47.9146 196.787 48.1072C196.787 48.2997 196.941 48.4537 197.133 48.4537H216.882C217.421 48.4537 217.921 48.1328 218.139 47.6323L222.037 38.9041C222.281 38.3778 221.884 37.7617 221.294 37.7617Z" fill="black"/>
<path d="M214.51 43.281C214.421 43.7046 214.061 43.9869 213.69 43.9228C213.318 43.8458 213.087 43.4479 213.177 43.0114C213.266 42.5879 213.638 42.3055 214.01 42.3697C214.369 42.4595 214.6 42.8574 214.51 43.281Z" fill="white"/>
<path d="M207.662 15.8898C207.277 15.7615 206.905 15.6203 206.546 15.4406C206.136 15.2481 205.61 15.017 205.277 14.9657C204.572 14.863 203.366 14.9272 202.699 15.6588C201.866 16.5573 200.391 15.8257 200.686 20.5363C201.019 25.8759 203.994 25.2983 204.059 25.2085C204.123 25.1186 206.7 21.7942 206.7 21.7942C206.7 21.7942 207.598 23.7709 207.598 23.6939C207.624 23.6169 212.215 17.4301 207.662 15.8898Z" fill="#0E2E35"/>
<path d="M205.405 25.5936L205.661 27.5061C205.661 27.5061 206.238 30.2529 205.494 30.792C204.751 31.3182 202.353 27.429 202.353 27.429L202.609 22.59L205.405 25.5936Z" fill="#F7A491"/>
<path d="M202.532 24.156C203.148 25.8118 204.597 26.8258 205.623 27.2108L205.405 25.5936L202.609 22.59L202.532 24.156Z" fill="#F47458"/>
<path d="M205.264 17.3274C206.829 17.0707 208.226 18.3286 208.188 19.9074C208.175 20.5877 208.111 21.4348 207.97 22.359C207.624 24.5667 206.123 26.5049 205.136 26.3252C204.148 26.1455 201.648 24.2458 202.084 21.1139C202.353 19.1758 203.623 17.597 205.264 17.3274Z" fill="#F7A491"/>
<path d="M202.777 21.4862C202.687 21.9739 202.302 22.3076 201.905 22.2435C201.507 22.1793 201.263 21.73 201.34 21.2423C201.43 20.7545 201.815 20.4208 202.212 20.485C202.61 20.5492 202.854 20.9984 202.777 21.4862Z" fill="#F7A491"/>
<path d="M202.212 20.485C202.212 20.485 203.417 20.7802 203.853 20.0101C204.302 19.2399 205.892 17.5713 207.919 18.2644C209.945 18.9575 206.136 16.583 205.969 16.583C205.803 16.583 203.866 16.5701 203.866 16.5701C203.866 16.5701 202.366 17.8023 202.314 17.9435C202.263 18.0847 201.827 19.5608 201.827 19.5608L202.212 20.485Z" fill="#0E2E35"/>
<path d="M204.405 23.7067L206.585 24.1303C206.585 24.1303 206.38 24.9518 205.405 24.7978C204.238 24.6052 204.405 23.7067 204.405 23.7067Z" fill="white"/>
<path d="M167.445 176.001C167.535 176.283 167.574 176.386 167.689 176.579C168.369 177.824 169.959 179.608 169.959 179.608L171.19 176.835C171.19 176.835 170.985 175.962 170.638 174.717C169.446 175.025 168.317 175.205 167.445 176.001Z" fill="#F8A492"/>
<path d="M174.499 173.588C174.499 173.588 167.638 176.54 167.42 176.489C167.279 176.45 164.612 171.983 164.573 167.773C164.56 165.835 166.574 163.486 168.831 163.948C169.959 164.179 169.947 164.5 171.626 166.939C173.306 169.378 174.499 173.588 174.499 173.588Z" fill="#13375B"/>
<path d="M180.346 226.612C180.346 226.612 180.18 229.307 180.18 229.32C180.116 229.667 179.885 230.514 179.885 230.822C179.885 231.99 185.438 229.833 184.194 229.307C184.078 229.256 183.488 228.909 183.45 228.511C183.399 227.895 183.245 226.663 183.245 226.663L180.346 226.612Z" fill="#F7A491"/>
<path d="M184.181 229.281C184.181 229.281 182.873 229.641 182.206 229.731C181.539 229.821 180.654 229.063 180.193 229.269C179.68 229.487 179.692 231.502 179.692 231.502C179.692 231.502 186.681 232.08 188.644 231.476C189.426 231.258 186.848 230.116 184.181 229.281Z" fill="#DD513A"/>
<path d="M168.997 226.612C168.997 226.612 168.83 229.307 168.83 229.32C168.766 229.667 168.535 230.514 168.535 230.822C168.535 231.99 174.088 229.833 172.844 229.307C172.729 229.256 171.972 228.64 171.934 228.242C171.882 227.626 171.908 226.65 171.908 226.65L168.997 226.612Z" fill="#F7A491"/>
<path d="M172.832 229.281C172.832 229.281 171.524 229.641 170.857 229.731C170.19 229.821 169.305 229.063 168.843 229.269C168.33 229.487 168.305 231.502 168.305 231.502C168.305 231.502 175.319 232.169 177.294 231.476C178.064 231.232 175.499 230.116 172.832 229.281Z" fill="#DD513A"/>
<path d="M170.703 177.49L175.589 170.636C175.615 170.571 175.653 170.456 175.717 170.263C175.961 169.583 176.474 168.171 176.923 166.759V166.746C177.064 166.259 177.359 165.399 177.641 164.564C177.962 163.64 178.359 162.498 178.372 162.305C178.359 162.267 178.333 162.215 178.308 162.138C178.128 161.676 177.885 160.56 177.795 160.085C177.743 159.777 177.692 159.032 178.051 159.032C178.628 159.032 178.346 159.777 178.616 160.239C178.718 159.931 178.91 159.315 179.013 158.686L179.103 157.235C179.116 157.12 179 156.324 179.411 156.324H179.423C179.782 156.35 179.782 157.21 179.924 158.647C179.975 158.48 180.013 158.275 180.052 158.095C180.052 157.993 180.116 157.556 180.18 157.338C180.103 156.94 180.154 156.298 180.578 156.362C180.796 156.388 180.77 157.274 180.77 157.274C180.77 157.389 180.757 158.326 180.757 158.519C180.796 158.211 180.975 156.863 181.309 156.863C181.591 156.863 181.603 157.222 181.603 157.505C181.603 157.672 181.424 159.122 181.411 159.302C181.539 159.084 181.693 157.8 181.834 157.8C182.373 157.8 182.181 159.623 181.975 160.098C181.963 160.149 181.937 160.239 181.911 160.354C181.847 160.675 181.732 161.227 181.45 161.715C181.103 162.305 180.642 163.23 180.565 163.371C180.513 163.666 180.347 164.706 180.142 166.015C180.052 166.58 179.962 167.196 179.859 167.825C179.847 167.966 179.744 168.402 179.346 170.045C178.821 172.304 178.757 172.394 178.744 172.433C178.513 172.843 173.242 180.006 173.024 180.301L172.896 180.481L170.703 177.49Z" fill="#F7A491"/>
<path d="M179.783 161.51C179.783 161.51 179.385 160.496 178.68 160.496C178.68 160.496 179.077 160.354 179.411 160.624C179.744 160.893 179.783 161.51 179.783 161.51Z" fill="#F47458"/>
<path d="M169.51 159.559L168.882 163.538C168.882 163.538 171.28 165.463 172.678 165.052C173.845 164.706 173.05 163.178 173.05 163.178C173.05 163.178 172.421 161.047 172.614 159.944C172.806 158.827 169.51 159.559 169.51 159.559Z" fill="#F7A491"/>
<path d="M169.971 160.752C170.574 161.035 171.754 161.42 172.69 161.522C172.6 160.97 172.549 160.38 172.626 159.944C172.716 159.43 172.062 159.302 171.331 159.328C170.382 159.405 169.523 159.559 169.523 159.559L169.407 160.329C169.574 160.508 169.766 160.662 169.971 160.752Z" fill="#FE875E"/>
<path d="M166.496 154.963C166.394 154.963 167.445 159.417 169.061 160.175C170.677 160.932 173.1 160.547 173.549 159.34C174.049 158.018 172.228 153.474 169.946 152.897C167.663 152.332 166.496 154.963 166.496 154.963Z" fill="#F7A491"/>
<path d="M168.369 150.882C167.074 151.626 166.484 152.73 166.278 153.192C165.676 153.474 164.932 154.103 164.586 155.785C164.15 157.851 165.689 159.443 167.33 159.918C168.959 160.393 169.215 161.484 169.215 161.484L169.395 160.316C169.395 160.316 169.036 159.302 168.484 158.788C167.933 158.275 168.741 157.543 168.818 156.94C168.869 156.478 168.535 155.58 168.6 154.809C168.6 154.809 169.51 153.436 170.408 153.089C171.934 152.512 170.023 149.919 168.369 150.882Z" fill="#13375B"/>
<path d="M169.048 157.71C169.253 158.224 169.177 158.737 168.856 158.853C168.535 158.968 168.112 158.647 167.894 158.134C167.689 157.62 167.766 157.107 168.086 156.991C168.407 156.876 168.843 157.197 169.048 157.71Z" fill="#F7A491"/>
<path d="M175.089 177.605L184.514 176.065C184.514 176.065 183.437 173.357 183.065 173.357C182.693 173.357 175.935 176.309 175.935 176.309L175.397 177.387L175.089 177.605Z" fill="#F8A492"/>
<path d="M170.254 184.075C170.254 184.075 169.318 188.618 169.703 192.071C170.088 195.524 170.113 207.769 170.113 207.769L168.651 227.369L172.127 227.446C172.127 227.446 176.243 207.846 176.166 208.359C176.089 208.873 177.551 194.561 177.551 194.561L172.652 183.638L170.254 184.075Z" fill="#184655"/>
<path d="M171.177 183.856C171.177 183.856 170.562 187.951 171.331 189.748C172.101 191.545 177.897 209.168 177.974 210.606C178.051 212.043 179.988 227.934 179.988 227.934L184.027 227.818L184.899 210.156L183.078 187.964L181.308 182.355L171.177 183.856Z" fill="#13375B"/>
<path d="M168.882 163.538C168.882 163.538 169.882 164.192 170.805 164.115C171.729 164.038 173.05 163.178 173.05 163.178L172.87 162.562C172.87 162.562 170.472 162.216 170.408 162.254C170.344 162.293 168.882 163.538 168.882 163.538Z" fill="#F7A491"/>
<path d="M179.487 173.228C179.487 173.228 183.052 176.591 184.655 176.027C186.258 175.449 186.925 173.485 183.001 170.61C179.5 168.03 179.487 173.228 179.487 173.228Z" fill="#F8A492"/>
<path d="M181.898 177.387C181.372 174.499 177.525 165.527 177.23 163.871C177.076 163.063 175.011 163.05 173.036 163.153C170.959 163.268 168.882 163.525 168.882 163.525C168.882 163.525 167.035 163.833 166.227 164.59C165.419 165.347 165.201 167.452 166.368 171.444C167.291 174.602 168.433 176.335 168.997 178.619C169.112 179.39 169.215 180.147 169.343 181.033C169.548 184.472 169.343 189.003 169.343 189.003C169.343 189.003 179.384 191.083 183.142 187.925C183.129 187.951 182.449 180.339 181.898 177.387Z" fill="#355389"/>
<path d="M184.463 171.188C184.463 171.188 180.526 174.448 180.295 174.448C180.141 174.448 174.678 170.417 173.408 167.106C172.716 165.27 174.178 163.23 175.845 163.23C176.999 163.23 177.525 163.538 179.82 165.476C182.116 167.414 184.463 171.188 184.463 171.188Z" fill="#466EB6"/>
<path d="M115.175 25.9273C115.816 24.3742 116.483 22.8211 118.15 22.0253C119.509 21.3835 120.92 21.6274 122.126 22.5387C125.537 25.1058 122.562 27.9425 126.447 32.8072C127.653 34.3218 129.115 35.5412 129.833 37.3125C130.846 39.7897 129.64 40.9834 127.704 42.1772C118.458 47.8633 113.61 36.1829 113.79 33.5131C113.931 31.5365 114.765 26.9285 115.175 25.9273Z" fill="#13375B"/>
<path d="M105.583 56.1936C105.967 56.1294 106.916 55.4491 107.25 55.3978C107.506 55.3465 108.07 55.2694 108.301 55.2309C108.596 54.1399 110.084 48.1842 110.25 46.4386C110.43 44.5517 111.764 36.3626 111.764 36.3626L115.226 36.9916C115.226 36.9916 113.79 43.2938 113.392 46.3359C113.046 48.9543 110.174 54.8587 109.814 55.4748C109.814 55.4877 109.814 55.5005 109.814 55.5262C109.763 56.4503 109.314 56.1423 109.314 56.1423L108.596 56.322C108.596 56.322 106.031 56.5658 105.865 56.63C105.698 56.6942 105.198 56.2578 105.583 56.1936Z" fill="#F7A491"/>
<path d="M114.789 31.575C112.34 32.4093 110.955 39.0581 110.955 39.0581C110.955 39.0581 114.789 40.1363 115.777 39.5715C115.777 39.5715 116.893 34.617 117.29 34.7967L114.789 31.575Z" fill="#6A97CE"/>
<path d="M95.8616 67.7071C95.1178 69.6838 94.7203 71.5835 94.6947 71.8145C94.6818 71.93 94.8357 72.4563 94.8229 72.5718C93.3225 74.6255 91.1552 75.0748 89.3086 75.2031C90.2576 74.2789 91.6426 73.4061 91.7067 73.1109C91.8093 72.6488 92.3863 70.5823 92.6685 67.7071C93.8098 68.2462 94.5792 67.8226 95.8616 67.7071Z" fill="#F7A491"/>
<path d="M117.163 45.5914L120.471 54.91C120.471 54.91 115.162 55.9112 113.175 56.2706C111.187 56.63 100.094 57.1178 99.812 57.3231C99.6068 57.4643 97.3113 64.8961 96.2854 68.9907C95.1184 69.2474 93.1307 68.9393 92.0791 68.58C92.6562 62.7269 94.7208 53.4468 95.3749 52.4328C96.4393 50.7898 117.163 45.5914 117.163 45.5914Z" fill="#256653"/>
<path d="M104.236 71.7888C103.864 73.8682 103.851 75.8192 103.851 76.0503C103.851 76.1658 104.108 76.6664 104.121 76.7819C103.031 79.0795 100.992 79.9266 99.1963 80.4015C99.9529 79.3233 101.146 78.2066 101.158 77.8986C101.171 77.4237 101.351 75.2801 101.081 72.4178C102.325 72.713 103.005 72.1482 104.236 71.7888Z" fill="#F7A491"/>
<path d="M121.023 46.0792L122.305 48.2741C124.254 51.6113 122.767 55.9112 119.163 57.3103C119.138 57.3232 119.125 57.3232 119.112 57.336C117.227 58.0676 106.416 60.6219 106.173 60.8658C105.993 61.0455 105.134 68.7725 104.89 72.9826C103.8 73.4575 101.787 73.5217 100.684 73.3676C100.145 67.5018 100.44 58.0034 100.902 56.8867C101.633 55.0641 121.023 46.0792 121.023 46.0792Z" fill="#327F6B"/>
<path d="M103.697 76.1144C103.98 75.7936 105.044 77.552 105.3 77.9243C105.595 78.3478 105.518 78.6559 105.48 78.7329C105.39 78.9126 99.8118 82.1857 98.4524 82.4167C98.3242 82.4424 98.1062 82.3525 98.0421 82.314C97.5163 81.8391 99.9528 78.3735 101.056 77.9114C101.761 77.6034 102.402 77.5392 103.697 76.1144Z" fill="#13375B"/>
<path d="M94.5158 71.8787C94.8621 71.622 95.5674 73.5345 95.7598 73.9581C95.9778 74.433 95.8367 74.7282 95.7854 74.7795C95.6572 74.9336 89.5658 77.1156 88.1936 77.09C88.0654 77.09 87.8602 76.9616 87.8089 76.9103C87.3729 76.3455 90.425 73.3933 91.592 73.1494C92.3358 72.9826 92.977 73.0339 94.5158 71.8787Z" fill="#13375B"/>
<path d="M117.111 31.5493C117.047 31.5493 116.957 31.5236 116.868 31.4979C116.419 31.4209 115.419 31.2926 114.649 31.6263C113.713 32.0242 112.251 35.7337 112.341 39.5459C112.379 40.1235 112.405 40.6497 112.443 41.0091C112.687 43.8843 113.508 49.2881 113.546 49.3137C114.662 50.0325 121.433 47.2344 121.895 46.6183C122.356 46.0022 122.639 38.5318 122.857 38.1596L123.305 31.652C122.523 31.4209 118.317 31.5493 117.111 31.5493Z" fill="#9BC1F9"/>
<path d="M119.855 29.1619C119.855 29.1619 119.419 31.4209 119.509 32.3066C119.598 33.1922 119.175 36.0674 117.29 36.0674C115.405 36.0802 116.931 32.4221 117.11 31.5493C117.29 30.6765 117.328 27.981 117.328 27.981L119.855 29.1619Z" fill="#F7A491"/>
<path d="M117.291 29.3287C117.317 28.5842 117.329 27.9681 117.329 27.9681L119.856 29.149C119.856 29.149 119.766 29.6111 119.676 30.2015C118.573 30.4326 117.766 30.0218 117.291 29.3287Z" fill="#F47458"/>
<path d="M120.78 22.9366C120.78 22.9366 121.754 23.4757 122.113 24.6437C122.473 25.8118 122.062 28.8281 119.549 29.5598C117.035 30.2914 115.945 27.8911 116.471 26.03C116.984 24.156 118.1 21.7942 120.78 22.9366Z" fill="#F7A491"/>
<path d="M116.149 25.2984C116.2 25.7989 116.469 26.184 116.764 26.1583C117.059 26.1327 117.252 25.6963 117.2 25.1957C117.149 24.6951 116.88 24.31 116.585 24.3357C116.29 24.3742 116.098 24.7978 116.149 25.2984Z" fill="#F7A491"/>
<path d="M120.483 22.7826C120.483 22.7826 120.945 26.1455 122.022 26.7616C123.112 27.3649 122.651 28.8666 122.651 28.8666C122.651 28.8666 123.638 25.401 122.779 24.2843C121.92 23.1548 120.483 22.7826 120.483 22.7826Z" fill="#13375B"/>
<path d="M121.381 27.2365C121.086 27.6729 121.086 28.1992 121.381 28.3917C121.676 28.5971 122.151 28.3917 122.459 27.9553C122.754 27.5189 122.754 26.9926 122.459 26.8001C122.151 26.6076 121.676 26.8001 121.381 27.2365Z" fill="#F7A491"/>
<path d="M117.715 27.4291L119.484 27.8783C119.484 27.8783 119.266 28.5458 118.484 28.3789C117.535 28.1607 117.715 27.4291 117.715 27.4291Z" fill="white"/>
<path d="M126.511 55.9241C126.601 55.9241 134.141 55.539 134.141 55.539C134.141 55.539 131.012 57.7852 130.948 57.7852C130.884 57.7852 128.46 56.8225 128.345 56.8225C128.229 56.8225 126.511 55.9241 126.511 55.9241Z" fill="#50BFA5"/>
<path d="M279.296 226.714C279.296 226.714 279.45 229.359 279.45 229.371C279.501 229.705 279.719 230.539 279.719 230.847C279.719 232.003 274.628 229.872 275.769 229.359C275.872 229.307 276.411 228.961 276.449 228.576C276.5 227.972 276.628 226.753 276.628 226.753L279.296 226.714Z" fill="#F7A491"/>
<path d="M275.718 229.371C275.718 229.371 276.911 229.718 277.526 229.808C278.142 229.898 278.95 229.153 279.373 229.358C279.847 229.577 279.835 231.553 279.835 231.553C279.835 231.553 273.423 232.118 271.614 231.528C270.909 231.309 273.282 230.193 275.718 229.371Z" fill="#E7BA29"/>
<path d="M287.785 226.586C287.785 226.586 287.939 229.23 287.939 229.243C287.99 229.577 288.208 230.411 288.208 230.719C288.208 231.874 283.117 229.744 284.259 229.23C284.361 229.179 285.066 228.576 285.092 228.19C285.143 227.587 285.118 226.625 285.118 226.625L287.785 226.586Z" fill="#F7A491"/>
<path d="M284.259 229.217C284.259 229.217 285.451 229.564 286.067 229.654C286.683 229.744 287.49 228.999 287.914 229.204C288.388 229.423 288.414 231.399 288.414 231.399C288.414 231.399 282.053 231.656 280.168 231.374C279.424 231.271 281.822 230.026 284.259 229.217Z" fill="#E7BA29"/>
<path d="M286.272 184.498C286.272 184.498 287.131 188.965 286.785 192.353C286.439 195.742 286.4 207.782 286.4 207.782L288.016 227.035L284.554 227.112C284.554 227.112 280.784 207.859 280.848 208.359C280.912 208.86 279.578 194.805 279.578 194.805L284.079 184.075L286.272 184.498Z" fill="#355389"/>
<path d="M285.067 181.61C285.067 181.61 288.978 185.73 287.517 190.236C286.927 192.045 281.489 209.322 281.412 210.734C281.348 212.146 279.566 227.754 279.566 227.754L275.86 227.639L275.064 210.285L276.129 186.911L278.373 182.971L285.067 181.61Z" fill="#466EB6"/>
<path d="M261.33 168.197C262.612 166.772 265.395 164.731 265.395 164.731C265.395 164.731 267.049 163.307 267.729 163.076C268.729 162.729 270.435 161.818 272.897 165.553C274.666 168.235 285.81 182.098 287.631 182.573L275.692 188.297C275.359 185.563 269.46 180.404 268.614 179.441C266.716 177.284 260.111 169.545 261.33 168.197Z" fill="#F47458"/>
<path d="M261.881 162.382L265.6 164.564C265.6 164.564 265.703 167.748 264.485 168.569C263.459 169.262 262.689 167.594 262.689 167.594C262.689 167.594 261.304 165.668 260.253 165.078C259.214 164.487 261.881 162.382 261.881 162.382Z" fill="#F7A491"/>
<path d="M262.509 163.781C262.368 164.449 262.048 165.399 261.547 166.195C261.137 165.745 260.675 165.309 260.265 165.078C259.778 164.808 260.086 164.205 260.56 163.64C261.227 162.947 261.881 162.37 261.881 162.37L262.599 162.793C262.65 163.076 262.548 163.563 262.509 163.781Z" fill="#F47458"/>
<path d="M259.945 156.927C260.009 156.85 263.061 160.662 262.689 162.447C262.317 164.231 260.458 165.861 259.176 165.412C257.752 164.911 255.11 160.431 256.059 158.249C257.008 156.067 259.945 156.927 259.945 156.927Z" fill="#F7A491"/>
<path d="M256.597 155.721C257.931 154.976 260.111 154.771 261.727 155.618C263.728 156.671 264.176 159.302 263.561 160.906C262.932 162.511 263.651 163.422 263.651 163.422L262.586 162.806C262.586 162.806 261.971 161.843 261.881 161.073C261.804 160.303 260.675 160.444 260.124 160.085C259.701 159.815 259.162 158.942 258.483 158.493C258.483 158.493 256.764 158.288 255.918 158.763C254.481 159.559 254.687 156.786 256.597 155.721Z" fill="#13375B"/>
<path d="M260.997 160.727C260.984 161.304 261.253 161.766 261.599 161.766C261.946 161.766 262.228 161.317 262.24 160.739C262.253 160.162 261.984 159.7 261.638 159.7C261.291 159.7 261.009 160.149 260.997 160.727Z" fill="#F7A491"/>
<path d="M257.867 163.756L259.483 162.549C259.483 162.549 259.906 163.204 259.214 163.756C258.367 164.423 257.867 163.756 257.867 163.756Z" fill="white"/>
<path d="M253.789 187.861C254.2 187.271 254.366 186.411 254.931 185.756C255.123 185.538 255.418 185.294 255.764 185.037C258.457 183.458 265.485 179.39 265.767 179.069C266.087 178.696 270.884 170.713 270.884 170.713L266.575 169.737L262.369 177.182C262.022 177.464 255.328 182.406 255.328 182.406C255.328 182.406 253.994 183.446 253.276 183.933C252.904 184.152 252.558 184.293 252.238 184.395C251.84 184.537 251.096 184.909 250.942 185.037C250.763 185.191 250.417 185.525 250.211 185.73C250.006 185.936 249.75 186.154 249.647 186.282C249.583 186.359 249.404 186.462 249.262 186.526C249.057 186.629 249.083 186.924 249.301 186.988C249.506 187.052 249.788 186.924 249.955 186.834C250.442 186.603 251.032 185.987 251.058 186.064C251.083 186.141 250.494 187.45 250.429 187.604C250.365 187.758 249.686 189.299 249.647 189.632C249.609 189.979 249.814 190.056 249.968 189.928C250.096 189.825 251.212 187.771 251.212 187.771C251.212 187.771 251.353 187.514 251.404 187.656C251.455 187.81 250.455 189.671 250.352 189.966C250.25 190.274 250.327 190.518 250.609 190.415C250.955 190.287 251.904 188.233 251.904 188.233C251.904 188.233 252.032 187.977 252.109 188.066C252.199 188.156 251.314 189.722 251.301 189.902C251.289 190.082 251.455 190.261 251.686 190.107C251.968 189.928 252.802 188.092 252.802 188.092C252.802 188.092 252.904 187.977 252.943 188.054C252.981 188.143 252.315 189.53 252.366 189.735C252.404 189.902 252.558 189.876 252.558 189.876C252.943 189.902 253.392 188.451 253.789 187.861Z" fill="#F8A492"/>
<path d="M269.703 174.936C269.703 174.936 268.305 174.486 267.395 174.076C266.792 173.793 264.163 172.484 264.163 172.484C264.163 172.484 265.292 167.696 266.061 165.976C268.869 159.661 272.063 164.012 272.499 165.027C273.486 167.311 269.703 174.936 269.703 174.936Z" fill="#355389"/>
<path d="M171.716 158.403L173.05 157.402C173.05 157.402 173.409 157.941 172.832 158.403C172.126 158.955 171.716 158.403 171.716 158.403Z" fill="white"/>
<path d="M328.45 231.425H18.2766C17.8919 231.425 17.5713 231.823 17.5713 232.324C17.5713 232.824 17.8919 233.222 18.2766 233.222H328.45C328.834 233.222 329.155 232.824 329.155 232.324C329.142 231.823 328.834 231.425 328.45 231.425Z" fill="#184655"/>
<path d="M134.308 55.5262C134.283 55.4491 134.206 55.4491 134.129 55.4363C133.424 55.4106 132.731 55.385 132.039 55.2823C131.923 55.2694 131.808 55.2438 131.705 55.1924C131.513 55.1154 131.32 55.1154 131.128 55.1668C131.026 55.1924 130.91 55.2053 130.808 55.2053C130.461 55.2053 129.448 54.8587 128.935 54.7689C128.82 54.7432 128.73 54.6533 128.692 54.5378C128.179 52.5226 127.089 48.0173 126.948 46.5412C126.768 44.6416 125.46 36.0931 125.46 36.0931L121.959 37.0686C121.959 37.0686 123.395 43.3837 123.793 46.4386C124.101 48.8003 126.46 53.819 127.204 55.2566C127.563 56.3348 128.371 56.3605 128.563 56.3861C128.666 56.399 128.769 56.4503 128.845 56.5402C128.974 56.6942 129.115 56.8226 129.281 56.9252C129.41 57.0022 129.499 57.1049 129.589 57.2205C129.743 57.4387 129.871 57.6697 130 57.8879C130.089 58.0419 130.179 58.0804 130.307 58.0548C130.448 58.0163 130.513 57.9136 130.513 57.7467C130.513 57.5028 130.423 57.2718 130.307 57.0536C130.192 56.8482 130.192 56.7327 130.333 56.553C130.41 56.4503 130.487 56.3476 130.602 56.2578C130.705 56.1679 130.82 56.1038 130.961 56.1294C131.218 56.1936 131.462 56.2449 131.731 56.2706L131.949 56.3091C131.962 56.3091 132.064 56.3348 132.064 56.3348C132.077 56.3348 132.449 56.3861 132.577 56.3861C132.68 56.3861 132.847 56.399 132.988 56.399C133.116 56.399 133.385 56.3348 133.398 56.3348C133.526 56.3348 133.629 56.2835 133.719 56.2064C133.757 56.1679 133.796 56.1294 133.77 56.0781C133.757 56.0267 133.706 56.0011 133.654 55.9882C133.565 55.9754 133.141 55.9241 133.141 55.8984C133.27 55.8984 133.68 55.8856 133.808 55.8856C133.988 55.8856 134.129 55.8214 134.257 55.693C134.296 55.6545 134.347 55.6032 134.308 55.5262Z" fill="#F7A491"/>
<path d="M123.344 31.6391C125.076 31.3311 126.499 39.0581 126.499 39.0581C126.499 39.0581 122.665 40.1363 121.677 39.5715C121.677 39.5715 120.562 34.617 120.164 34.7967L123.344 31.6391Z" fill="#9BC1F9"/>
<path d="M81.5633 170.713C81.6787 170.379 80.0886 170.122 79.9988 169.789C79.909 169.455 82.0122 169.429 82.0891 169.134C82.2302 168.595 79.7936 169.018 79.8449 168.775C79.8962 168.518 82.3841 167.966 82.1148 167.529C81.8455 167.093 79.5884 168.377 79.5243 168.094C79.4602 167.799 81.73 167.093 81.6916 166.451C81.6659 166.105 77.9598 168.158 77.5366 167.979C77.1006 167.786 77.9983 166.182 77.652 165.938C77.3058 165.694 76.3312 169.211 76.0875 169.326C75.8567 169.442 70.8425 172.304 69.06 172.754C68.842 172.15 68.3803 171.354 68.1879 170.79C67.1877 171.496 66.4439 171.855 65.418 172.51C66.1618 174.384 67.2261 176.437 67.7519 176.668C69.3421 177.387 75.4719 172.291 76.6902 171.431C77.9213 170.559 78.6138 170.841 79.4474 170.572C80.2681 170.289 81.4479 171.046 81.5633 170.713Z" fill="#F7A491"/>
<path d="M65.1995 173.408C65.1995 173.408 63.8273 167.337 64.071 165.578C64.3146 163.82 66.3921 162.177 67.8412 162.793C69.2903 163.396 69.9444 171.868 69.9444 171.868L65.1995 173.408Z" fill="#E7BA29"/>
</svg>
