<svg width="60" height="60" viewBox="0 0 60 60" fill="none" xmlns="http://www.w3.org/2000/svg">
<path d="M30 60C46.5685 60 60 46.5686 60 30C60 13.4315 46.5685 0 30 0C13.4315 0 0 13.4315 0 30C0 46.5686 13.4315 60 30 60Z" fill="black"/>
<path d="M43.6583 10.0049C40.6581 10.1102 38.0367 11.7659 36.0889 14.0556C33.9285 16.5666 32.4931 19.5462 31.4576 22.5858C29.6065 21.0671 28.1785 19.1017 25.2089 18.2444C22.9116 17.584 20.5018 17.8557 18.2846 19.5093C17.2333 20.295 16.5103 21.482 16.1662 22.5974C15.2738 25.498 17.1017 28.0795 17.9331 29.0074L19.7483 30.9517C20.123 31.3341 21.0227 32.3304 20.5839 33.7576C20.1072 35.3111 18.2383 36.3148 16.3199 35.724C15.4633 35.4585 14.232 34.8213 14.5088 33.924C14.6225 33.5553 14.8855 33.2783 15.0276 32.9634C15.157 32.6896 15.2181 32.4852 15.257 32.3652C15.6074 31.2193 15.1286 29.73 13.9037 29.3519C12.7598 29.0022 11.5918 29.2802 11.1382 30.7516C10.6226 32.4273 11.4234 35.4617 15.7095 36.7856C20.7312 38.3307 24.9795 35.5923 25.5814 32.0239C25.9613 29.7889 24.951 28.1269 23.1042 25.9899L21.5994 24.3247C20.687 23.4116 20.3745 21.858 21.3174 20.6647C22.114 19.6568 23.2473 19.227 25.1068 19.7315C27.8186 20.4667 29.0278 22.351 31.044 23.8708C30.2116 26.6039 29.6665 29.3476 29.1751 31.8101L28.8731 33.6428C27.4303 41.2113 26.3307 45.3664 23.4704 47.752C22.8948 48.1638 22.0698 48.7768 20.8291 48.82C20.1777 48.841 19.9683 48.3924 19.9578 48.1964C19.943 47.7393 20.3292 47.5297 20.5849 47.3244C20.9669 47.1148 21.5447 46.7693 21.5057 45.6623C21.4626 44.35 20.3787 43.2146 18.8128 43.2683C17.6374 43.3073 15.8495 44.4121 15.9168 46.4386C15.9863 48.5282 17.9331 50.0965 20.8691 49.9954C22.4391 49.9438 25.9434 49.3045 29.3961 45.1958C33.4149 40.4846 34.5399 35.0846 35.3859 31.1329L36.3288 25.9162C36.8539 25.9783 37.4138 26.0215 38.0241 26.0352C43.03 26.1426 45.5335 23.5464 45.5725 21.659C45.5967 20.5162 44.8232 19.3924 43.7393 19.4177C42.9648 19.4398 41.9903 19.9559 41.7567 21.0281C41.5284 22.0813 43.3499 23.0314 41.9261 23.955C40.9149 24.6112 39.1017 25.0725 36.5488 24.6976L37.0139 22.1287C37.9599 17.2585 39.1301 11.2677 43.5636 11.1234C43.8866 11.1066 45.0694 11.1382 45.0968 11.9197C45.1042 12.1809 45.04 12.2483 44.7348 12.8465C44.4223 13.312 44.3055 13.7091 44.3191 14.1662C44.3633 15.409 45.3073 16.2264 46.6742 16.1779C48.5021 16.1179 49.0283 14.3368 48.9988 13.4205C48.9231 11.2666 46.6564 9.90796 43.6583 10.0049Z" fill="white"/>
</svg>
