<svg width="80" height="80" viewBox="0 0 80 80" fill="none" xmlns="http://www.w3.org/2000/svg">
<path d="M62.5 28.9999L60.25 28.2499C60.25 27.7499 60.5 27.2499 60.5 26.7499C62.25 18.4999 61 11.7499 57.25 9.49994C53.5 7.49994 47.5 9.49994 41.5 14.7499C41 15.2499 40.25 15.7499 39.75 16.2499C39.25 15.9999 39 15.4999 38.5 15.2499C32.5 9.74994 26.25 7.49994 22.5 9.74994C18.75 11.7499 17.75 18.2499 19.25 25.9999C19.5 26.7499 19.5 27.4999 19.75 28.2499C18.75 28.4999 18 28.7499 17.25 28.9999C9.75 31.4999 5 35.7499 5 39.7499C5 43.9999 10 48.4999 17.75 50.9999C18.25 51.2499 19 51.4999 19.75 51.4999C19.5 52.2499 19.25 53.2499 19.25 53.9999C17.75 61.7499 19 67.7499 22.5 69.9999C26.25 72.2499 32.5 69.9999 38.75 64.4999C39.25 63.9999 39.75 63.4999 40.25 63.2499C40.75 63.7499 41.5 64.4999 42.25 64.9999C48.25 70.2499 54 72.2499 57.75 69.9999C61.5 67.7499 62.75 61.2499 61.25 53.2499C61.25 52.7499 61 51.9999 60.75 51.2499C61.25 50.9999 61.75 50.9999 62 50.7499C70 47.9999 75.25 43.7499 75.25 39.4999C75 35.7499 70 31.7499 62.5 28.9999V28.9999ZM43.75 17.2499C49 12.7499 53.75 10.9999 56 12.2499C58.25 13.4999 59.25 18.9999 57.75 26.2499C57.75 26.7499 57.5 27.2499 57.5 27.7499C54.5 26.9999 51.25 26.4999 48.25 26.2499C46.5 23.7499 44.5 21.2499 42.25 18.7499L43.75 17.2499V17.2499ZM25.75 43.4999C26.5 44.7499 27 45.9999 27.75 47.2499C28.5 48.4999 29.25 49.7499 30 50.7499C27.75 50.4999 25.75 50.2499 23.5 49.7499C24 47.7499 24.75 45.7499 25.75 43.4999V43.4999ZM25.75 36.4999C24.75 34.4999 24.25 32.4999 23.5 30.4999C25.5 29.9999 27.75 29.7499 29.75 29.4999C29 30.7499 28.25 31.7499 27.5 32.9999C27 33.9999 26.25 35.2499 25.75 36.4999ZM27.25 39.9999C28.25 37.9999 29.25 36.2499 30.25 34.2499C31.25 32.4999 32.5 30.4999 33.75 28.7499C35.75 28.4999 38 28.4999 40.25 28.4999C42.5 28.4999 44.5 28.4999 46.75 28.7499C48 30.4999 49 32.2499 50 34.2499C51 35.9999 52 37.9999 53 39.9999C52 41.9999 51 43.7499 50 45.7499C49 47.4999 47.75 49.4999 46.75 51.2499C44.75 51.4999 42.5 51.4999 40.25 51.4999C38 51.4999 36 51.4999 34 51.2499C32.75 49.4999 31.75 47.7499 30.5 45.7499C29.25 43.7499 28.25 41.9999 27.25 39.9999V39.9999ZM52.25 47.2499C53 45.9999 53.75 44.7499 54.25 43.4999C55.25 45.4999 56 47.4999 56.5 49.7499C54.25 50.2499 52.25 50.4999 50 50.7499C51 49.4999 51.75 48.2499 52.25 47.2499V47.2499ZM54.25 36.4999C53.5 35.2499 53 33.9999 52.25 32.7499C51.5 31.4999 50.75 30.4999 50.25 29.2499C52.5 29.4999 54.5 29.9999 56.75 30.2499C56 32.4999 55.25 34.4999 54.25 36.4999ZM40 20.7499C41.5 22.2499 42.75 23.9999 44 25.7499C41.25 25.4999 38.5 25.4999 35.75 25.7499C37.25 23.9999 38.75 22.2499 40 20.7499ZM24 12.2499C26.25 10.9999 31.5 12.7499 37 17.7499L38 18.7499C35.75 20.9999 33.75 23.4999 32 26.2499C28.75 26.4999 25.75 26.9999 22.75 27.7499C22.5 26.9999 22.5 26.2499 22.25 25.4999C20.75 18.7499 21.75 13.4999 24 12.2499V12.2499ZM20.5 48.9999C20 48.7499 19.25 48.7499 18.75 48.4999C15.25 47.2499 12.5 45.7499 10.5 44.2499C8.75 42.7499 8 41.2499 8 39.9999C8 37.4999 11.75 34.2499 18.25 31.9999C19 31.7499 19.75 31.4999 20.75 31.2499C21.5 34.2499 22.5 37.2499 24 39.9999C22.5 42.9999 21.5 45.9999 20.5 48.9999V48.9999ZM36.75 62.7499C34 65.2499 31.25 66.7499 29 67.7499C26.75 68.4999 25.25 68.4999 24 67.9999C21.75 66.7499 20.75 61.7499 22 55.2499C22.25 54.2499 22.5 53.4999 22.5 52.4999C25.5 53.2499 28.75 53.7499 32 53.7499C33.75 56.2499 35.75 58.7499 38 61.2499C37.5 61.7499 37.25 62.2499 36.75 62.7499V62.7499ZM40 59.2499C38.5 57.7499 37.25 55.9999 35.75 54.2499H44C43 55.9999 41.5 57.7499 40 59.2499ZM58.25 63.4999C57.75 65.7499 57 67.2499 56 67.7499C53.75 68.9999 49 67.2499 44 62.9999C43.5 62.4999 42.75 61.9999 42.25 61.4999C44.25 59.2499 46.25 56.7499 48 53.9999C51.25 53.7499 54.25 53.2499 57.5 52.4999C57.75 52.9999 57.75 53.7499 58 54.2499C58.75 57.7499 58.75 60.9999 58.25 63.4999V63.4999ZM60.75 48.4999C60.25 48.4999 60 48.7499 59.5 48.7499C58.5 45.7499 57.25 42.7499 56 39.7499C57.25 36.9999 58.5 33.9999 59.5 30.9999C60.25 31.2499 61 31.4999 61.5 31.7499C68 33.9999 72 37.2499 72 39.7499C72 42.7499 67.75 46.2499 60.75 48.4999V48.4999Z" fill="black"/>
<path d="M40 46.25C41.25 46.25 42.5 46 43.5 45.25C44.5 44.5 45.25 43.5 45.75 42.5C46.25 41.25 46.25 40 46 38.75C45.75 37.5 45.25 36.5 44.25 35.5C43.5 34.5 42.25 34 41 33.75C39.75 33.5 38.5 33.75 37.25 34C36 34.5 35 35.25 34.5 36.25C33.75 37.25 33.5 38.5 33.5 39.75C33.5 40.5 33.75 41.5 34 42.25C34.25 43 34.75 43.75 35.25 44.25C35.75 44.75 36.5 45.25 37.25 45.5C38.25 46 39.25 46.25 40 46.25V46.25Z" fill="black"/>
</svg>
