<svg xmlns="http://www.w3.org/2000/svg" viewBox="0 0 726.21 228.23"><defs><style>.cls-1{fill:#f1b927;}</style></defs><g id="Calque_2" data-name="Calque 2"><g id="Calque_1-2" data-name="Calque 1"><path d="M.29,228.13s106.15-62.58,204.79-56,168.14,48.18,274.13,29.27,247-81,247-81-36.39,18-85,39c-27.27,10.11-55.81,20-87,30-32.43,9.74-71.09,20.33-112,23-30.09,1.71-53.71,2.18-108-12-18.39-5.33-51.85-11.28-85.72-17.72,0,0-22.56-5-42.13-6.28C181.2,174.82,92.12,176.52.29,228.13Z"/><path class="cls-1" d="M.52,228.23s105.63-67,204.28-60.4,168.42,47.51,274.41,28.61,246.6-76,246.6-76-30.6,14-81.6,34c-27.27,10.11-54.81,18-86,28-32.43,9.74-76.09,21.33-117,24-30,2-50,1-108-11-18.39-5.33-51.13-10.62-85-17.06,0,0-22.56-5-42.13-6.28C180.92,170.48,92.35,176.62.52,228.23Z"/><path d="M67.06,57.81a12.05,12.05,0,0,0,5.69,10.67C64.92,68.48,58,61,58,52.47,58,25.61,112.06.18,160.8,0c47.85-.18,78.26,19.92,77.37,53-1.42,60.3-115.08,129.31-206.86,129.31C20.64,182.32,0,179.65,0,163.64c0-19.74,37.53-47.49,75.42-60.83,0,.18-.36.36-1.07.89C45.53,117,8,143.37,8,161.86c0,7.65,12.27,8.89,19.39,8.89,79.33,0,200.11-70.26,200.11-129,0-22.77-27.57-35.57-53.72-35.93C121.31,5.15,67.06,40.19,67.06,57.8Zm32.73,72.75a21.55,21.55,0,0,0,10.32-2.67c-.71,2.49-8.72,7.83-12.27,7.83a5.05,5.05,0,0,1-5-5.34c0-12.63,33.44-63.14,58.34-90.54,3.91-4.45,16-17.61,23.12-17.61a11.32,11.32,0,0,1,4.09.89c8,2.85,12.1,10.85,9.43,8.72-2.85-1.6-6.76.36-11.21,3.91-3,2.49-6.23,5.69-13.34,13.16-25.79,27-63.5,74-63.5,81.64Z"/><path d="M218.25,146.57c-2.85-.89-7.29-5.34-7.29-8.54,0-10.32,25.79-49.09,37.18-58.16a3.72,3.72,0,0,1,2.67-1.07c4.09,0,11.21,7.11,11.21,11.56,0,.71-.89-.18-2.31-.36-7.29-.71-31.66,39.84-33.8,47.14,10.85-2.85,36.82-27.57,47.67-38.06,1.25-.89,2.13.53,1.6,1.07-15.48,16.72-43.76,45.71-54.78,46.6a9.22,9.22,0,0,1-2.13-.18Zm59.41-89.29c1.6,1.78,2.67,4.45,2,4.45a5.32,5.32,0,0,0-3.74.18c-3,1.25-11.21,8.54-13.34,11.56-2.49,3.2-6.23-.53-6.4-3.74C256,64.57,262.72,53,267.35,51.59c4.09-.53,8,3,10.32,5.69Z"/><path d="M317,130.56c3.91-1.42,7.83-2.85,11.74-4.09,2.85-.89,5.69-.36,3.2.53-5.69,2.31-11.38,4.8-16.9,7.11-22.77,39.67-52.12,84.31-86.27,93.38a22.25,22.25,0,0,1-5.87.71c-6.58,0-12.1-3-12.1-10.49a22.06,22.06,0,0,1,1.25-6.94c7.11-22.59,42.16-51.41,83.07-71,3.91-6.76,18.85-33.62,18.85-33.62a88.67,88.67,0,0,0-7.65,6c-2.67,2.49-12.45,11.21-22.41,19-10.14,7.83-20.63,15.47-24.37,15.47a4,4,0,0,1-1.78-.53c-3.2-2-7.65-8.36-7.65-11.92,0-19.39,40.91-59,73.46-59,6.94,0,15.83,2.85,15.83,11.21,0,3-1.78,6-3.38,8.36-.36.18-.53,0-.36-.18a15.25,15.25,0,0,0,1.78-6.4c0-5.34-3.38-8-8.72-7.65-10.32.53-23.12,8-34.86,17.79-16.9,14.41-29.88,36.29-28.1,37.71.71.71,7.83-3.91,15.65-9.07a259,259,0,0,0,22.77-17.25c12.27-10.32,14.94-13,18-14.41,3.38-1.6,10.85,8,10.14,10.14-.53-.53-1.42-1.07-4.45,5L317,130.56Zm-25.08,14.76c-32.37,17.08-57.1,37.35-69.55,60.48-2,3.56-2.85,6-2.85,7.83,0,2.49,1.6,3.38,3.91,3.38,2.49,0,5.51-1.07,8.36-2.49,20.81-11.21,42-39.84,60.12-69.19Z"/><path d="M541.79,49.63c1.42.36,2.13.71,0,.53-38.24-3.38-73.28-3-104.94,2.67-6.05,7.83-11.92,16.54-18.68,26.5-15.65,23.48-29,46.07-33.26,57.45,7.83.89,37.35-28.1,47.67-37.71,1.07-.89,2,.53,1.25,1.07-8.72,10-39.49,42.33-50.34,46.25-2.13.89-3.91.18-5.69-.71-1.42-.71-5.34-4.45-6.4-7.11a4.29,4.29,0,0,1-.53-2.67c0-3.2,3-10.67,10-23.3-15.48,15.83-34.51,33.44-43,34.15a9.22,9.22,0,0,1-2.13-.18c-2.85-.89-7.29-5.34-7.29-8.54,0-10.32,25.79-49.09,37.18-58.16a3.72,3.72,0,0,1,2.67-1.07c4.09,0,11.21,7.11,11.21,11.56,0,.71-.89-.18-2.31-.36-7.29-.71-31.66,39.84-33.8,47.14,9.25-2.31,29.35-20.81,42.16-32.55,3.91-7.11,9.07-15.47,15.3-25.26l13.52-20.1a13.37,13.37,0,0,1-3.38-3c-5-5.51,1.6-8.54,13.16-10.49l8.36-11.21c5.34-6.94,10.5-12.63,14.94-16.19,2.49-2.13,4.8-3.56,6.58-3.56,9.78-.53,17.08,9.78,13.7,7.83-5.87-2.67-16.36,11.56-24.55,22.06,29.35-2,71-.71,98.72,5ZM395.05,57.28c1.6,1.78,2.67,4.45,2,4.45a5.3,5.3,0,0,0-3.73.18c-3,1.25-11.21,8.54-13.34,11.56-2.49,3.2-6.23-.53-6.4-3.74-.18-5.16,6.58-16.72,11.21-18.14,4.09-.53,8,3,10.32,5.69Z"/><path d="M425.64,135.54c-.18,2.13,1.42,3.38,5.34,3.38,13,0,45.54-24.72,63.5-39.67.53-.36,1.78.53,1.25,1.07-13.34,12.45-48.74,46.42-72.39,46.42-5.51,0-12.63-6.4-12.63-11.21a33.07,33.07,0,0,1,2.49-11.74c4.27-10.14,13.34-21.34,24.55-30.77C452.51,80.75,468.34,75.23,476,75.23c2.67,0,10.85,4.09,10.85,9.07,0,11-34.15,36.64-54.07,37.18-3.2,3.74-6.58,9.43-7.11,14Zm9.43-17.61c15.47-1.78,45-30.59,46.07-37.35C461.4,87,440.94,108.51,435.07,117.93Z"/><path d="M535.56,34.51c5.34-6.94,10.32-12.63,14.76-16.19,2.67-2.13,5-3.56,6.58-3.56,10-.53,17.08,9.78,13.7,7.83-6.23-2.85-17.79,13.87-25.61,23.48-7.65,9.78-14.94,20.28-23.83,33.26-15.48,23.48-28.82,46.07-33.08,57.45,7.65.89,37.18-28.1,47.67-37.71a.82.82,0,0,1,1.25,1.07c-8.72,10-39.67,42.33-50.34,46.25a6.24,6.24,0,0,1-5.69-.71c-1.42-.71-5.34-4.45-6.4-7.11a4.29,4.29,0,0,1-.53-2.67c0-5.34,8.18-22.59,29.88-56.56,11-17.25,22.41-32.73,31.66-44.82Z"/><path d="M521.51,146.57c-2.85-.89-7.29-5.34-7.29-8.54,0-10.32,25.79-49.09,37.18-58.16a3.72,3.72,0,0,1,2.67-1.07c4.09,0,11.21,7.11,11.21,11.56,0,.71-.89-.18-2.31-.36-7.29-.71-31.66,39.84-33.8,47.14C540,134.29,566,109.57,576.84,99.08c1.25-.89,2.13.53,1.6,1.07-15.47,16.72-43.76,45.71-54.78,46.6a9.22,9.22,0,0,1-2.13-.18Zm59.41-89.29c1.6,1.78,2.67,4.45,2,4.45a5.3,5.3,0,0,0-3.73.18c-3,1.25-11.21,8.54-13.34,11.56-2.49,3.2-6.23-.53-6.4-3.74C559.23,64.57,566,53,570.62,51.59c4.09-.53,8,3,10.32,5.69Z"/><path d="M630.37,78.27c-32.19,0-69.37,59.94-59.41,64.21,10,4.09,35.4-24.37,47.31-42.51-.89-1.6-2.67-6.94-2-8.72.53-1.78,5.87-7.11,8.18-7.29a5.51,5.51,0,0,1,4.09,1.78c3.38,5.51,7.65,9.6,14.76,9.07,11.92-1.07,18.5-8,20.46-7.83-.89,2.49-8,8.36-16.72,11.21a34.88,34.88,0,0,1-10.5,1.6,15.8,15.8,0,0,1-5.34-.71c-4.8,23.66-41.62,49.27-60.48,48.2a14.3,14.3,0,0,1-13.52-14.05c0-29,39-58,67.06-58,6.76,0,9.6,2,10.85,3,.89.53.36.53-.36.53-1.78-.18-3.2-.53-4.45-.53Z"/><path d="M665.4,76.49a4.25,4.25,0,0,1,2.49-.89c4.27,0,11,6.94,11,11.38,0,.71-.53-.18-2-.36-2.67-.18-8.89,6.76-14.23,13.87-4.8,6.4-11,14.76-14.76,21.34,9.43-12.27,27.21-27.21,42.51-38.24,6.94-5,12.27-8,16-8.36,2-.18,9.25,7.47,8,8.89-3.91,4.09-18.68,17.08-24.55,30.95,8.54-.71,20.81-8.72,31.84-18.5.18-.18,1.25-.36,1.42,0-3.2,4.27-24.55,24.19-36.82,24.19-3.2,0-8.54-6.23-8.54-8.36,0-5,5.69-15.3,10.32-20.63-16.36,9.6-24.72,16.72-36.82,30.06-9.07,9.78-19.74,25.44-15.83,27.21-5.16,1.25-9.43-4.27-10.67-9.25-.36-1.6.53-5,2.67-9.07C632,120.58,640,108.31,647.08,98.17,653.31,89.1,661,80,665.4,76.47Z"/></g></g></svg>