<svg width="66" height="66" viewBox="0 0 66 66" fill="none" xmlns="http://www.w3.org/2000/svg">
<path d="M26.9424 65.7127C26.1293 65.7127 25.3217 65.4818 24.6088 65.0376L17.1806 60.2784C16.0711 59.6069 16.6125 59.3694 16.9784 59.2326C18.4577 58.6721 18.7579 58.5455 20.3369 57.5751C20.5029 57.4726 20.7201 57.5088 20.8899 57.6173L26.5966 61.2819C26.8026 61.4025 27.095 61.4025 27.2861 61.2819L49.5367 47.3828C49.7427 47.2562 49.8764 46.997 49.8764 46.7318V18.9456C49.8764 18.6683 49.7427 18.4212 49.5322 18.2826L27.2905 4.39547C27.0845 4.26287 26.8116 4.26287 26.6055 4.39547L4.36825 18.2826C4.1527 18.4152 4.01569 18.6743 4.01569 18.9395V46.7258C4.01569 46.991 4.14936 47.2442 4.36101 47.3707L10.4542 51.18C13.7625 52.9702 15.7843 50.8606 15.7843 48.7389V21.3143C15.7843 20.9226 16.0683 20.6212 16.4303 20.6212H19.2486C19.5995 20.6212 19.8891 20.9226 19.8891 21.3143V48.751C19.8891 53.5247 17.483 56.2672 13.3002 56.2672C12.0137 56.2672 11 56.2672 8.17062 54.7603L2.33367 51.1198C0.891139 50.2157 0 48.528 0 46.7258V18.9395C0 17.1313 0.891139 15.4437 2.33367 14.5516L24.6065 0.646437C26.0157 -0.215479 27.887 -0.215479 29.285 0.646437L51.53 14.5576C52.967 15.4557 53.8637 17.1374 53.8637 18.9456V46.7318C53.8637 48.534 52.967 50.2157 51.53 51.1198L29.285 65.0249C28.5721 65.471 27.7645 65.7 26.9402 65.7" fill="black"/>
<path d="M33.815 46.5662C24.0794 46.5662 22.0381 41.7298 22.0381 37.6734C22.0381 37.2877 22.3255 36.9803 22.6825 36.9803H25.5564C25.8739 36.9803 26.1412 37.2304 26.1913 37.5697C26.6258 40.7389 27.9179 42.3374 33.805 42.3374C38.4946 42.3374 40.4885 41.191 40.4885 38.4998C40.4885 36.9507 39.9204 35.7995 32.6354 35.028C26.5422 34.377 22.7772 32.9244 22.7772 27.6505C22.7772 22.7924 26.5645 19.8992 32.9083 19.8992C40.0318 19.8992 43.563 22.5754 44.0085 28.3255C44.0252 28.5244 43.9584 28.7173 43.8359 28.862C43.7133 29.0006 43.5407 29.085 43.3625 29.085H40.4718C40.1711 29.085 39.9093 28.8559 39.848 28.5425C39.1518 25.2094 37.4698 24.1425 32.8972 24.1425C27.7787 24.1425 27.1827 26.0713 27.1827 27.5179C27.1827 29.2718 27.8845 29.7842 34.7908 30.7726C41.6303 31.7551 44.8774 33.1414 44.8774 38.343C44.8774 43.5869 40.8339 46.5945 33.7827 46.5945M60.8844 17.1266H61.6308C62.2434 17.1266 62.3604 16.6625 62.3604 16.3913C62.3604 15.6801 61.9093 15.6801 61.6586 15.6801H60.89L60.8844 17.1266ZM59.9766 14.8483H61.6308C62.1989 14.8483 63.3128 14.8483 63.3128 16.2225C63.3128 17.1809 62.7447 17.3798 62.405 17.5003C63.0677 17.5486 63.1123 18.0187 63.2014 18.6817C63.246 19.0976 63.3184 19.8149 63.452 20.056H62.4328C62.4049 19.8149 62.249 18.4888 62.249 18.4165C62.1822 18.1212 62.0875 17.9765 61.7477 17.9765H60.9067V20.062H59.9766V14.8483ZM57.9883 17.4401C57.9883 19.5979 59.5979 21.3458 61.5751 21.3458C63.569 21.3458 65.1786 19.5617 65.1786 17.4401C65.1786 15.2762 63.5467 13.5584 61.5695 13.5584C59.6201 13.5584 57.9827 15.2521 57.9827 17.434M65.8692 17.4521C65.8692 20.0077 63.9366 22.0932 61.5806 22.0932C59.2414 22.0932 57.2921 20.0318 57.2921 17.4521C57.2921 14.8242 59.286 12.811 61.5806 12.811C63.892 12.811 65.8637 14.8302 65.8637 17.4521" fill="black"/>
</svg>
