<svg xmlns="http://www.w3.org/2000/svg" viewBox="0 0 229.34 244.9"><defs><style>.cls-1{fill:#1d1d1b;}</style></defs><g id="Calque_2" data-name="Calque 2"><g id="Calque_1-2" data-name="Calque 1"><path class="cls-1" d="M15.87,7.94A7.94,7.94,0,1,1,7.94,0a7.93,7.93,0,0,1,7.93,7.94"/><path class="cls-1" d="M46.37,7.94A7.94,7.94,0,1,1,38.43,0a7.94,7.94,0,0,1,7.94,7.94"/><path class="cls-1" d="M76.86,7.94A7.94,7.94,0,1,1,68.93,0a7.93,7.93,0,0,1,7.93,7.94"/><path class="cls-1" d="M107.36,7.94A7.94,7.94,0,1,1,99.42,0a7.94,7.94,0,0,1,7.94,7.94"/><path class="cls-1" d="M137.85,7.94A7.94,7.94,0,1,1,129.92,0a7.93,7.93,0,0,1,7.93,7.94"/><path class="cls-1" d="M168.35,7.94A7.94,7.94,0,1,1,160.41,0a7.94,7.94,0,0,1,7.94,7.94"/><path class="cls-1" d="M198.84,7.94A7.94,7.94,0,1,1,190.91,0a7.93,7.93,0,0,1,7.93,7.94"/><path class="cls-1" d="M229.34,7.94A7.94,7.94,0,1,1,221.4,0a7.94,7.94,0,0,1,7.94,7.94"/><path class="cls-1" d="M15.87,40.65a7.94,7.94,0,1,1-7.93-7.93,7.93,7.93,0,0,1,7.93,7.93"/><path class="cls-1" d="M46.37,40.65a7.94,7.94,0,1,1-7.94-7.93,7.94,7.94,0,0,1,7.94,7.93"/><path class="cls-1" d="M76.86,40.65a7.94,7.94,0,1,1-7.93-7.93,7.93,7.93,0,0,1,7.93,7.93"/><path class="cls-1" d="M107.36,40.65a7.94,7.94,0,1,1-7.94-7.93,7.94,7.94,0,0,1,7.94,7.93"/><path class="cls-1" d="M137.85,40.65a7.94,7.94,0,1,1-7.93-7.93,7.93,7.93,0,0,1,7.93,7.93"/><path class="cls-1" d="M168.35,40.65a7.94,7.94,0,1,1-7.94-7.93,7.94,7.94,0,0,1,7.94,7.93"/><path class="cls-1" d="M198.84,40.65a7.94,7.94,0,1,1-7.93-7.93,7.93,7.93,0,0,1,7.93,7.93"/><path class="cls-1" d="M229.34,40.65a7.94,7.94,0,1,1-7.94-7.93,7.94,7.94,0,0,1,7.94,7.93"/><path class="cls-1" d="M15.87,73.37a7.94,7.94,0,1,1-7.93-7.93,7.93,7.93,0,0,1,7.93,7.93"/><path class="cls-1" d="M46.37,73.37a7.94,7.94,0,1,1-7.94-7.93,7.94,7.94,0,0,1,7.94,7.93"/><path class="cls-1" d="M76.86,73.37a7.94,7.94,0,1,1-7.93-7.93,7.93,7.93,0,0,1,7.93,7.93"/><path class="cls-1" d="M107.36,73.37a7.94,7.94,0,1,1-7.94-7.93,7.94,7.94,0,0,1,7.94,7.93"/><path class="cls-1" d="M137.85,73.37a7.94,7.94,0,1,1-7.93-7.93,7.93,7.93,0,0,1,7.93,7.93"/><path class="cls-1" d="M168.35,73.37a7.94,7.94,0,1,1-7.94-7.93,7.94,7.94,0,0,1,7.94,7.93"/><path class="cls-1" d="M198.84,73.37a7.94,7.94,0,1,1-7.93-7.93,7.93,7.93,0,0,1,7.93,7.93"/><path class="cls-1" d="M229.34,73.37a7.94,7.94,0,1,1-7.94-7.93,7.94,7.94,0,0,1,7.94,7.93"/><path class="cls-1" d="M15.87,106.09a7.94,7.94,0,1,1-7.93-7.94,7.94,7.94,0,0,1,7.93,7.94"/><path class="cls-1" d="M46.37,106.09a7.94,7.94,0,1,1-7.94-7.94,7.95,7.95,0,0,1,7.94,7.94"/><path class="cls-1" d="M76.86,106.09a7.94,7.94,0,1,1-7.93-7.94,7.94,7.94,0,0,1,7.93,7.94"/><path class="cls-1" d="M107.36,106.09a7.94,7.94,0,1,1-7.94-7.94,7.95,7.95,0,0,1,7.94,7.94"/><path class="cls-1" d="M137.85,106.09a7.94,7.94,0,1,1-7.93-7.94,7.94,7.94,0,0,1,7.93,7.94"/><path class="cls-1" d="M168.35,106.09a7.94,7.94,0,1,1-7.94-7.94,7.95,7.95,0,0,1,7.94,7.94"/><path class="cls-1" d="M198.84,106.09a7.94,7.94,0,1,1-7.93-7.94,7.94,7.94,0,0,1,7.93,7.94"/><path class="cls-1" d="M229.34,106.09a7.94,7.94,0,1,1-7.94-7.94,7.95,7.95,0,0,1,7.94,7.94"/><path class="cls-1" d="M15.87,138.81a7.94,7.94,0,1,1-7.93-7.94,7.93,7.93,0,0,1,7.93,7.94"/><path class="cls-1" d="M46.37,138.81a7.94,7.94,0,1,1-7.94-7.94,7.94,7.94,0,0,1,7.94,7.94"/><path class="cls-1" d="M76.86,138.81a7.94,7.94,0,1,1-7.93-7.94,7.93,7.93,0,0,1,7.93,7.94"/><path class="cls-1" d="M107.36,138.81a7.94,7.94,0,1,1-7.94-7.94,7.94,7.94,0,0,1,7.94,7.94"/><path class="cls-1" d="M137.85,138.81a7.94,7.94,0,1,1-7.93-7.94,7.93,7.93,0,0,1,7.93,7.94"/><path class="cls-1" d="M168.35,138.81a7.94,7.94,0,1,1-7.94-7.94,7.94,7.94,0,0,1,7.94,7.94"/><path class="cls-1" d="M198.84,138.81a7.94,7.94,0,1,1-7.93-7.94,7.93,7.93,0,0,1,7.93,7.94"/><path class="cls-1" d="M229.34,138.81a7.94,7.94,0,1,1-7.94-7.94,7.94,7.94,0,0,1,7.94,7.94"/><path class="cls-1" d="M15.87,171.52a7.94,7.94,0,1,1-7.93-7.93,7.93,7.93,0,0,1,7.93,7.93"/><path class="cls-1" d="M46.37,171.52a7.94,7.94,0,1,1-7.94-7.93,7.94,7.94,0,0,1,7.94,7.93"/><path class="cls-1" d="M76.86,171.52a7.94,7.94,0,1,1-7.93-7.93,7.93,7.93,0,0,1,7.93,7.93"/><path class="cls-1" d="M107.36,171.52a7.94,7.94,0,1,1-7.94-7.93,7.94,7.94,0,0,1,7.94,7.93"/><path class="cls-1" d="M137.85,171.52a7.94,7.94,0,1,1-7.93-7.93,7.93,7.93,0,0,1,7.93,7.93"/><path class="cls-1" d="M168.35,171.52a7.94,7.94,0,1,1-7.94-7.93,7.94,7.94,0,0,1,7.94,7.93"/><path class="cls-1" d="M198.84,171.52a7.94,7.94,0,1,1-7.93-7.93,7.93,7.93,0,0,1,7.93,7.93"/><path class="cls-1" d="M229.34,171.52a7.94,7.94,0,1,1-7.94-7.93,7.94,7.94,0,0,1,7.94,7.93"/><path class="cls-1" d="M15.87,204.24a7.94,7.94,0,1,1-7.93-7.93,7.93,7.93,0,0,1,7.93,7.93"/><path class="cls-1" d="M46.37,204.24a7.94,7.94,0,1,1-7.94-7.93,7.94,7.94,0,0,1,7.94,7.93"/><path class="cls-1" d="M76.86,204.24a7.94,7.94,0,1,1-7.93-7.93,7.93,7.93,0,0,1,7.93,7.93"/><path class="cls-1" d="M107.36,204.24a7.94,7.94,0,1,1-7.94-7.93,7.94,7.94,0,0,1,7.94,7.93"/><path class="cls-1" d="M137.85,204.24a7.94,7.94,0,1,1-7.93-7.93,7.93,7.93,0,0,1,7.93,7.93"/><path class="cls-1" d="M168.35,204.24a7.94,7.94,0,1,1-7.94-7.93,7.94,7.94,0,0,1,7.94,7.93"/><path class="cls-1" d="M198.84,204.24a7.94,7.94,0,1,1-7.93-7.93,7.93,7.93,0,0,1,7.93,7.93"/><path class="cls-1" d="M229.34,204.24a7.94,7.94,0,1,1-7.94-7.93,7.94,7.94,0,0,1,7.94,7.93"/><path class="cls-1" d="M15.87,237A7.94,7.94,0,1,1,7.94,229,7.94,7.94,0,0,1,15.87,237"/><path class="cls-1" d="M46.37,237A7.94,7.94,0,1,1,38.43,229,7.95,7.95,0,0,1,46.37,237"/><path class="cls-1" d="M76.86,237A7.94,7.94,0,1,1,68.93,229,7.94,7.94,0,0,1,76.86,237"/><path class="cls-1" d="M107.36,237A7.94,7.94,0,1,1,99.42,229a7.95,7.95,0,0,1,7.94,7.94"/><path class="cls-1" d="M137.85,237a7.94,7.94,0,1,1-7.93-7.94,7.94,7.94,0,0,1,7.93,7.94"/><path class="cls-1" d="M168.35,237a7.94,7.94,0,1,1-7.94-7.94,7.95,7.95,0,0,1,7.94,7.94"/><path class="cls-1" d="M198.84,237a7.94,7.94,0,1,1-7.93-7.94,7.94,7.94,0,0,1,7.93,7.94"/><path class="cls-1" d="M229.34,237A7.94,7.94,0,1,1,221.4,229a7.95,7.95,0,0,1,7.94,7.94"/></g></g></svg>