<svg xmlns="http://www.w3.org/2000/svg" xmlns:xlink="http://www.w3.org/1999/xlink" viewBox="0 0 571.48 244.92"><defs><style>.cls-1{fill:none;}.cls-2{clip-path:url(#clip-path);}.cls-3{fill:#1d1d1b;}</style><clipPath id="clip-path" transform="translate(0 0)"><rect class="cls-1" width="571.48" height="244.92"/></clipPath></defs><g id="Calque_2" data-name="Calque 2"><g id="Calque_1-2" data-name="Calque 1"><g class="cls-2"><path class="cls-3" d="M355.41,7.94A7.94,7.94,0,1,1,347.47,0a7.93,7.93,0,0,1,7.94,7.94" transform="translate(0 0)"/><path class="cls-3" d="M478.88,7.94A7.94,7.94,0,1,1,470.94,0a7.93,7.93,0,0,1,7.94,7.94" transform="translate(0 0)"/><path class="cls-3" d="M108.47,7.94A7.94,7.94,0,1,1,100.54,0a7.93,7.93,0,0,1,7.93,7.94" transform="translate(0 0)"/><path class="cls-3" d="M231.94,7.94A7.94,7.94,0,1,1,224,0a7.93,7.93,0,0,1,7.93,7.94" transform="translate(0 0)"/><path class="cls-3" d="M262.81,40.65a7.94,7.94,0,1,1-7.94-7.93,7.93,7.93,0,0,1,7.94,7.93" transform="translate(0 0)"/><path class="cls-3" d="M324.54,40.65a7.94,7.94,0,1,1-7.93-7.93,7.93,7.93,0,0,1,7.93,7.93" transform="translate(0 0)"/><path class="cls-3" d="M355.41,40.65a7.94,7.94,0,1,1-7.94-7.93,7.93,7.93,0,0,1,7.94,7.93" transform="translate(0 0)"/><path class="cls-3" d="M386.28,40.65a7.94,7.94,0,1,1-7.94-7.93,7.94,7.94,0,0,1,7.94,7.93" transform="translate(0 0)"/><path class="cls-3" d="M448,40.65a7.94,7.94,0,1,1-7.93-7.93A7.93,7.93,0,0,1,448,40.65" transform="translate(0 0)"/><path class="cls-3" d="M478.88,40.65a7.94,7.94,0,1,1-7.94-7.93,7.93,7.93,0,0,1,7.94,7.93" transform="translate(0 0)"/><path class="cls-3" d="M509.75,40.65a7.94,7.94,0,1,1-7.94-7.93,7.94,7.94,0,0,1,7.94,7.93" transform="translate(0 0)"/><path class="cls-3" d="M77.61,40.65a7.94,7.94,0,1,1-7.94-7.93,7.94,7.94,0,0,1,7.94,7.93" transform="translate(0 0)"/><path class="cls-3" d="M108.47,40.65a7.94,7.94,0,1,1-7.93-7.93,7.93,7.93,0,0,1,7.93,7.93" transform="translate(0 0)"/><path class="cls-3" d="M139.34,40.65a7.94,7.94,0,1,1-7.94-7.93,7.93,7.93,0,0,1,7.94,7.93" transform="translate(0 0)"/><path class="cls-3" d="M201.08,40.65a7.94,7.94,0,1,1-7.94-7.93,7.94,7.94,0,0,1,7.94,7.93" transform="translate(0 0)"/><path class="cls-3" d="M231.94,40.65A7.94,7.94,0,1,1,224,32.72a7.93,7.93,0,0,1,7.93,7.93" transform="translate(0 0)"/><path class="cls-3" d="M262.81,73.37a7.94,7.94,0,1,1-7.94-7.94,7.94,7.94,0,0,1,7.94,7.94" transform="translate(0 0)"/><path class="cls-3" d="M293.68,73.37a7.94,7.94,0,1,1-7.94-7.94,7.95,7.95,0,0,1,7.94,7.94" transform="translate(0 0)"/><path class="cls-3" d="M324.54,73.37a7.94,7.94,0,1,1-7.93-7.94,7.94,7.94,0,0,1,7.93,7.94" transform="translate(0 0)"/><path class="cls-3" d="M355.41,73.37a7.94,7.94,0,1,1-7.94-7.94,7.94,7.94,0,0,1,7.94,7.94" transform="translate(0 0)"/><path class="cls-3" d="M386.28,73.37a7.94,7.94,0,1,1-7.94-7.94,7.95,7.95,0,0,1,7.94,7.94" transform="translate(0 0)"/><path class="cls-3" d="M417.14,73.37a7.94,7.94,0,1,1-7.93-7.94,7.94,7.94,0,0,1,7.93,7.94" transform="translate(0 0)"/><path class="cls-3" d="M448,73.37a7.94,7.94,0,1,1-7.93-7.94A7.94,7.94,0,0,1,448,73.37" transform="translate(0 0)"/><path class="cls-3" d="M478.88,73.37a7.94,7.94,0,1,1-7.94-7.94,7.94,7.94,0,0,1,7.94,7.94" transform="translate(0 0)"/><path class="cls-3" d="M509.75,73.37a7.94,7.94,0,1,1-7.94-7.94,7.95,7.95,0,0,1,7.94,7.94" transform="translate(0 0)"/><path class="cls-3" d="M540.61,73.37a7.94,7.94,0,1,1-7.93-7.94,7.94,7.94,0,0,1,7.93,7.94" transform="translate(0 0)"/><path class="cls-3" d="M46.74,73.37a7.94,7.94,0,1,1-7.94-7.94,7.94,7.94,0,0,1,7.94,7.94" transform="translate(0 0)"/><path class="cls-3" d="M77.61,73.37a7.94,7.94,0,1,1-7.94-7.94,7.95,7.95,0,0,1,7.94,7.94" transform="translate(0 0)"/><path class="cls-3" d="M108.47,73.37a7.94,7.94,0,1,1-7.93-7.94,7.94,7.94,0,0,1,7.93,7.94" transform="translate(0 0)"/><path class="cls-3" d="M139.34,73.37a7.94,7.94,0,1,1-7.94-7.94,7.94,7.94,0,0,1,7.94,7.94" transform="translate(0 0)"/><path class="cls-3" d="M170.21,73.37a7.94,7.94,0,1,1-7.94-7.94,7.94,7.94,0,0,1,7.94,7.94" transform="translate(0 0)"/><path class="cls-3" d="M201.08,73.37a7.94,7.94,0,1,1-7.94-7.94,7.95,7.95,0,0,1,7.94,7.94" transform="translate(0 0)"/><path class="cls-3" d="M231.94,73.37A7.94,7.94,0,1,1,224,65.43a7.94,7.94,0,0,1,7.93,7.94" transform="translate(0 0)"/><path class="cls-3" d="M262.81,106.09a7.94,7.94,0,1,1-7.94-7.94,7.94,7.94,0,0,1,7.94,7.94" transform="translate(0 0)"/><path class="cls-3" d="M293.68,106.09a7.94,7.94,0,1,1-7.94-7.94,7.95,7.95,0,0,1,7.94,7.94" transform="translate(0 0)"/><path class="cls-3" d="M324.54,106.09a7.94,7.94,0,1,1-7.93-7.94,7.94,7.94,0,0,1,7.93,7.94" transform="translate(0 0)"/><path class="cls-3" d="M355.41,106.09a7.94,7.94,0,1,1-7.94-7.94,7.94,7.94,0,0,1,7.94,7.94" transform="translate(0 0)"/><path class="cls-3" d="M386.28,106.09a7.94,7.94,0,1,1-7.94-7.94,7.95,7.95,0,0,1,7.94,7.94" transform="translate(0 0)"/><path class="cls-3" d="M417.14,106.09a7.94,7.94,0,1,1-7.93-7.94,7.94,7.94,0,0,1,7.93,7.94" transform="translate(0 0)"/><path class="cls-3" d="M448,106.09a7.94,7.94,0,1,1-7.93-7.94,7.94,7.94,0,0,1,7.93,7.94" transform="translate(0 0)"/><path class="cls-3" d="M478.88,106.09a7.94,7.94,0,1,1-7.94-7.94,7.94,7.94,0,0,1,7.94,7.94" transform="translate(0 0)"/><path class="cls-3" d="M509.75,106.09a7.94,7.94,0,1,1-7.94-7.94,7.95,7.95,0,0,1,7.94,7.94" transform="translate(0 0)"/><path class="cls-3" d="M540.61,106.09a7.94,7.94,0,1,1-7.93-7.94,7.94,7.94,0,0,1,7.93,7.94" transform="translate(0 0)"/><path class="cls-3" d="M571.48,106.09a7.94,7.94,0,1,1-7.94-7.94,7.94,7.94,0,0,1,7.94,7.94" transform="translate(0 0)"/><path class="cls-3" d="M15.87,106.09a7.94,7.94,0,1,1-7.93-7.94,7.94,7.94,0,0,1,7.93,7.94" transform="translate(0 0)"/><path class="cls-3" d="M46.74,106.09a7.94,7.94,0,1,1-7.94-7.94,7.94,7.94,0,0,1,7.94,7.94" transform="translate(0 0)"/><path class="cls-3" d="M77.61,106.09a7.94,7.94,0,1,1-7.94-7.94,7.95,7.95,0,0,1,7.94,7.94" transform="translate(0 0)"/><path class="cls-3" d="M108.47,106.09a7.94,7.94,0,1,1-7.93-7.94,7.94,7.94,0,0,1,7.93,7.94" transform="translate(0 0)"/><path class="cls-3" d="M139.34,106.09a7.94,7.94,0,1,1-7.94-7.94,7.94,7.94,0,0,1,7.94,7.94" transform="translate(0 0)"/><path class="cls-3" d="M170.21,106.09a7.94,7.94,0,1,1-7.94-7.94,7.94,7.94,0,0,1,7.94,7.94" transform="translate(0 0)"/><path class="cls-3" d="M201.08,106.09a7.94,7.94,0,1,1-7.94-7.94,7.95,7.95,0,0,1,7.94,7.94" transform="translate(0 0)"/><path class="cls-3" d="M231.94,106.09A7.94,7.94,0,1,1,224,98.15a7.94,7.94,0,0,1,7.93,7.94" transform="translate(0 0)"/><path class="cls-3" d="M216.07,237a7.94,7.94,0,1,1,7.94,7.94,7.94,7.94,0,0,1-7.94-7.94" transform="translate(0 0)"/><path class="cls-3" d="M92.6,237a7.94,7.94,0,1,1,7.94,7.94A7.94,7.94,0,0,1,92.6,237" transform="translate(0 0)"/><path class="cls-3" d="M463,237a7.94,7.94,0,1,1,7.93,7.94A7.94,7.94,0,0,1,463,237" transform="translate(0 0)"/><path class="cls-3" d="M339.54,237a7.94,7.94,0,1,1,7.93,7.94,7.94,7.94,0,0,1-7.93-7.94" transform="translate(0 0)"/><path class="cls-3" d="M308.67,204.26a7.94,7.94,0,1,1,7.94,7.94,7.94,7.94,0,0,1-7.94-7.94" transform="translate(0 0)"/><path class="cls-3" d="M246.94,204.26a7.94,7.94,0,1,1,7.93,7.94,7.94,7.94,0,0,1-7.93-7.94" transform="translate(0 0)"/><path class="cls-3" d="M216.07,204.26A7.94,7.94,0,1,1,224,212.2a7.94,7.94,0,0,1-7.94-7.94" transform="translate(0 0)"/><path class="cls-3" d="M185.2,204.26a7.94,7.94,0,1,1,7.94,7.94,7.95,7.95,0,0,1-7.94-7.94" transform="translate(0 0)"/><path class="cls-3" d="M123.47,204.26a7.94,7.94,0,1,1,7.94,7.94,7.94,7.94,0,0,1-7.94-7.94" transform="translate(0 0)"/><path class="cls-3" d="M92.6,204.26a7.94,7.94,0,1,1,7.94,7.94,7.94,7.94,0,0,1-7.94-7.94" transform="translate(0 0)"/><path class="cls-3" d="M61.73,204.26a7.94,7.94,0,1,1,7.94,7.94,7.95,7.95,0,0,1-7.94-7.94" transform="translate(0 0)"/><path class="cls-3" d="M493.87,204.26a7.94,7.94,0,1,1,7.94,7.94,7.95,7.95,0,0,1-7.94-7.94" transform="translate(0 0)"/><path class="cls-3" d="M463,204.26a7.94,7.94,0,1,1,7.93,7.94,7.94,7.94,0,0,1-7.93-7.94" transform="translate(0 0)"/><path class="cls-3" d="M432.14,204.26a7.94,7.94,0,1,1,7.94,7.94,7.94,7.94,0,0,1-7.94-7.94" transform="translate(0 0)"/><path class="cls-3" d="M370.41,204.26a7.94,7.94,0,1,1,7.93,7.94,7.94,7.94,0,0,1-7.93-7.94" transform="translate(0 0)"/><path class="cls-3" d="M339.54,204.26a7.94,7.94,0,1,1,7.93,7.94,7.94,7.94,0,0,1-7.93-7.94" transform="translate(0 0)"/><path class="cls-3" d="M308.67,171.54a7.94,7.94,0,1,1,7.94,7.94,7.93,7.93,0,0,1-7.94-7.94" transform="translate(0 0)"/><path class="cls-3" d="M277.8,171.54a7.94,7.94,0,1,1,7.94,7.94,7.94,7.94,0,0,1-7.94-7.94" transform="translate(0 0)"/><path class="cls-3" d="M246.94,171.54a7.94,7.94,0,1,1,7.93,7.94,7.93,7.93,0,0,1-7.93-7.94" transform="translate(0 0)"/><path class="cls-3" d="M216.07,171.54a7.94,7.94,0,1,1,7.94,7.94,7.93,7.93,0,0,1-7.94-7.94" transform="translate(0 0)"/><path class="cls-3" d="M185.2,171.54a7.94,7.94,0,1,1,7.94,7.94,7.94,7.94,0,0,1-7.94-7.94" transform="translate(0 0)"/><path class="cls-3" d="M154.34,171.54a7.94,7.94,0,1,1,7.93,7.94,7.93,7.93,0,0,1-7.93-7.94" transform="translate(0 0)"/><path class="cls-3" d="M123.47,171.54a7.94,7.94,0,1,1,7.94,7.94,7.93,7.93,0,0,1-7.94-7.94" transform="translate(0 0)"/><path class="cls-3" d="M92.6,171.54a7.94,7.94,0,1,1,7.94,7.94,7.93,7.93,0,0,1-7.94-7.94" transform="translate(0 0)"/><path class="cls-3" d="M61.73,171.54a7.94,7.94,0,1,1,7.94,7.94,7.94,7.94,0,0,1-7.94-7.94" transform="translate(0 0)"/><path class="cls-3" d="M30.87,171.54a7.94,7.94,0,1,1,7.93,7.94,7.93,7.93,0,0,1-7.93-7.94" transform="translate(0 0)"/><path class="cls-3" d="M524.74,171.54a7.94,7.94,0,1,1,7.94,7.94,7.93,7.93,0,0,1-7.94-7.94" transform="translate(0 0)"/><path class="cls-3" d="M493.87,171.54a7.94,7.94,0,1,1,7.94,7.94,7.94,7.94,0,0,1-7.94-7.94" transform="translate(0 0)"/><path class="cls-3" d="M463,171.54a7.94,7.94,0,1,1,7.93,7.94,7.93,7.93,0,0,1-7.93-7.94" transform="translate(0 0)"/><path class="cls-3" d="M432.14,171.54a7.94,7.94,0,1,1,7.94,7.94,7.93,7.93,0,0,1-7.94-7.94" transform="translate(0 0)"/><path class="cls-3" d="M401.27,171.54a7.94,7.94,0,1,1,7.94,7.94,7.94,7.94,0,0,1-7.94-7.94" transform="translate(0 0)"/><path class="cls-3" d="M370.41,171.54a7.94,7.94,0,1,1,7.93,7.94,7.93,7.93,0,0,1-7.93-7.94" transform="translate(0 0)"/><path class="cls-3" d="M339.54,171.54a7.94,7.94,0,1,1,7.93,7.94,7.93,7.93,0,0,1-7.93-7.94" transform="translate(0 0)"/><path class="cls-3" d="M308.67,138.83a7.94,7.94,0,1,1,7.94,7.93,7.93,7.93,0,0,1-7.94-7.93" transform="translate(0 0)"/><path class="cls-3" d="M277.8,138.83a7.94,7.94,0,1,1,7.94,7.93,7.94,7.94,0,0,1-7.94-7.93" transform="translate(0 0)"/><path class="cls-3" d="M246.94,138.83a7.94,7.94,0,1,1,7.93,7.93,7.93,7.93,0,0,1-7.93-7.93" transform="translate(0 0)"/><path class="cls-3" d="M216.07,138.83a7.94,7.94,0,1,1,7.94,7.93,7.93,7.93,0,0,1-7.94-7.93" transform="translate(0 0)"/><path class="cls-3" d="M185.2,138.83a7.94,7.94,0,1,1,7.94,7.93,7.94,7.94,0,0,1-7.94-7.93" transform="translate(0 0)"/><path class="cls-3" d="M154.34,138.83a7.94,7.94,0,1,1,7.93,7.93,7.93,7.93,0,0,1-7.93-7.93" transform="translate(0 0)"/><path class="cls-3" d="M123.47,138.83a7.94,7.94,0,1,1,7.94,7.93,7.93,7.93,0,0,1-7.94-7.93" transform="translate(0 0)"/><path class="cls-3" d="M92.6,138.83a7.94,7.94,0,1,1,7.94,7.93,7.93,7.93,0,0,1-7.94-7.93" transform="translate(0 0)"/><path class="cls-3" d="M61.73,138.83a7.94,7.94,0,1,1,7.94,7.93,7.94,7.94,0,0,1-7.94-7.93" transform="translate(0 0)"/><path class="cls-3" d="M30.87,138.83a7.94,7.94,0,1,1,7.93,7.93,7.93,7.93,0,0,1-7.93-7.93" transform="translate(0 0)"/><path class="cls-3" d="M0,138.83a7.94,7.94,0,1,1,7.94,7.93A7.93,7.93,0,0,1,0,138.83" transform="translate(0 0)"/><path class="cls-3" d="M555.61,138.83a7.94,7.94,0,1,1,7.93,7.93,7.93,7.93,0,0,1-7.93-7.93" transform="translate(0 0)"/><path class="cls-3" d="M524.74,138.83a7.94,7.94,0,1,1,7.94,7.93,7.93,7.93,0,0,1-7.94-7.93" transform="translate(0 0)"/><path class="cls-3" d="M493.87,138.83a7.94,7.94,0,1,1,7.94,7.93,7.94,7.94,0,0,1-7.94-7.93" transform="translate(0 0)"/><path class="cls-3" d="M463,138.83a7.94,7.94,0,1,1,7.93,7.93,7.93,7.93,0,0,1-7.93-7.93" transform="translate(0 0)"/><path class="cls-3" d="M432.14,138.83a7.94,7.94,0,1,1,7.94,7.93,7.93,7.93,0,0,1-7.94-7.93" transform="translate(0 0)"/><path class="cls-3" d="M401.27,138.83a7.94,7.94,0,1,1,7.94,7.93,7.94,7.94,0,0,1-7.94-7.93" transform="translate(0 0)"/><path class="cls-3" d="M370.41,138.83a7.94,7.94,0,1,1,7.93,7.93,7.93,7.93,0,0,1-7.93-7.93" transform="translate(0 0)"/><path class="cls-3" d="M339.54,138.83a7.94,7.94,0,1,1,7.93,7.93,7.93,7.93,0,0,1-7.93-7.93" transform="translate(0 0)"/></g></g></g></svg>