<?xml version="1.0" encoding="UTF-8"?>
<svg id="Calque_1" data-name="Calque 1" xmlns="http://www.w3.org/2000/svg" viewBox="0 0 1300 1300">
  <defs>
    <style>
      .cls-1 {
        fill: #f1b927;
      }
    </style>
  </defs>
  <g>
    <path d="M261.08,732.69s106.15-62.58,204.79-55.96c98.64,6.62,168.14,48.18,274.13,29.27,105.99-18.9,247-80.99,247-80.99,0,0-36.39,18.05-85,38.99-27.27,10.11-55.81,20.03-87,30-32.43,9.74-71.09,20.33-112,23-30.09,1.71-53.71,2.18-108-12-18.39-5.33-51.85-11.28-85.72-17.72,0,0-22.56-5.02-42.13-6.28-25.16-1.62-114.24,.08-206.07,51.69Z"/>
    <path class="cls-1" d="M261.31,732.79s105.63-67.02,204.28-60.4c98.64,6.62,168.42,47.51,274.41,28.61,105.99-18.9,246.6-76.03,246.6-76.03,0,0-30.6,14.03-81.6,34.03-27.27,10.11-54.81,18.03-86,28-32.43,9.74-76.09,21.33-117,24-30,2-50,1-108-11-18.39-5.33-51.13-10.62-85-17.06,0,0-22.56-5.02-42.13-6.28-25.16-1.62-113.73,4.52-205.56,56.13Z"/>
  </g>
  <g>
    <path d="M327.85,562.37c0,4.8,2.31,8.72,5.69,10.67-7.83,0-14.76-7.47-14.76-16.01,0-26.86,54.07-52.29,102.81-52.47,47.85-.18,78.26,19.92,77.37,53.01-1.42,60.3-115.08,129.31-206.86,129.31-10.67,0-31.31-2.67-31.31-18.68,0-19.74,37.53-47.49,75.42-60.83,0,.18-.36,.36-1.07,.89-28.82,13.34-66.35,39.67-66.35,58.16,0,7.65,12.27,8.89,19.39,8.89,79.33,0,200.11-70.26,200.11-128.96,0-22.77-27.57-35.57-53.72-35.93-52.47-.71-106.72,34.33-106.72,51.94Zm32.73,72.75c3.02,0,6.05-.53,10.32-2.67-.71,2.49-8.72,7.83-12.27,7.83-2.31,0-4.98-1.78-4.98-5.34,0-12.63,33.44-63.14,58.34-90.54,3.91-4.45,16.01-17.61,23.12-17.61,1.25,0,2.85,.36,4.09,.89,8,2.85,12.1,10.85,9.43,8.72-2.85-1.6-6.76,.36-11.21,3.91-3.02,2.49-6.23,5.69-13.34,13.16-25.79,27.04-63.5,73.99-63.5,81.64Z"/>
    <path d="M479.04,651.13c-2.85-.89-7.29-5.34-7.29-8.54,0-10.32,25.79-49.09,37.18-58.16,.89-.89,1.96-1.07,2.67-1.07,4.09,0,11.21,7.11,11.21,11.56,0,.71-.89-.18-2.31-.36-7.29-.71-31.66,39.84-33.8,47.14,10.85-2.85,36.82-27.57,47.67-38.06,1.25-.89,2.13,.53,1.6,1.07-15.48,16.72-43.76,45.71-54.78,46.6-.71,0-1.25,0-2.13-.18Zm59.41-89.29c1.6,1.78,2.67,4.45,1.96,4.45-.36,0-1.78-.71-3.74,.18-3.02,1.25-11.21,8.54-13.34,11.56-2.49,3.2-6.23-.53-6.4-3.74-.18-5.16,6.58-16.72,11.21-18.14,4.09-.53,8,3.02,10.32,5.69Z"/>
    <path d="M577.76,635.12c3.91-1.42,7.83-2.85,11.74-4.09,2.85-.89,5.69-.36,3.2,.53-5.69,2.31-11.38,4.8-16.9,7.11-22.77,39.67-52.12,84.31-86.27,93.38-1.96,.53-3.91,.71-5.87,.71-6.58,0-12.1-3.02-12.1-10.49,0-1.96,.36-4.27,1.25-6.94,7.11-22.59,42.16-51.41,83.07-70.97,3.91-6.76,18.85-33.62,18.85-33.62,.18-.18-4.27,3.02-7.65,6.05-2.67,2.49-12.45,11.21-22.41,19.03-10.14,7.83-20.63,15.47-24.37,15.47-.36,0-1.25-.18-1.78-.53-3.2-1.96-7.65-8.36-7.65-11.92,0-19.39,40.91-59.05,73.46-59.05,6.94,0,15.83,2.85,15.83,11.21,0,3.02-1.78,6.05-3.38,8.36-.36,.18-.53,0-.36-.18,.71-1.6,1.78-3.74,1.78-6.4,0-5.34-3.38-8-8.72-7.65-10.32,.53-23.12,8-34.86,17.79-16.9,14.41-29.88,36.29-28.1,37.71,.71,.71,7.83-3.91,15.65-9.07,8.54-5.69,16.9-12.27,22.77-17.25,12.27-10.32,14.94-12.98,17.96-14.41,3.38-1.6,10.85,8,10.14,10.14-.53-.53-1.42-1.07-4.45,4.98l-10.85,20.1Zm-25.08,14.76c-32.37,17.08-57.1,37.35-69.55,60.48-1.96,3.56-2.85,6.05-2.85,7.83,0,2.49,1.6,3.38,3.91,3.38,2.49,0,5.51-1.07,8.36-2.49,20.81-11.21,41.98-39.84,60.12-69.19Z"/>
    <path d="M802.58,554.19c1.42,.36,2.13,.71,0,.53-38.24-3.38-73.28-3.02-104.94,2.67-6.05,7.83-11.92,16.54-18.68,26.5-15.65,23.48-28.99,46.07-33.26,57.45,7.83,.89,37.35-28.1,47.67-37.71,1.07-.89,1.96,.53,1.25,1.07-8.72,9.96-39.49,42.33-50.34,46.25-2.13,.89-3.91,.18-5.69-.71-1.42-.71-5.34-4.45-6.4-7.11-.18-.36-.53-.71-.53-2.67,0-3.2,3.02-10.67,9.96-23.3-15.48,15.83-34.51,33.44-43.04,34.15-.71,0-1.25,0-2.13-.18-2.85-.89-7.29-5.34-7.29-8.54,0-10.32,25.79-49.09,37.18-58.16,.89-.89,1.96-1.07,2.67-1.07,4.09,0,11.21,7.11,11.21,11.56,0,.71-.89-.18-2.31-.36-7.29-.71-31.66,39.84-33.8,47.14,9.25-2.31,29.35-20.81,42.16-32.55,3.91-7.11,9.07-15.47,15.3-25.26l13.52-20.1c-1.25-.71-2.31-1.78-3.38-3.02-4.98-5.51,1.6-8.54,13.16-10.49l8.36-11.21c5.34-6.94,10.5-12.63,14.94-16.19,2.49-2.13,4.8-3.56,6.58-3.56,9.78-.53,17.08,9.78,13.7,7.83-5.87-2.67-16.36,11.56-24.55,22.06,29.35-1.96,70.97-.71,98.72,4.98Zm-146.74,7.65c1.6,1.78,2.67,4.45,1.96,4.45-.36,0-1.78-.71-3.73,.18-3.02,1.25-11.21,8.54-13.34,11.56-2.49,3.2-6.23-.53-6.4-3.74-.18-5.16,6.58-16.72,11.21-18.14,4.09-.53,8,3.02,10.32,5.69Z"/>
    <path d="M686.43,640.1c-.18,2.13,1.42,3.38,5.34,3.38,12.98,0,45.54-24.72,63.5-39.67,.53-.36,1.78,.53,1.25,1.07-13.34,12.45-48.74,46.42-72.39,46.42-5.51,0-12.63-6.4-12.63-11.21,0-4.27,1.07-7.83,2.49-11.74,4.27-10.14,13.34-21.34,24.55-30.77,14.76-12.27,30.59-17.79,38.24-17.79,2.67,0,10.85,4.09,10.85,9.07,0,11.03-34.15,36.64-54.07,37.18-3.2,3.74-6.58,9.43-7.11,14.05Zm9.43-17.61c15.47-1.78,45-30.59,46.07-37.35-19.74,6.4-40.2,27.93-46.07,37.35Z"/>
    <path d="M796.35,539.07c5.34-6.94,10.32-12.63,14.76-16.19,2.67-2.13,4.98-3.56,6.58-3.56,9.96-.53,17.08,9.78,13.7,7.83-6.23-2.85-17.79,13.87-25.61,23.48-7.65,9.78-14.94,20.28-23.83,33.26-15.48,23.48-28.82,46.07-33.08,57.45,7.65,.89,37.18-28.1,47.67-37.71,1.07-.89,1.78,.53,1.25,1.07-8.72,9.96-39.67,42.33-50.34,46.25-2.31,.89-4.09,.18-5.69-.71-1.42-.71-5.34-4.45-6.4-7.11-.18-.36-.53-.71-.53-2.67,0-5.34,8.18-22.59,29.88-56.56,11.03-17.25,22.41-32.73,31.66-44.82Z"/>
    <path d="M782.3,651.13c-2.85-.89-7.29-5.34-7.29-8.54,0-10.32,25.79-49.09,37.18-58.16,.89-.89,1.96-1.07,2.67-1.07,4.09,0,11.21,7.11,11.21,11.56,0,.71-.89-.18-2.31-.36-7.29-.71-31.66,39.84-33.8,47.14,10.85-2.85,36.82-27.57,47.67-38.06,1.25-.89,2.13,.53,1.6,1.07-15.47,16.72-43.76,45.71-54.78,46.6-.71,0-1.25,0-2.13-.18Zm59.41-89.29c1.6,1.78,2.67,4.45,1.96,4.45-.36,0-1.78-.71-3.73,.18-3.02,1.25-11.21,8.54-13.34,11.56-2.49,3.2-6.23-.53-6.4-3.74-.18-5.16,6.58-16.72,11.21-18.14,4.09-.53,8,3.02,10.32,5.69Z"/>
    <path d="M891.16,582.83c-32.19,0-69.37,59.94-59.41,64.21,9.96,4.09,35.4-24.37,47.31-42.51-.89-1.6-2.67-6.94-1.96-8.72,.53-1.78,5.87-7.11,8.18-7.29,1.78-.18,3.74,1.25,4.09,1.78,3.38,5.51,7.65,9.6,14.76,9.07,11.92-1.07,18.5-8,20.46-7.83-.89,2.49-8,8.36-16.72,11.21-3.91,1.25-7.65,1.6-10.5,1.6-2.67,0-4.45-.36-5.34-.71-4.8,23.66-41.62,49.27-60.48,48.2-8.18-.53-13.52-7.29-13.52-14.05,0-28.99,38.95-57.99,67.06-57.99,6.76,0,9.6,1.96,10.85,3.02,.89,.53,.36,.53-.36,.53-1.78-.18-3.2-.53-4.45-.53Z"/>
    <path d="M926.19,581.05c1.07-.71,1.78-.89,2.49-.89,4.27,0,11.03,6.94,11.03,11.38,0,.71-.53-.18-1.96-.36-2.67-.18-8.89,6.76-14.23,13.87-4.8,6.4-11.03,14.76-14.76,21.34,9.43-12.27,27.21-27.21,42.51-38.24,6.94-4.98,12.27-8,16.01-8.36,1.96-.18,9.25,7.47,8,8.89-3.91,4.09-18.68,17.08-24.55,30.95,8.54-.71,20.81-8.72,31.84-18.5,.18-.18,1.25-.36,1.42,0-3.2,4.27-24.55,24.19-36.82,24.19-3.2,0-8.54-6.23-8.54-8.36,0-4.98,5.69-15.3,10.32-20.63-16.36,9.6-24.72,16.72-36.82,30.06-9.07,9.78-19.74,25.44-15.83,27.21-5.16,1.25-9.43-4.27-10.67-9.25-.36-1.6,.53-4.98,2.67-9.07,4.45-10.14,12.45-22.41,19.57-32.55,6.23-9.07,13.87-18.14,18.32-21.7Z"/>
  </g>
</svg>