<svg width="350" height="333" viewBox="0 0 350 333" fill="none" xmlns="http://www.w3.org/2000/svg">
<g clip-path="url(#clip0_31_3)">
<path d="M137.218 166.789C137.249 171.545 131.863 172.767 128.429 170.737C126.925 169.815 126.524 168.103 126.475 166.559C126.451 165.787 126.522 164.963 127.08 164.11" fill="#FBBE4B"/>
<path d="M163.153 193.129C161.11 194.137 159.222 193.729 157.466 192.282C155.783 190.855 155.362 189.215 155.921 187.214" fill="#FBBE4B"/>
<path d="M141.696 172.533C143.95 174.491 144.092 177.131 142.028 179.359C139.944 181.658 137.164 181.864 134.706 179.777C132.302 177.782 132.215 175.232 134.359 172.718C135.296 171.657 136.318 171.153 137.727 170.979" fill="#FBBE4B"/>
<path d="M148.191 181.937C150.466 183.822 150.608 186.463 148.598 188.781C146.494 191.152 143.735 191.286 141.276 189.2C138.873 187.204 138.731 184.563 140.909 182.212C142.919 179.894 145.678 179.76 148.191 181.937Z" fill="#FBBE4B"/>
<path d="M170.13 194.231C172.424 196.045 172.521 199.134 170.666 201.185C168.906 203.184 165.598 203.561 163.344 201.604C161.219 199.756 160.898 196.61 162.977 194.616" fill="#FBBE4B"/>
<path d="M125.477 168.984C127.567 170.669 127.982 173.763 125.993 176.009C124.138 178.061 120.851 178.366 118.691 176.356C116.511 174.418 116.389 171.706 118.189 169.564C120.124 167.227 123.461 167.317 125.477 168.984Z" fill="#FBBE4B"/>
<path d="M187.005 204.306C185.15 206.358 181.863 206.663 179.703 204.653C177.523 202.715 177.401 200.003 179.201 197.861" fill="#FBBE4B"/>
<path d="M147.037 191.214C149.041 189.201 152.234 188.948 154.339 190.867C156.573 192.896 156.561 195.803 154.611 197.907C152.796 199.816 149.549 199.978 147.479 198.221C145.334 196.445 144.993 193.37 147.037 191.214Z" fill="#FBBE4B"/>
<path d="M111.694 160.161C113.454 158.162 116.687 157.766 119.036 159.671C121.181 161.447 121.501 164.593 119.403 166.659C117.378 168.743 114.544 168.858 112.305 167.135C109.861 165.282 109.954 162.089 111.694 160.161Z" fill="#FBBE4B"/>
<path d="M112.48 150.482C114.714 152.511 114.707 155.113 112.887 157.327C111.201 159.345 107.894 159.722 105.545 157.817C103.42 155.97 103.154 152.914 105.178 150.83C107.222 148.673 110.395 148.492 112.48 150.482Z" fill="#FBBE4B"/>
<path d="M107.143 147.811C105.208 150.148 101.871 150.057 99.8556 148.391C97.7653 146.706 97.3698 143.541 99.3393 141.365" fill="#FBBE4B"/>
<path d="M239.303 198.504C237.677 200.308 233.976 200.66 232.145 199.195L239.303 198.504Z" fill="#FBBE4B"/>
<path d="M125.261 185.779C123.321 184.132 123.12 180.557 124.915 178.72C126.52 176.987 130.256 176.797 132.122 178.425C134.063 180.072 134.264 183.647 132.469 185.484C130.883 187.145 127.148 187.335 125.261 185.779Z" fill="#FBBE4B"/>
<path d="M100.667 138.336C99.0015 140.283 95.2805 140.707 93.3196 139.131C91.4334 137.575 90.9685 134.085 92.5193 132.262" fill="#FBBE4B"/>
<path d="M228.794 197.722C230.72 199.135 231.125 202.839 229.555 204.734C228.098 206.505 224.323 206.838 222.397 205.424C220.47 204.011 220.065 200.307 221.636 198.412" fill="#FBBE4B"/>
<path d="M169.453 204.091C170.984 202.339 174.665 202.058 176.591 203.472C178.497 204.957 178.902 208.66 177.257 210.536C175.726 212.288 172.045 212.568 170.119 211.155C168.213 209.67 167.828 205.895 169.453 204.091Z" fill="#FBBE4B"/>
<path d="M131.12 195.171C129.234 193.615 129.018 189.807 130.698 188.093C132.378 186.38 136.114 186.19 137.851 187.708C139.737 189.264 139.953 193.073 138.272 194.786C136.667 196.518 132.931 196.709 131.12 195.171Z" fill="#FBBE4B"/>
<path d="M154.069 207.572C152.183 206.015 151.968 202.207 153.648 200.494C155.328 198.78 158.989 198.571 160.8 200.108C162.687 201.665 162.902 205.473 161.222 207.186C159.542 208.9 155.806 209.09 154.069 207.572Z" fill="#FBBE4B"/>
<path d="M194.59 210.389C194.364 211.48 194.209 212.895 193.466 213.547C192.534 214.304 191.338 215.146 189.818 215.139C188.469 215.099 187.394 214.363 186.199 214.056C185.826 212.812 184.492 211.857 184.817 210.408C185.043 209.317 185.512 208.212 185.792 207.212" fill="#FBBE4B"/>
<path d="M144.57 203.755C142.486 206.054 140.458 206.146 138 204.06C135.671 202.084 135.573 200.144 137.772 197.721C139.721 195.617 141.843 195.473 144.192 197.377C146.501 199.425 146.654 201.456 144.57 203.755Z" fill="#FBBE4B"/>
<path d="M109.053 166.453C111.327 168.339 111.33 170.331 109.131 172.754C107.182 174.858 105.1 174.86 102.696 172.864C100.367 170.888 100.269 168.948 102.468 166.525C104.418 164.421 106.52 164.348 109.053 166.453Z" fill="#FBBE4B"/>
<path d="M109.267 182.286C106.863 180.291 106.765 178.351 108.944 176C111.008 173.772 113.035 173.68 115.569 175.785C117.768 177.652 117.921 179.682 115.857 181.91C113.773 184.209 111.745 184.301 109.267 182.286Z" fill="#FBBE4B"/>
<path d="M218.423 204.175C220.772 206.08 220.999 208.129 219.03 210.305C216.906 212.747 214.784 212.891 212.435 210.986C209.956 208.971 209.709 206.993 211.793 204.694" fill="#FBBE4B"/>
<path d="M96.6337 163.342C94.2299 161.347 94.0775 159.316 96.0869 156.998C98.171 154.699 100.293 154.554 102.677 156.621C105.026 158.526 105.178 160.557 103.209 162.732C101.01 165.155 98.9628 165.319 96.6337 163.342Z" fill="#FBBE4B"/>
<path d="M121.89 190.964C121.47 192.465 119.876 192.439 118.86 192.637C117.694 192.798 116.41 192.238 115.3 191.341C114.19 190.443 113.798 189.27 113.759 188.264C113.685 187.097 114.1 185.901 115.187 184.878C116.179 183.907 117.33 183.513 118.401 183.405C119.471 183.297 120.681 183.837 121.736 184.644C122.846 185.542 123.333 186.662 123.372 187.668C123.466 188.764 123.365 190.27 121.89 190.964Z" fill="#FBBE4B"/>
<path d="M96.4091 153.558C95.9893 155.058 94.3955 155.032 93.3793 155.231C92.2136 155.391 90.9292 154.832 89.8193 153.934C88.7095 153.037 88.3171 151.864 88.2782 150.858C88.2046 149.69 88.6938 148.514 89.7059 147.471C90.698 146.5 91.8489 146.107 92.9199 145.998C93.9908 145.89 95.2006 146.431 96.2558 147.238C97.3856 148.064 97.8526 149.256 97.8915 150.262C97.9104 151.339 97.8841 152.864 96.4091 153.558Z" fill="#FBBE4B"/>
<path d="M265.821 192.136C265.915 193.233 265.888 194.758 264.339 195.432C263.919 196.933 262.325 196.907 261.309 197.106C260.143 197.266 258.859 196.707 257.749 195.809C256.639 194.911 256.247 193.738 256.208 192.733" fill="#FBBE4B"/>
<path d="M161.004 216.551C159.455 216.077 159.238 214.566 159.144 213.47C159.03 212.445 159.52 211.268 160.362 210.259C161.3 209.198 162.451 208.804 163.521 208.696C164.762 208.554 165.972 209.095 167.101 209.921C168.306 210.766 168.604 211.991 168.737 212.945C168.776 213.951 168.606 215.132 167.594 216.175C166.696 217.093 165.615 217.811 164.489 217.829C163.289 217.827 161.73 217.963 161.004 216.551Z" fill="#FBBE4B"/>
<path d="M208.934 210.624C210.308 211.436 210.042 212.67 210.285 213.805C210.563 215.102 209.95 215.863 209.202 216.82C208.319 217.972 207.228 218.152 205.933 218.202C204.001 218.243 203.981 218.314 202.428 216.996C201.123 216.508 201.334 215.184 201.111 213.978C200.853 212.609 201.561 211.795 202.254 210.748" fill="#FBBE4B"/>
<path d="M121.985 200.639C120.099 199.083 119.962 196.137 121.662 194.352C123.268 192.62 126.346 192.491 128.287 194.138C130.024 195.656 130.18 198.53 128.575 200.263C126.95 202.067 123.926 202.286 121.985 200.639Z" fill="#FBBE4B"/>
<path d="M248.354 202.206C246.393 200.63 246.162 197.737 247.787 195.933C249.318 194.181 252.362 193.89 254.213 195.285C256.174 196.86 256.555 199.792 255.024 201.543C253.284 203.471 250.241 203.762 248.354 202.206Z" fill="#FBBE4B"/>
<path d="M176.849 220.005C174.963 218.449 174.752 215.484 176.452 213.699C178.077 211.895 181.155 211.766 183.022 213.394C184.758 214.912 184.915 217.786 183.384 219.538C181.834 221.361 178.735 221.562 176.849 220.005Z" fill="#FBBE4B"/>
<path d="M238.039 202.163C239.664 200.359 242.763 200.158 244.649 201.715C246.535 203.271 246.672 206.217 244.972 208.001C243.386 209.662 240.363 209.882 238.531 208.416C236.645 206.86 236.414 203.967 238.039 202.163Z" fill="#FBBE4B"/>
<path d="M144.645 213.502C142.759 211.945 142.548 208.98 144.173 207.176C145.798 205.372 148.877 205.243 150.743 206.871C152.48 208.389 152.711 211.283 151.18 213.034C149.555 214.838 146.531 215.058 144.645 213.502Z" fill="#FBBE4B"/>
<path d="M193.133 223.036C191.247 221.48 191.11 218.534 192.811 216.749C194.436 214.945 197.494 214.887 199.435 216.535C201.172 218.053 201.329 220.927 199.798 222.678C198.098 224.463 195.094 224.612 193.133 223.036Z" fill="#FBBE4B"/>
<path d="M228.247 207.692C229.872 205.888 232.97 205.687 234.857 207.243C236.743 208.8 236.88 211.745 235.179 213.53C233.594 215.191 230.57 215.411 228.739 213.945C226.833 212.46 226.601 209.567 228.247 207.692Z" fill="#FBBE4B"/>
<path d="M83.7662 144.951C81.88 143.395 81.6687 140.43 83.3688 138.645C84.9942 136.841 88.0724 136.712 90.0133 138.359C91.7501 139.877 91.9068 142.751 90.3761 144.503C88.7506 146.307 85.7271 146.527 83.7662 144.951Z" fill="#FBBE4B"/>
<path d="M128.232 210.361C126.345 208.805 126.209 205.859 127.909 204.074C129.514 202.342 132.592 202.213 134.533 203.86C136.27 205.378 136.427 208.252 134.821 209.985C133.196 211.789 130.098 211.989 128.232 210.361Z" fill="#FBBE4B"/>
<path d="M151.29 222.943C149.295 221.205 149.103 218.169 150.784 216.456C152.464 214.742 155.731 214.509 157.333 216.222C158.144 217.043 158.821 218.059 158.78 219.351C158.779 220.499 158.404 221.552 157.621 222.347C156.819 223.213 155.777 223.788 154.482 223.839C153.167 223.961 152.241 223.264 151.29 222.943Z" fill="#FBBE4B"/>
<path d="M84.8398 131.67C85.0975 133.038 84.2548 134.047 83.8403 135.243C82.7241 135.799 81.9214 136.665 80.5716 136.625C79.69 136.629 77.768 136.059 77.1757 135.6C75.4389 134.082 75.1876 131.26 76.6436 129.49" fill="#FBBE4B"/>
<path d="M92.9293 172.578C94.3054 171.093 98.1158 170.923 99.4991 172.273C100.957 173.643 101.138 177.289 99.7272 178.612C98.3164 179.935 94.7501 180.092 93.3067 178.956C91.754 177.638 91.5532 174.064 92.9293 172.578Z" fill="#FBBE4B"/>
<path d="M99.7028 188.716C98.11 187.542 97.7598 183.929 99.0612 182.424C100.248 181.044 103.8 180.653 105.487 181.776C107.1 182.879 107.545 186.44 106.298 188.035C105.071 189.558 101.295 189.891 99.7028 188.716Z" fill="#FBBE4B"/>
<path d="M219.045 220.266C217.473 219.019 217.177 215.497 218.479 213.993C219.76 212.56 223.292 212.241 224.884 213.416C226.497 214.519 226.847 218.132 225.601 219.727C224.394 221.179 220.618 221.512 219.045 220.266Z" fill="#FBBE4B"/>
<path d="M166.704 219.929C168.08 218.444 171.89 218.273 173.273 219.624C174.731 220.994 174.912 224.64 173.501 225.963C172.091 227.286 168.524 227.443 167.081 226.306C165.603 225.008 165.327 221.414 166.704 219.929Z" fill="#FBBE4B"/>
<path d="M93.4209 169.105C92.3993 169.609 91.3725 170.417 90.2469 170.435C89.1759 170.543 87.7568 170.179 86.9057 169.501C86.0547 168.823 85.4382 167.592 85.3446 166.496C85.2311 165.471 85.6856 164.132 86.3936 163.318C87.0069 162.557 88.2925 161.968 89.2688 161.912C90.4144 161.823 91.7789 162.096 92.63 162.774C93.481 163.452 94.0975 164.683 94.211 165.708C94.3793 166.823 93.7407 167.961 93.4209 169.105Z" fill="#FBBE4B"/>
<path d="M134.33 213.458C135.426 212.974 136.528 212.184 137.654 212.167C138.779 212.149 140.124 212.494 140.955 213.244C141.731 213.903 142.328 215.205 142.346 216.282C142.365 217.359 141.931 218.626 141.148 219.421C140.385 220.144 139.045 220.643 137.899 220.732C136.848 220.768 135.599 220.371 134.822 219.712C133.991 218.963 133.45 217.751 133.336 216.727C133.317 215.649 134.03 214.53 134.33 213.458Z" fill="#FBBE4B"/>
<path d="M105.209 191.355C106.305 190.871 107.407 190.081 108.458 190.044C109.583 190.027 110.928 190.372 111.779 191.05C112.63 191.728 113.152 193.011 113.245 194.107C113.264 195.184 112.83 196.451 112.122 197.265C111.508 198.027 110.243 198.545 109.192 198.581C108.066 198.599 106.702 198.325 105.85 197.647C104.999 196.969 104.383 195.739 104.289 194.642C104.27 193.565 104.909 192.427 105.209 191.355Z" fill="#FBBE4B"/>
<path d="M183.365 229.337C182.858 228.288 182.107 227.252 181.993 226.228C181.975 225.15 182.334 223.864 183.117 223.069C183.805 222.327 185.165 221.757 186.291 221.739C187.417 221.722 188.741 222.138 189.592 222.816C190.369 223.475 190.91 224.687 190.969 225.621C190.988 226.698 190.683 228.075 189.92 228.798C189.158 229.522 188.036 230.383 186.781 230.29C185.695 230.165 184.54 229.715 183.365 229.337Z" fill="#FBBE4B"/>
<path d="M209.308 220.447C209.777 219.342 210.828 219.306 211.994 219.145C213.423 218.899 214.18 219.63 215.106 220.327C216.106 221.043 216.26 221.925 216.523 222.988C216.855 224.376 215.868 225.041 215.215 225.946C214.522 226.994 213.545 227.049 212.38 227.21C211.139 227.351 210.343 226.764 209.472 226.157C208.546 225.46 208.129 224.663 207.98 223.477C207.797 222.127 208.281 221.256 209.308 220.447Z" fill="#FBBE4B"/>
<path d="M157.523 231.283C156.368 230.833 156.329 229.828 156.161 228.712C155.903 227.344 156.666 226.62 157.394 225.735C158.142 224.778 159.064 224.632 160.174 224.381C161.624 224.063 162.321 225.008 163.266 225.634C164.287 226.279 164.42 227.232 164.589 228.348C164.737 229.534 164.124 230.296 163.49 231.129C162.762 232.015 161.93 232.414 160.69 232.555C159.355 232.749 158.444 232.285 157.523 231.283Z" fill="#FBBE4B"/>
<path d="M118.968 210.281C119.437 209.176 120.488 209.14 121.654 208.979C123.083 208.734 123.84 209.464 124.765 210.161C125.766 210.877 125.919 211.759 126.182 212.822C126.515 214.21 125.528 214.876 124.875 215.78C124.181 216.828 123.205 216.884 122.039 217.044C120.799 217.185 120.003 216.598 119.132 215.991C118.206 215.294 117.788 214.498 117.64 213.311C117.532 211.981 117.941 211.09 118.968 210.281Z" fill="#FBBE4B"/>
<path d="M118.439 206.163C117.84 207.158 117.008 207.557 115.768 207.698C114.453 207.82 113.521 207.428 112.616 206.66C111.71 205.891 111.272 205.166 111.104 204.051C110.921 202.702 111.534 201.94 112.262 201.054C112.99 200.169 113.823 199.77 115.043 199.7C116.263 199.63 117.14 199.932 117.971 200.681C118.876 201.45 119.538 202.232 119.572 203.543C119.611 204.549 119.425 205.497 118.439 206.163Z" fill="#FBBE4B"/>
<path d="M86.3674 159.405C85.7687 160.401 84.9366 160.8 83.6962 160.941C82.3812 161.063 81.4502 160.671 80.5444 159.902C79.6387 159.134 79.2011 158.409 79.0328 157.293C78.8498 155.944 79.4631 155.182 80.1911 154.297C80.9192 153.412 81.7513 153.012 82.9717 152.943C84.192 152.873 85.0683 153.174 85.8994 153.924C86.8051 154.692 87.4668 155.475 87.5005 156.786C87.5394 157.791 87.3542 158.74 86.3674 159.405Z" fill="#FBBE4B"/>
<path d="M289.977 192.209C288.352 194.013 285.986 194.172 284.08 192.687L289.977 192.209Z" fill="#FBBE4B"/>
<path d="M147.152 228.008C145.526 229.812 143.16 229.971 141.294 228.343C139.408 226.787 139.315 224.542 141.015 222.757C142.601 221.096 144.892 220.918 146.724 222.384C148.61 223.94 148.777 226.204 147.152 228.008Z" fill="#FBBE4B"/>
<path d="M73.9888 145.276C75.6142 143.472 77.9602 143.384 79.8464 144.941C81.6579 146.478 81.8251 148.742 80.105 150.598C78.5943 152.279 76.2483 152.366 74.4168 150.9C72.5306 149.344 72.3634 147.08 73.9888 145.276Z" fill="#FBBE4B"/>
<path d="M173.179 229.404C174.805 227.6 177.076 227.493 179.097 228.854C180.69 230.029 181.09 232.889 179.734 234.303C178.034 236.088 175.703 236.408 173.871 234.943C171.796 233.491 171.554 231.208 173.179 229.404Z" fill="#FBBE4B"/>
<path d="M235.255 223.277C233.369 221.721 233.276 219.476 234.976 217.691C236.582 215.958 238.928 215.871 240.869 217.518C242.551 218.945 242.698 221.281 241.112 222.942C239.507 224.675 237.066 224.814 235.255 223.277Z" fill="#FBBE4B"/>
<path d="M244.65 211.442C246.275 209.638 248.621 209.551 250.487 211.179C252.299 212.716 252.391 214.961 250.671 216.817C249.181 218.426 246.74 218.565 245.003 217.047C243.192 215.51 243.024 213.246 244.65 211.442Z" fill="#FBBE4B"/>
<path d="M125.025 220.108C126.65 218.304 129.016 218.145 130.882 219.773C132.769 221.33 132.861 223.575 131.161 225.359C129.576 227.021 127.284 227.198 125.453 225.733C123.567 224.176 123.399 221.912 125.025 220.108Z" fill="#FBBE4B"/>
<path d="M255.159 211.076C253.273 209.519 253.106 207.255 254.806 205.47C256.431 203.666 258.777 203.579 260.644 205.207C262.38 206.725 262.568 208.918 261.037 210.669C259.411 212.473 257.045 212.632 255.159 211.076Z" fill="#FBBE4B"/>
<path d="M199.724 232.387C197.912 230.849 197.82 228.605 199.465 226.729C201.071 224.997 203.397 224.981 205.358 226.556C206.93 227.803 207.012 230.657 205.581 232.052C203.827 233.746 201.61 233.943 199.724 232.387Z" fill="#FBBE4B"/>
<path d="M264.46 199.293C266.085 197.489 268.471 197.259 270.357 198.815C272.189 200.281 272.431 202.564 270.92 204.245C269.274 206.12 266.963 206.369 265.057 204.884C263.076 203.38 262.834 201.097 264.46 199.293Z" fill="#FBBE4B"/>
<path d="M279.761 192.957C281.648 194.513 281.74 196.758 280.04 198.543C278.454 200.204 276.163 200.382 274.332 198.916C272.445 197.36 272.278 195.096 273.829 193.272" fill="#FBBE4B"/>
<path d="M95.5349 187.876C97.217 189.304 97.2442 192.068 95.6788 193.658C94.4374 194.948 91.5685 194.901 89.9558 193.797C88.8807 193.062 88.8071 191.894 88.7082 191.103C88.6493 190.169 88.7998 189.058 89.7172 188.068C90.6146 187.15 91.7897 187.528 92.5524 186.805C93.5928 187.378 95.0678 186.684 95.5349 187.876Z" fill="#FBBE4B"/>
<path d="M68.2449 141.197C66.6174 139.86 66.3461 137.11 67.7222 135.625C69.0236 134.121 71.783 133.987 73.4157 135.018C74.5655 135.773 74.8832 136.927 74.9421 137.861C75.021 138.724 75.1146 139.82 74.1425 140.72C72.637 142.095 69.8176 142.443 68.2449 141.197Z" fill="#FBBE4B"/>
<path d="M189.817 238.039C189.364 237.081 188.688 236.065 188.629 235.13C188.57 234.196 189.114 233.11 189.707 232.42C190.376 231.749 191.532 231.05 192.393 231.118C193.404 231.224 194.774 231.193 195.47 232.138C196.057 232.901 196.809 233.936 196.738 234.761C196.648 235.657 196.592 236.715 195.789 237.581C194.986 238.447 193.801 238.679 192.784 238.878C191.918 239.115 190.842 238.379 189.817 238.039Z" fill="#FBBE4B"/>
<path d="M83.8081 184.867C83.3557 183.908 82.49 182.996 82.5805 182.101C82.6163 181.114 82.6573 179.823 83.6441 179.157C84.4416 178.595 85.5231 177.877 86.3847 177.945C87.3957 178.052 88.7654 178.02 89.4618 178.965C90.0488 179.728 90.7999 180.763 90.7294 181.588C90.6389 182.484 90.4884 183.594 89.7804 184.408C88.9777 185.274 87.792 185.506 86.7758 185.705C85.9089 185.942 84.8338 185.206 83.8081 184.867Z" fill="#FBBE4B"/>
<path d="M96.1822 203.591C95.7298 202.632 95.0534 201.616 94.9945 200.682C94.9357 199.748 95.4796 198.662 96.073 197.972C96.741 197.3 97.8972 196.602 98.7588 196.669C99.7698 196.776 101.139 196.744 101.836 197.689C102.423 198.452 103.174 199.488 103.103 200.312C103.013 201.208 102.957 202.266 102.154 203.132C101.352 203.999 100.166 204.23 99.1499 204.429C98.283 204.666 97.2079 203.931 96.1822 203.591Z" fill="#FBBE4B"/>
<path d="M225.253 223.544C226.35 223.059 227.376 222.251 228.313 222.338C229.249 222.425 230.544 222.374 231.166 223.3C231.733 224.135 232.449 225.008 232.528 225.871C232.587 226.805 232.063 227.819 231.674 228.638C231.13 229.724 229.74 229.827 228.778 230.117C227.932 230.282 226.702 229.813 225.905 229.226C225.184 228.658 224.527 227.57 224.374 226.688C224.335 225.683 224.954 224.616 225.253 223.544Z" fill="#FBBE4B"/>
<path d="M169.309 235.227C170.658 236.415 170.884 239.614 169.662 240.832C168.421 242.122 165.024 242.246 163.825 241.096C162.516 239.764 162.414 236.98 163.506 235.652C164.429 234.357 168.11 234.077 169.309 235.227Z" fill="#FBBE4B"/>
<path d="M102.942 212.908C101.718 212.135 101.253 208.645 102.44 207.265C103.566 206.099 106.779 205.774 108.113 206.73C109.522 207.704 109.897 210.94 108.785 212.34C107.768 213.687 104.386 214.045 102.942 212.908Z" fill="#FBBE4B"/>
<path d="M82.8166 169.523C84.1652 170.712 84.2966 173.963 83.0952 175.11C81.8538 176.399 78.4768 176.452 77.2028 175.282C76.0036 174.132 75.8322 171.024 76.8843 169.839C78.1257 168.549 81.7667 168.411 82.8166 169.523Z" fill="#FBBE4B"/>
<path d="M147.491 232.231C148.414 230.936 152.095 230.656 153.369 231.825C154.533 232.813 155.009 235.693 153.857 237.235C152.839 238.583 149.457 238.94 148.014 237.804C146.625 236.758 146.324 233.54 147.491 232.231Z" fill="#FBBE4B"/>
<path d="M131.546 234.573C131.148 233.705 130.432 232.832 130.433 231.683C130.394 230.677 131.157 229.954 131.247 229.058C132.378 228.736 133.315 227.674 134.66 228.019C135.482 228.23 136.737 228.322 137.065 228.866C137.557 229.682 138.219 230.464 138.292 231.632C138.331 232.638 137.643 233.38 137.478 234.257C137.378 234.614 136.417 234.904 135.923 235.237C135.26 235.603 134.229 235.568 133.462 235.448C132.696 235.327 132.178 234.888 131.546 234.573Z" fill="#FBBE4B"/>
<path d="M215.635 229.883C216.86 229.509 217.798 228.447 219.142 228.792C219.964 229.003 221.144 229.076 221.547 229.639C222.169 230.565 222.994 231.619 222.655 232.834C222.435 233.62 222.359 234.75 221.771 235.135C220.899 235.677 219.912 236.343 218.657 236.25C217.701 236.235 217.134 235.4 216.157 235.456C215.8 234.445 214.989 233.624 214.915 232.456C214.801 231.431 215.768 230.837 215.635 229.883Z" fill="#FBBE4B"/>
<path d="M108.935 216.668C109.673 216.321 110.41 215.974 111.222 215.646C112.488 215.129 113.658 215.812 114.718 216.314C115.296 216.539 115.579 217.531 115.847 218.289C116.314 219.481 115.825 220.657 115.301 221.672C115.066 222.224 114.085 222.585 113.367 222.861C112.027 223.359 110.723 222.871 109.607 222.278C108.975 221.963 108.712 220.9 108.369 220.122C107.828 218.911 108.765 217.85 108.935 216.668Z" fill="#FBBE4B"/>
<path d="M75.9418 165.767C75.4126 167.087 74.0082 166.956 72.7731 166.792C72.0809 166.691 71.4392 165.837 70.7522 165.431C69.9359 164.915 69.7223 164.248 69.6435 163.385C69.5646 162.522 69.6898 161.789 70.4126 161.208C70.7366 160.908 71.0606 160.608 71.2353 160.27C71.6992 159.47 72.4114 159.5 73.2183 159.477C73.9505 159.435 74.7027 159.322 75.3097 160.014C75.5485 160.305 75.9367 160.634 76.2902 160.802C77.1065 161.318 77.3401 161.914 77.3989 162.848C77.4778 163.711 77.3526 164.445 76.6298 165.025C76.4205 165.201 76.2858 165.396 75.9418 165.767Z" fill="#FBBE4B"/>
<path d="M185.613 243.624C183.967 245.499 182.523 245.512 180.507 243.845C178.546 242.27 178.533 240.888 180.273 238.96C181.918 237.084 183.363 237.072 185.378 238.738C187.264 240.295 187.353 241.696 185.613 243.624Z" fill="#FBBE4B"/>
<path d="M115.93 230.871C114.118 229.334 113.995 227.77 115.621 225.966C117.226 224.234 118.86 224.117 120.746 225.673C122.558 227.211 122.681 228.774 121.055 230.578C119.47 232.239 117.761 232.337 115.93 230.871Z" fill="#FBBE4B"/>
<path d="M64.9684 156.058C63.261 155.007 63.3032 152.567 64.5846 151.134C65.866 149.701 68.3067 149.562 69.8047 150.789C71.3027 152.016 71.4499 154.351 70.1685 155.784C68.7377 157.178 66.1624 157.513 64.9684 156.058Z" fill="#FBBE4B"/>
<path d="M205.941 236.204C207.547 234.471 209.18 234.354 211.012 235.82C212.823 237.357 212.946 238.921 211.416 240.672C209.81 242.405 208.176 242.522 206.345 241.056C204.439 239.571 204.336 237.936 205.941 236.204Z" fill="#FBBE4B"/>
<path d="M154.799 246.745C152.988 245.207 152.79 243.625 154.395 241.892C156.001 240.16 157.655 239.971 159.466 241.509C161.278 243.046 161.475 244.629 159.87 246.361C158.339 248.113 156.631 248.211 154.799 246.745Z" fill="#FBBE4B"/>
<path d="M143.376 243.507C142.075 245.011 139.824 245.046 138.236 243.566C136.778 242.196 136.72 240.113 138.266 238.595C139.697 237.201 141.873 237.147 143.461 238.626C144.939 239.925 145.051 242.098 143.376 243.507Z" fill="#FBBE4B"/>
<path d="M196.213 242.362C196.527 241.523 197.429 241.448 198.48 241.412C199.456 241.356 200.398 241.138 201.264 242.05C201.891 242.67 202.368 243.252 202.278 244.148C202.262 245.063 202.64 246.003 201.762 246.85C201.019 247.502 200.541 248.068 199.435 248.014C198.424 247.908 197.517 248.288 196.631 247.448C195.228 246.168 194.911 243.866 196.213 242.362Z" fill="#FBBE4B"/>
<path d="M87.1422 209.007C86.2659 208.705 86.207 207.771 86.1481 206.837C86.0892 205.902 85.861 205.001 86.8131 204.173C87.4611 203.574 88.0692 203.117 89.0055 203.204C89.9618 203.22 90.9433 202.859 91.8291 203.699C92.5108 204.41 93.103 204.869 93.0473 205.927C92.9368 206.894 93.3344 207.762 92.457 208.609C91.1209 209.951 88.7149 210.253 87.1422 209.007Z" fill="#FBBE4B"/>
<path d="M175.999 249.658C174.603 251.215 172.183 251.283 170.665 250.127C169.664 249.411 169.849 248.463 169.621 247.562C169.433 246.518 169.911 245.951 170.45 245.17C171.218 244.142 172.264 244.41 173.185 244.264C174.107 244.118 174.739 244.433 175.481 244.93C176.576 245.594 176.465 246.561 176.524 247.495C176.678 248.377 176.906 249.278 175.999 249.658Z" fill="#FBBE4B"/>
<path d="M127.8 239.662C126.404 241.219 123.984 241.287 122.466 240.131C121.465 239.415 121.65 238.467 121.422 237.566C121.234 236.522 121.712 235.955 122.251 235.174C123.019 234.146 124.065 234.414 124.986 234.268C125.908 234.121 126.54 234.437 127.282 234.934C128.377 235.598 128.266 236.565 128.325 237.499C128.384 238.433 128.687 239.354 127.8 239.662Z" fill="#FBBE4B"/>
<path d="M85.657 199.434C85.0931 200.592 83.9727 200.304 83.0311 200.522C82.0149 200.721 81.3479 200.243 80.5315 199.727C79.4564 198.992 79.811 198.01 79.5827 197.109C79.3197 196.046 79.9678 195.446 80.4865 194.737C81.1798 193.69 82.2802 194.049 83.2217 193.831C84.1633 193.613 84.7556 194.071 85.4972 194.568C86.5923 195.232 86.4072 196.18 86.5407 197.133C86.6943 198.015 86.6238 198.84 85.657 199.434Z" fill="#FBBE4B"/>
<path d="M261.706 219.726C260.7 219.315 260.526 218.504 260.562 217.518C260.578 216.602 260.275 215.682 261.227 214.854C261.875 214.255 262.409 213.779 263.345 213.866C264.301 213.882 265.303 213.449 266.169 214.361C266.85 215.072 267.517 215.55 267.387 216.588C267.296 217.484 267.749 218.443 266.796 219.271C266.054 219.923 265.5 220.47 264.395 220.416C263.533 220.348 262.437 220.833 261.706 219.726Z" fill="#FBBE4B"/>
<path d="M290.96 201.575C289.686 200.406 289.524 197.837 290.725 196.69C291.947 195.472 294.611 195.39 295.885 196.559C297.085 197.709 297.212 200.116 296.085 201.282C294.804 202.715 291.975 202.525 290.96 201.575Z" fill="#FBBE4B"/>
<path d="M79.141 190.103C77.9196 191.321 75.2348 191.474 74.0356 190.324C72.7616 189.155 72.6744 186.605 73.8958 185.386C75.0972 184.239 77.6126 184.119 78.8319 185.198C80.3299 186.425 80.2278 189.079 79.141 190.103Z" fill="#FBBE4B"/>
<path d="M286.222 207.636C285.001 208.854 282.336 208.936 281.062 207.767C279.788 206.597 279.721 203.976 280.997 202.848C282.198 201.701 284.769 201.672 286.008 202.679C287.282 203.848 287.444 206.418 286.222 207.636Z" fill="#FBBE4B"/>
<path d="M104.811 227.405C103.929 228.557 101.164 228.996 99.6659 227.769C98.4266 226.762 98.15 224.316 99.1474 223.04C100.165 221.693 102.889 221.397 104.278 222.442C105.667 223.488 105.903 226.076 104.811 227.405Z" fill="#FBBE4B"/>
<path d="M256.988 225.715C255.767 226.933 253.082 227.087 251.883 225.936C250.609 224.767 250.522 222.217 251.743 220.998C252.945 219.852 255.46 219.731 256.679 220.81C258.103 222.018 258 224.672 256.988 225.715Z" fill="#FBBE4B"/>
<path d="M58.7114 146.946C57.4374 145.776 57.3502 143.226 58.5716 142.008C59.7931 140.79 62.5325 140.727 63.7118 141.949C64.911 143.099 64.9436 145.558 63.8915 146.744C62.6701 147.962 59.9106 148.096 58.7114 146.946Z" fill="#FBBE4B"/>
<path d="M247.24 231.944C245.884 233.358 243.13 233.187 242.115 232.237C240.841 231.068 240.679 228.499 241.9 227.28C243.027 226.114 245.542 225.994 246.876 226.949C247.986 227.847 248.542 230.44 247.24 231.944Z" fill="#FBBE4B"/>
<path d="M232.476 238.648C231.087 237.602 230.831 235.086 231.923 233.757C232.975 232.572 235.455 232.29 236.884 233.193C238.293 234.167 238.624 236.703 237.587 238.122C236.589 239.398 233.939 239.713 232.476 238.648Z" fill="#FBBE4B"/>
<path d="M67.6736 176.436C68.895 175.218 71.5797 175.065 72.779 176.215C74.053 177.384 74.1402 179.934 72.9188 181.153C71.7173 182.3 69.202 182.42 67.9827 181.341C66.4847 180.114 66.5868 177.46 67.6736 176.436Z" fill="#FBBE4B"/>
<path d="M98.6286 218.312C97.5366 219.64 94.9066 219.884 93.5179 218.838C92.2787 217.831 91.9821 215.457 92.9248 214.09C93.9421 212.743 96.5921 212.428 98.0754 213.421C99.4641 214.467 99.7207 216.984 98.6286 218.312Z" fill="#FBBE4B"/>
<path d="M271.498 214.197C270.368 213.371 269.833 210.706 271.114 209.273C272.241 208.107 274.702 207.896 276.036 208.851C277.424 209.897 277.681 212.414 276.589 213.742C275.592 215.018 272.887 215.243 271.498 214.197Z" fill="#FBBE4B"/>
<path d="M144.572 248.103C145.643 247.995 146.227 246.766 147.348 247.054C148.169 247.264 149.35 247.338 149.753 247.9C150.19 248.626 151.191 249.342 150.891 250.414C150.671 251.2 150.356 252.038 150.062 252.805C149.071 252.627 148.731 253.842 147.625 253.788C146.669 253.773 146.027 252.919 145.106 253.065C145.047 252.131 143.986 251.629 143.893 250.533C143.854 249.527 144.875 249.023 144.572 248.103Z" fill="#FBBE4B"/>
<path d="M187.133 253.358C186.715 252.562 186.352 251.856 186.009 251.079C185.577 250.049 186.658 249.33 186.674 248.415C187.596 248.269 188.06 247.469 189.001 247.251C190.112 247 190.769 248.088 191.765 247.96C191.749 248.875 192.755 249.287 192.888 250.24C193.077 251.284 191.98 251.769 192.209 252.67C191.451 253.088 190.694 253.506 189.882 253.834C188.935 254.357 188.244 253.107 187.133 253.358Z" fill="#FBBE4B"/>
<path d="M227.66 243.846C226.589 243.954 226.025 245.111 224.904 244.824C224.083 244.613 222.753 244.501 222.5 243.977C222.082 243.18 220.987 242.516 221.361 241.463C221.656 240.696 221.752 239.496 222.32 239.182C223.152 238.783 223.825 237.807 225 238.185C225.727 238.448 226.833 238.502 227.181 238.974C227.619 239.699 228.619 240.416 228.319 241.488C228.174 242.293 227.954 243.079 227.66 243.846Z" fill="#FBBE4B"/>
<path d="M106.107 237.081C105.784 236.233 105.217 235.398 105.138 234.535C105.114 233.763 105.414 232.691 105.947 232.215C106.575 231.687 107.632 231.345 108.513 231.342C109.32 231.319 110.366 231.588 110.938 232.117C111.51 232.647 111.868 233.658 111.892 234.43C111.916 235.202 111.711 236.222 111.158 236.769C110.51 237.369 109.453 237.711 108.552 237.786C107.82 237.827 107.003 237.312 106.107 237.081Z" fill="#FBBE4B"/>
<path d="M61.7006 167.168C63.2114 165.487 64.3023 165.308 66.0044 166.664C67.7065 168.02 67.8548 169.207 66.6081 170.801C65.3215 172.539 63.3342 172.489 62.0603 171.319C60.5275 169.93 60.3045 168.724 61.7006 167.168Z" fill="#FBBE4B"/>
<path d="M128.771 245.349C129.754 243.84 131.91 243.857 133.11 245.008C134.752 246.578 134.791 247.584 133.335 249.355C132.148 250.735 130.235 250.704 128.981 249.463C127.523 248.093 127.375 246.906 128.771 245.349Z" fill="#FBBE4B"/>
<path d="M161.05 251.872C162.446 250.316 163.761 250.194 165.389 251.531C167.22 252.996 167.314 254.093 165.708 255.825C164.332 257.31 163.037 257.361 161.41 256.024C159.708 254.668 159.654 253.429 161.05 251.872Z" fill="#FBBE4B"/>
<path d="M182.087 258.804C180.826 260.165 179.117 260.262 177.748 259.145C176.325 257.937 176.222 256.303 177.389 254.994C178.65 253.632 180.359 253.535 181.727 254.652C183.151 255.86 183.274 257.423 182.087 258.804Z" fill="#FBBE4B"/>
<path d="M112.838 245.932C111.907 245.54 112.166 244.611 111.973 243.872C111.69 242.88 112.467 242.39 112.891 241.733C113.45 240.881 114.292 241.02 115.138 240.855C116.175 240.585 116.687 241.329 117.374 241.735C118.265 242.27 118.12 243.075 118.293 243.886C118.576 244.877 117.799 245.367 117.375 246.024C116.816 246.877 115.955 246.809 115.148 246.831C114.002 246.92 114.002 246.92 112.838 245.932Z" fill="#FBBE4B"/>
<path d="M213.13 249.997C211.781 248.809 211.678 247.174 212.94 245.812C214.181 244.523 215.89 244.425 217.313 245.633C218.662 246.821 218.765 248.456 217.503 249.818C216.262 251.107 214.553 251.205 213.13 249.997Z" fill="#FBBE4B"/>
<path d="M77.7926 214.956C76.7975 213.934 76.2263 212.256 77.6024 210.771C78.6144 209.728 80.4229 209.273 81.9009 210.572C82.9908 211.541 83.4673 213.272 82.1112 214.685C81.1738 215.747 79.3854 216.13 77.7926 214.956Z" fill="#FBBE4B"/>
<path d="M71.0318 201.348C72.308 200.221 74.0564 199.98 75.3851 201.24C76.659 202.41 76.8168 204.135 75.5007 205.406C74.2792 206.624 72.4761 206.774 71.1474 205.514C69.9482 204.364 69.8451 202.729 71.0318 201.348Z" fill="#FBBE4B"/>
<path d="M119.632 255.412C118.413 254.333 118.315 252.393 119.367 251.208C120.494 250.042 122.521 249.949 123.76 250.957C124.98 252.036 125.077 253.975 124.025 255.161C122.899 256.327 120.851 256.491 119.632 255.412Z" fill="#FBBE4B"/>
<path d="M83.9951 223.977C82.7012 222.879 82.6981 220.887 83.6355 219.825C84.7822 218.588 86.8642 218.586 87.974 219.483C89.268 220.581 89.271 222.574 88.3337 223.635C87.2416 224.963 85.1597 224.965 83.9951 223.977Z" fill="#FBBE4B"/>
<path d="M64.8156 196.383C63.467 195.194 63.2892 193.54 64.3813 192.212C65.4933 190.812 67.3512 190.753 68.6651 191.78C70.1284 192.845 70.1915 194.622 69.1194 195.879C68.0074 197.279 66.2442 197.286 64.8156 196.383Z" fill="#FBBE4B"/>
<path d="M207.775 255.976C206.628 257.213 204.546 257.215 203.437 256.317C202.143 255.219 202.14 253.227 203.077 252.166C204.224 250.928 206.306 250.926 207.415 251.824C208.784 252.941 208.807 254.862 207.775 255.976Z" fill="#FBBE4B"/>
<path d="M151.626 257.802C152.753 256.636 154.8 256.472 155.964 257.46C157.204 258.468 157.356 260.498 156.324 261.612C155.272 262.797 153.15 262.942 151.985 261.954C150.671 260.927 150.594 258.916 151.626 257.802Z" fill="#FBBE4B"/>
<path d="M55.5443 161.988C54.0663 160.689 54.1726 158.878 55.11 157.817C56.4113 156.313 58.2839 156.487 59.4685 157.404C61.0412 158.65 60.8602 160.442 59.9028 161.574C58.6014 163.079 56.7688 162.762 55.5443 161.988Z" fill="#FBBE4B"/>
<path d="M135.362 254.7C136.489 253.534 138.516 253.442 139.755 254.449C140.974 255.528 141.072 257.468 140.02 258.653C138.893 259.819 136.866 259.912 135.627 258.904C134.408 257.825 134.235 255.866 135.362 254.7Z" fill="#FBBE4B"/>
<path d="M90.1123 233.589C88.953 232.296 88.6806 230.694 89.9967 229.423C91.2181 228.205 93.0213 228.055 94.35 229.315C95.6239 230.485 95.7817 232.21 94.4655 233.481C93.2641 234.628 91.5556 234.725 90.1123 233.589Z" fill="#FBBE4B"/>
<path d="M167.252 260.894C167.94 260.151 170.964 259.932 171.665 260.571C172.367 261.211 172.604 263.799 172.065 264.58C171.526 265.361 168.558 265.671 167.687 265.065C166.796 264.53 166.544 261.708 167.252 260.894Z" fill="#FBBE4B"/>
<path d="M96.3979 238.879C97.0113 238.117 99.9601 237.878 100.811 238.556C101.533 239.124 101.844 241.732 101.285 242.584C100.747 243.365 97.8527 243.695 96.887 243.14C96.0906 242.553 95.7446 239.783 96.3979 238.879Z" fill="#FBBE4B"/>
<path d="M198.122 262.153C197.244 263 194.445 263.277 193.763 262.566C193.32 262.146 193.107 261.479 193.023 260.921C192.571 258.814 193.698 257.648 195.855 257.665C197.374 257.672 198.225 258.35 198.388 259.77C198.467 260.633 198.227 261.491 198.122 262.153Z" fill="#FBBE4B"/>
<path d="M107.278 251.782C106.112 253.091 105.061 253.127 103.692 252.01C102.194 250.783 102.21 249.868 103.586 248.383C104.733 247.145 105.764 247.18 107.187 248.388C108.481 249.486 108.54 250.42 107.278 251.782Z" fill="#FBBE4B"/>
<path d="M49.2978 152.266C47.8545 151.129 47.8156 150.124 48.9823 148.815C50.2637 147.382 51.24 147.326 52.738 148.553C54.1067 149.67 54.0709 150.657 52.8842 152.037C51.7174 153.346 50.6665 153.383 49.2978 152.266Z" fill="#FBBE4B"/>
<path d="M58.543 182.748C59.7297 181.367 60.7807 181.331 62.1493 182.448C63.6474 183.675 63.7063 184.609 62.4249 186.042C61.2581 187.351 60.2072 187.388 58.8585 186.199C57.4152 185.063 57.3763 184.057 58.543 182.748Z" fill="#FBBE4B"/>
<path d="M262.822 234.335C261.636 235.716 260.585 235.752 259.216 234.635C257.718 233.408 257.659 232.474 258.941 231.041C260.107 229.732 261.138 229.767 262.582 230.903C263.95 232.021 263.989 233.026 262.822 234.335Z" fill="#FBBE4B"/>
<path d="M142.119 267.464C140.75 266.347 140.711 265.341 141.878 264.032C143.159 262.599 144.115 262.615 145.668 263.932C146.962 265.03 146.926 266.017 145.665 267.378C144.518 268.616 143.542 268.672 142.119 267.464Z" fill="#FBBE4B"/>
<path d="M278.388 222.476C276.965 221.268 276.832 220.314 277.978 219.077C279.24 217.716 280.256 217.517 281.55 218.615C283.123 219.861 283.256 220.814 281.995 222.176C280.733 223.537 279.757 223.593 278.388 222.476Z" fill="#FBBE4B"/>
<path d="M268.64 228.705C267.197 227.569 267.158 226.563 268.25 225.235C269.532 223.802 270.528 223.675 272.006 224.974C273.375 226.091 273.413 227.096 272.172 228.386C270.985 229.767 269.989 229.894 268.64 228.705Z" fill="#FBBE4B"/>
<path d="M249.319 240.826C247.95 239.709 247.911 238.704 249.078 237.395C250.359 235.962 251.316 235.977 252.868 237.295C254.162 238.393 254.127 239.38 252.865 240.741C251.793 241.998 250.742 242.034 249.319 240.826Z" fill="#FBBE4B"/>
<path d="M239.182 246.727C237.814 245.609 237.775 244.604 239.016 243.314C240.278 241.953 241.254 241.897 242.807 243.214C244.101 244.312 244.085 245.227 242.803 246.66C241.637 247.969 240.606 247.934 239.182 246.727Z" fill="#FBBE4B"/>
<path d="M229.268 249.544C230.186 248.553 231.819 248.437 232.854 249.315C234.019 250.303 234.122 251.938 232.961 252.942C231.894 253.894 230.579 254.016 229.34 253.009C228.379 252.149 228.351 250.534 229.268 249.544Z" fill="#FBBE4B"/>
<path d="M158.113 270.956C157.003 270.059 156.935 268.586 157.798 267.505C158.755 266.372 160.464 266.274 161.553 267.244C162.514 268.103 162.617 269.738 161.7 270.728C160.762 271.789 159.223 271.854 158.113 270.956Z" fill="#FBBE4B"/>
<path d="M52.7308 177.197C51.6756 176.39 51.4779 174.807 52.3206 173.798C53.3726 172.613 54.593 172.543 55.8922 173.336C57.1714 174.201 57.2745 175.835 56.3371 176.897C55.3997 177.958 53.7659 178.075 52.7308 177.197Z" fill="#FBBE4B"/>
<path d="M184.145 267.757C183.036 266.859 183.007 265.244 183.83 264.306C184.862 263.192 186.496 263.075 187.64 264.135C188.601 264.994 188.609 266.681 187.712 267.6C186.794 268.59 185.255 268.655 184.145 267.757Z" fill="#FBBE4B"/>
<path d="M288.545 216.504C287.51 215.626 287.292 214.114 288.229 213.053C289.072 212.044 290.726 211.855 291.801 212.591C292.985 213.508 293.183 215.09 292.151 216.204C291.214 217.266 289.505 217.363 288.545 216.504Z" fill="#FBBE4B"/>
<path d="M125.76 264.414C124.725 263.536 124.676 261.991 125.594 261.001C126.74 259.764 128.573 260.081 129.384 260.902C130.324 261.832 130.353 263.448 129.381 264.348C128.409 265.247 126.72 265.273 125.76 264.414Z" fill="#FBBE4B"/>
<path d="M301.805 210.027C301.022 210.822 298.94 210.823 298.164 210.165C297.332 209.415 297.329 207.423 298.017 206.68C298.8 205.886 300.882 205.884 301.658 206.543C302.49 207.292 302.587 209.232 301.805 210.027Z" fill="#FBBE4B"/>
<path d="M220.139 258.996C219.288 258.318 219.116 256.359 219.824 255.545C220.532 254.731 222.579 254.567 223.43 255.245C224.281 255.923 224.454 257.882 223.746 258.696C223.038 259.51 220.99 259.674 220.139 258.996Z" fill="#FBBE4B"/>
<path d="M109.599 257.509C110.307 256.695 112.429 256.55 113.26 257.3C114.111 257.978 114.263 260.008 113.481 260.803C112.773 261.617 110.651 261.762 109.82 261.012C108.969 260.334 108.891 258.323 109.599 257.509Z" fill="#FBBE4B"/>
<path d="M81.1614 239.257C80.4944 238.78 80.2525 236.497 80.7712 235.787C81.2699 235.149 83.6559 234.919 84.3975 235.416C85.0645 235.893 85.3064 238.177 84.7877 238.886C84.3637 239.543 81.903 239.754 81.1614 239.257Z" fill="#FBBE4B"/>
<path d="M74.3501 226.403C74.9035 225.856 77.3642 225.645 78.0112 226.194C78.5834 226.724 78.8053 229.079 78.232 229.697C77.6786 230.245 75.2179 230.456 74.571 229.907C73.9987 229.377 73.7768 227.022 74.3501 226.403Z" fill="#FBBE4B"/>
<path d="M65.5337 211.273C65.035 211.911 62.5943 212.05 61.9274 211.573C61.2604 211.095 61.1132 208.76 61.6119 208.122C62.1105 207.484 64.5512 207.344 65.2182 207.822C65.8105 208.28 66.0324 210.635 65.5337 211.273Z" fill="#FBBE4B"/>
<path d="M210.316 265.206C209.669 264.657 209.542 262.25 210.096 261.703C210.669 261.084 213.184 260.964 213.757 261.494C214.404 262.043 214.531 264.45 213.977 264.997C213.329 265.597 210.889 265.736 210.316 265.206Z" fill="#FBBE4B"/>
<path d="M174.452 274.077C173.88 273.547 173.658 271.193 174.231 270.574C174.785 270.027 177.245 269.816 177.892 270.365C178.465 270.894 178.686 273.249 178.113 273.868C177.56 274.415 175.044 274.536 174.452 274.077Z" fill="#FBBE4B"/>
<path d="M68.1296 220.594C67.4627 220.117 67.2208 217.833 67.7395 217.124C68.2381 216.486 70.6241 216.256 71.3658 216.753C72.0327 217.23 72.2746 219.513 71.756 220.223C71.2573 220.861 68.8713 221.091 68.1296 220.594Z" fill="#FBBE4B"/>
<path d="M90.5042 245.638C91.8728 246.755 91.8128 246.97 90.6061 248.422C89.4394 249.731 89.1206 249.725 87.5679 248.408C86.4034 247.42 86.3539 247.024 87.69 245.682C88.7621 244.425 89.0061 244.411 90.5042 245.638Z" fill="#FBBE4B"/>
<path d="M46.3276 164.601C47.4943 163.292 47.7184 163.349 49.2364 164.505C50.6051 165.622 50.5998 165.927 49.2237 167.412C48.1917 168.526 47.7982 168.501 46.3749 167.293C44.9862 166.248 44.9715 166.014 46.3276 164.601Z" fill="#FBBE4B"/>
<path d="M49.4342 192.129C48.5832 191.451 48.4549 190.192 49.0882 189.359C49.8362 188.402 51.2259 188.299 52.1117 189.14C52.8881 189.798 52.9964 191.128 52.3083 191.871C51.6003 192.685 50.2853 192.807 49.4342 192.129Z" fill="#FBBE4B"/>
<path d="M149.108 276.534C148.257 275.856 148.034 274.65 148.667 273.817C149.395 272.931 150.805 272.757 151.731 273.454C152.507 274.113 152.635 275.371 152.002 276.204C151.274 277.09 149.959 277.212 149.108 276.534Z" fill="#FBBE4B"/>
<path d="M96.8486 257.3C96.1406 258.114 94.8256 258.236 94.0292 257.649C93.0288 256.932 92.9204 255.603 93.7232 254.736C94.4112 253.994 95.8009 253.891 96.5773 254.55C97.4083 255.299 97.462 256.538 96.8486 257.3Z" fill="#FBBE4B"/>
<path d="M132.498 270.662C133.206 269.848 134.521 269.726 135.392 270.333C136.392 271.049 136.501 272.379 135.623 273.226C134.935 273.969 133.545 274.072 132.769 273.413C131.918 272.735 131.79 271.476 132.498 270.662Z" fill="#FBBE4B"/>
<path d="M165.048 279.936C164.197 279.258 164.069 277.999 164.777 277.185C165.599 276.247 166.894 276.197 167.8 276.965C168.556 277.696 168.61 278.935 167.902 279.749C167.194 280.563 165.824 280.594 165.048 279.936Z" fill="#FBBE4B"/>
<path d="M200.634 270.916C199.782 270.238 199.56 269.032 200.193 268.199C200.921 267.314 202.331 267.139 203.236 267.908C204.013 268.567 204.141 269.825 203.508 270.658C202.745 271.382 201.43 271.504 200.634 270.916Z" fill="#FBBE4B"/>
<path d="M116.483 267.241C117.191 266.427 118.451 266.215 119.302 266.893C120.303 267.609 120.411 268.939 119.608 269.805C118.92 270.548 117.531 270.651 116.754 269.992C115.903 269.314 115.775 268.055 116.483 267.241Z" fill="#FBBE4B"/>
<path d="M55.6787 198.71C56.3867 197.896 57.7018 197.774 58.5728 198.381C59.5733 199.097 59.6816 200.427 58.8042 201.274C58.1161 202.016 56.7264 202.119 55.95 201.46C55.1737 200.802 55.0654 199.472 55.6787 198.71Z" fill="#FBBE4B"/>
<path d="M39.9283 158.286C39.7642 158.014 39.6548 157.833 39.6201 157.671C39.5559 157.042 39.4171 156.393 39.5223 155.731C39.5076 155.497 39.8116 155.269 40.0957 155.112C40.285 155.008 40.5838 155.084 40.8279 155.07C42.9498 154.926 42.691 154.706 42.8435 156.737C42.9918 157.923 43.0065 158.157 41.5621 158.169C40.9993 158.178 40.4164 158.258 39.9283 158.286Z" fill="#FBBE4B"/>
<path d="M190.35 274.481C190.634 274.324 190.749 274.201 190.843 274.148C191.501 274.087 192.233 274.045 192.891 273.984C193.453 273.976 193.617 274.247 193.647 274.715C193.656 275.253 193.815 275.83 193.73 276.421C193.745 276.655 193.475 277.045 193.231 277.059C192.479 277.172 191.672 277.195 190.94 277.237C190.791 277.198 190.587 277.069 190.532 276.979C190.528 276.135 190.449 275.272 190.35 274.481Z" fill="#FBBE4B"/>
<path d="M123.4 279.433C122.548 278.755 122.39 278.178 123.003 277.417C123.636 276.583 124.314 276.451 125.13 276.967C126.131 277.683 126.269 278.332 125.561 279.146C124.853 279.96 124.196 280.021 123.4 279.433Z" fill="#FBBE4B"/>
<path d="M100.814 266.59C99.9633 265.912 99.8792 265.354 100.513 264.521C101.221 263.707 101.823 263.555 102.62 264.143C103.62 264.859 103.684 265.488 102.956 266.374C102.248 267.188 101.591 267.249 100.814 266.59Z" fill="#FBBE4B"/>
<path d="M238.889 261.51C238.181 262.324 237.599 262.405 236.747 261.727C235.767 260.939 235.758 260.4 236.56 259.534C237.248 258.791 237.886 258.802 238.737 259.48C239.588 260.158 239.597 260.696 238.889 261.51Z" fill="#FBBE4B"/>
<path d="M139.684 282.464C138.833 281.786 138.748 281.228 139.287 280.447C139.92 279.614 140.598 279.481 141.414 279.997C142.415 280.714 142.479 281.343 141.751 282.228C141.137 282.99 140.48 283.051 139.684 282.464Z" fill="#FBBE4B"/>
<path d="M248.618 255.352C247.93 256.095 247.292 256.084 246.516 255.425C245.685 254.676 245.621 254.047 246.498 253.2C247.166 252.529 247.878 252.558 248.635 253.289C249.411 253.947 249.4 254.557 248.618 255.352Z" fill="#FBBE4B"/>
<path d="M256.209 249.105C255.433 248.446 255.443 247.836 256.131 247.094C256.914 246.299 257.572 246.238 258.457 247.078C259.159 247.718 259.128 248.399 258.366 249.123C257.603 249.846 257.04 249.855 256.209 249.105Z" fill="#FBBE4B"/>
<path d="M265.869 241.474C266.577 240.66 267.215 240.671 268.011 241.258C268.917 242.027 269.001 242.584 268.103 243.503C267.415 244.246 266.778 244.235 265.947 243.486C265.245 242.846 265.161 242.288 265.869 241.474Z" fill="#FBBE4B"/>
<path d="M275.637 235.173C276.345 234.359 276.983 234.37 277.779 234.957C278.685 235.726 278.769 236.283 277.871 237.202C277.183 237.944 276.546 237.934 275.715 237.184C274.993 236.616 274.929 235.987 275.637 235.173Z" fill="#FBBE4B"/>
<path d="M45.4043 182.21C44.6963 183.024 44.1134 183.104 43.2424 182.497C42.3913 181.819 42.2325 181.243 42.8458 180.481C43.5939 179.524 44.2514 179.463 45.1771 180.16C46.0282 180.838 46.1123 181.396 45.4043 182.21Z" fill="#FBBE4B"/>
<path d="M71.8742 242.695C72.5823 241.881 73.1651 241.801 74.0361 242.407C74.8872 243.085 75.046 243.662 74.4327 244.424C73.6847 245.381 73.0272 245.442 72.1014 244.745C71.2504 244.067 71.1662 243.509 71.8742 242.695Z" fill="#FBBE4B"/>
<path d="M67.7273 235.197C67.0193 236.011 66.4364 236.091 65.5654 235.484C64.7143 234.806 64.5555 234.229 65.1688 233.468C65.9169 232.511 66.5744 232.45 67.5001 233.147C68.3512 233.825 68.4153 234.454 67.7273 235.197Z" fill="#FBBE4B"/>
<path d="M80.6298 253.75C79.7283 253.825 78.9961 253.867 78.2838 253.837C77.8904 253.813 77.6632 251.763 78.0767 251.716C78.7742 251.512 79.7157 251.294 80.1786 251.643C80.5868 251.901 80.4763 252.868 80.6298 253.75Z" fill="#FBBE4B"/>
<path d="M52.3371 214.09C53.2934 214.106 53.9709 213.973 54.6631 214.074C55.0366 214.17 55.2091 216.129 54.7756 216.248C54.0981 216.38 53.0819 216.579 52.6937 216.25C52.3055 215.92 52.4907 214.972 52.3371 214.09Z" fill="#FBBE4B"/>
<path d="M295.076 224.921C295.092 224.006 294.864 223.104 295.208 222.733C295.552 222.362 296.563 222.468 297.275 222.498C297.669 222.522 297.821 224.553 297.388 224.671C296.71 224.804 295.978 224.846 295.076 224.921Z" fill="#FBBE4B"/>
<path d="M184.037 282.741C183.08 282.726 182.139 282.943 181.751 282.614C181.362 282.285 181.473 281.317 181.503 280.636C181.529 280.259 183.631 280.186 183.775 280.529C183.934 281.106 183.883 281.859 184.037 282.741Z" fill="#FBBE4B"/>
<path d="M226.919 268.242C226.84 267.379 226.443 266.511 226.807 266.069C227.171 265.626 228.127 265.641 228.859 265.6C229.198 265.533 229.595 267.55 229.216 267.759C228.593 267.982 227.786 268.005 226.919 268.242Z" fill="#FBBE4B"/>
<path d="M157.93 285.921C156.973 285.905 156.032 286.123 155.644 285.794C155.255 285.465 155.366 284.497 155.396 283.816C155.422 283.439 157.524 283.366 157.668 283.709C157.881 284.377 157.851 285.058 157.93 285.921Z" fill="#FBBE4B"/>
<path d="M58.8403 226.329C58.7615 225.466 58.6426 224.746 58.7479 224.084C58.7731 223.707 60.915 223.491 60.9645 223.887C61.178 224.554 61.4062 225.456 61.0622 225.827C60.6982 226.27 59.7619 226.182 58.8403 226.329Z" fill="#FBBE4B"/>
<path d="M288.033 230.925C287.132 231 286.225 231.38 285.762 231.032C285.299 230.683 285.315 229.768 285.271 229.067C285.201 228.743 287.308 228.365 287.527 228.727C287.835 229.343 287.86 230.115 288.033 230.925Z" fill="#FBBE4B"/>
<path d="M107.121 276.098C107.137 275.182 106.998 274.534 107.103 273.872C107.128 273.495 109.25 273.351 109.374 273.765C109.513 274.414 109.721 275.386 109.377 275.758C109.033 276.129 108.042 275.951 107.121 276.098Z" fill="#FBBE4B"/>
<path d="M37.4588 173.124C36.533 172.427 36.533 172.427 37.2411 171.613C37.6998 171.118 38.0038 170.889 38.6508 171.438C39.4818 172.188 39.5018 172.116 38.8685 172.95C38.4098 173.445 38.0111 173.725 37.4588 173.124Z" fill="#FBBE4B"/>
<path d="M48.3345 206.935C48.0052 207.54 47.5718 207.659 46.9995 207.129C46.1684 206.379 46.1484 206.451 46.7818 205.618C47.2405 205.123 47.5445 204.894 48.1915 205.443C48.9679 206.102 49.0426 206.121 48.3345 206.935Z" fill="#FBBE4B"/>
<path d="M217.347 272.985C216.456 272.45 217.213 272.032 217.557 271.66C218.151 270.97 218.205 271.061 219.131 271.758C219.908 272.417 219.265 272.711 218.921 273.082C218.233 273.825 218.233 273.825 217.347 272.985Z" fill="#FBBE4B"/>
<path d="M85.0341 262.616C84.2725 262.191 84.5418 261.801 85.0752 261.325C85.8379 260.602 85.7632 260.582 86.689 261.28C87.356 261.757 87.1813 262.095 86.7226 262.59C85.8652 263.366 85.8652 263.366 85.0341 262.616Z" fill="#FBBE4B"/>
<path d="M172.042 288.701C172.073 288.019 171.914 287.442 172.218 287.214C172.447 286.967 173.14 287.068 173.553 287.021C173.562 287.559 173.816 288.084 173.621 288.493C173.487 288.689 172.7 288.64 172.042 288.701Z" fill="#FBBE4B"/>
<path d="M207.703 279.701C207.639 279.072 207.515 278.657 207.56 278.209C207.585 277.832 208.846 277.62 209.064 277.982C209.283 278.345 209.422 278.993 209.193 279.241C208.963 279.488 208.326 279.478 207.703 279.701Z" fill="#FBBE4B"/>
<path d="M148.212 291.469C147.5 291.44 146.728 291.624 146.618 291.443C146.4 291.081 146.485 290.49 146.475 289.951C146.963 289.923 147.566 289.772 147.825 289.991C148.104 290.139 148.093 290.749 148.212 291.469Z" fill="#FBBE4B"/>
<path d="M131.893 288.277C131.236 288.338 130.802 288.456 130.334 288.413C129.941 288.388 129.718 287.182 130.096 286.973C130.475 286.764 131.153 286.631 131.411 286.851C131.765 287.018 131.754 287.628 131.893 288.277Z" fill="#FBBE4B"/>
<path d="M91.1809 272.696C91.1168 272.067 91.0127 271.58 91.1326 271.152C91.2525 270.723 92.4729 270.653 92.6917 271.016C92.9105 271.378 92.9746 272.007 92.7253 272.326C92.496 272.574 91.8584 272.563 91.1809 272.696Z" fill="#FBBE4B"/>
<path d="M114.33 284.382C114.315 284.148 114.151 283.876 114.082 283.552C114.57 283.524 115.133 283.515 115.621 283.488C115.65 283.955 115.829 284.46 115.654 284.798C115.176 285.365 114.833 284.587 114.33 284.382Z" fill="#FBBE4B"/>
<path d="M36.8695 211.575C37.3177 211.69 37.6364 211.696 37.8205 211.896C37.9499 212.006 37.83 212.435 37.83 212.435C37.5659 212.52 37.2472 212.515 37.0431 212.386C36.8737 212.419 36.9736 212.062 36.8695 211.575Z" fill="#FBBE4B"/>
<path d="M62.4247 249.001C62.8728 249.116 63.1916 249.121 63.3757 249.322C63.5051 249.432 63.3852 249.86 63.3852 249.86C63.1211 249.946 62.8023 249.941 62.5982 249.812C62.4289 249.845 62.4541 249.468 62.4247 249.001Z" fill="#FBBE4B"/>
<path d="M243.891 270.53C243.862 270.063 243.792 269.739 243.887 269.686C244.077 269.582 244.415 269.516 244.639 269.573C244.714 269.592 244.838 270.007 244.723 270.131C244.589 270.326 244.27 270.321 243.891 270.53Z" fill="#FBBE4B"/>
<path d="M57.2723 241.092C56.8242 240.977 56.4854 241.043 56.4507 240.881C56.3613 240.628 56.4412 240.342 56.4265 240.109C56.6706 240.095 57.0093 240.029 57.0441 240.191C57.2282 240.391 57.2229 240.696 57.2723 241.092Z" fill="#FBBE4B"/>
<path d="M253.511 263.042C253.96 263.157 254.278 263.162 254.462 263.363C254.592 263.473 254.472 263.901 254.472 263.901C254.208 263.987 253.889 263.981 253.685 263.853C253.516 263.886 253.615 263.528 253.511 263.042Z" fill="#FBBE4B"/>
<path d="M31.1787 162.091C31.6468 162.135 31.9109 162.049 32.115 162.178C32.2644 162.217 32.2391 162.593 32.2738 162.755C32.0297 162.769 31.7457 162.926 31.4469 162.849C31.3722 162.83 31.3028 162.506 31.1787 162.091Z" fill="#FBBE4B"/>
<path d="M41.5397 197.456C41.0915 197.341 40.7527 197.407 40.718 197.245C40.6286 196.992 40.7086 196.706 40.6939 196.473C40.9379 196.459 41.2767 196.392 41.3114 196.554C41.4208 196.736 41.4355 196.969 41.5397 197.456Z" fill="#FBBE4B"/>
<path d="M233.472 275.439C233.94 275.482 234.204 275.397 234.483 275.545C234.633 275.583 234.607 275.96 234.642 276.122C234.398 276.136 234.114 276.293 233.815 276.216C233.74 276.197 233.671 275.873 233.472 275.439Z" fill="#FBBE4B"/>
<path d="M263.064 258.371C263.034 257.904 262.965 257.579 263.06 257.527C263.249 257.422 263.588 257.356 263.812 257.414C263.886 257.433 264.011 257.848 263.896 257.971C263.781 258.095 263.442 258.161 263.064 258.371Z" fill="#FBBE4B"/>
<path d="M153.588 300.585C153.139 300.47 152.801 300.536 152.766 300.374C152.676 300.121 152.756 299.835 152.742 299.602C152.986 299.588 153.325 299.522 153.359 299.684C153.469 299.865 153.483 300.098 153.588 300.585Z" fill="#FBBE4B"/>
<path d="M43.3452 221.05C43.8133 221.093 44.0774 221.008 44.3562 221.156C44.5056 221.194 44.4803 221.571 44.515 221.733C44.2709 221.747 43.9869 221.904 43.6881 221.827C43.5188 221.86 43.4693 221.465 43.3452 221.05Z" fill="#FBBE4B"/>
<path d="M27.7264 178.438C27.7716 177.991 27.6822 177.738 27.8369 177.471C27.8769 177.328 28.2703 177.353 28.4397 177.319C28.4544 177.553 28.6185 177.825 28.5386 178.111C28.5733 178.273 28.1598 178.32 27.7264 178.438Z" fill="#FBBE4B"/>
<path d="M273.808 252.014C273.36 251.899 273.021 251.965 272.987 251.803C272.897 251.55 272.977 251.264 272.962 251.031C273.206 251.017 273.545 250.95 273.58 251.113C273.689 251.294 273.684 251.599 273.808 252.014Z" fill="#FBBE4B"/>
<path d="M162.564 294.54C162.683 294.111 162.689 293.806 162.898 293.63C163.013 293.506 163.461 293.621 163.461 293.621C163.55 293.874 163.545 294.179 163.41 294.374C163.445 294.536 163.052 294.512 162.564 294.54Z" fill="#FBBE4B"/>
<path d="M282.764 246.04C282.884 245.612 282.889 245.307 283.099 245.131C283.213 245.007 283.661 245.122 283.661 245.122C283.751 245.375 283.746 245.68 283.611 245.875C283.646 246.037 283.272 245.941 282.764 246.04Z" fill="#FBBE4B"/>
<path d="M34.9491 188.105C34.5009 187.99 34.1622 188.056 34.1275 187.894C34.038 187.641 34.118 187.355 34.1033 187.122C34.3474 187.108 34.6861 187.042 34.7208 187.204C34.9049 187.404 34.9196 187.638 34.9491 188.105Z" fill="#FBBE4B"/>
<path d="M50.0494 231.426C50.0946 230.978 50.0052 230.725 50.1599 230.458C50.1999 230.315 50.5933 230.34 50.7627 230.307C50.7774 230.54 50.9415 230.812 50.8615 231.098C50.8963 231.26 50.4828 231.307 50.0494 231.426Z" fill="#FBBE4B"/>
<path d="M292.473 238.805C292.942 238.849 293.206 238.763 293.484 238.911C293.634 238.95 293.608 239.326 293.643 239.488C293.399 239.502 293.115 239.659 292.816 239.582C292.667 239.544 292.672 239.239 292.473 238.805Z" fill="#FBBE4B"/>
<path d="M180.028 297.644C179.58 297.529 179.241 297.595 179.206 297.433C179.117 297.18 179.197 296.894 179.182 296.661C179.426 296.647 179.765 296.58 179.8 296.742C179.909 296.924 179.904 297.229 180.028 297.644Z" fill="#FBBE4B"/>
<path d="M189.432 291.785C188.984 291.67 188.645 291.737 188.61 291.574C188.521 291.322 188.601 291.036 188.586 290.802C188.83 290.788 189.169 290.722 189.204 290.884C189.388 291.085 189.308 291.37 189.432 291.785Z" fill="#FBBE4B"/>
<path d="M199.315 285.36C198.827 285.388 198.488 285.455 198.433 285.364C198.324 285.183 198.254 284.858 198.314 284.644C198.334 284.573 198.768 284.454 198.897 284.564C199.101 284.693 199.116 284.926 199.315 285.36Z" fill="#FBBE4B"/>
<path d="M69.0688 259.591C69.0394 259.124 68.97 258.8 69.0647 258.748C69.254 258.643 69.5928 258.577 69.8169 258.634C69.8915 258.653 70.0157 259.068 69.901 259.192C69.7863 259.316 69.4476 259.382 69.0688 259.591Z" fill="#FBBE4B"/>
<path d="M214.359 288.532C214.479 288.103 214.484 287.798 214.693 287.622C214.808 287.499 215.256 287.614 215.256 287.614C215.346 287.866 215.34 288.171 215.206 288.367C215.24 288.529 214.847 288.504 214.359 288.532Z" fill="#FBBE4B"/>
<path d="M223.783 282.602C223.903 282.174 223.908 281.869 224.117 281.693C224.232 281.569 224.68 281.684 224.68 281.684C224.77 281.937 224.764 282.242 224.63 282.437C224.664 282.599 224.271 282.574 223.783 282.602Z" fill="#FBBE4B"/>
<path d="M164.704 69.6773C144.205 89.1555 96.7384 84.5555 77.5852 92.354C60.0563 99.4972 45.3462 122.606 40.4958 142.807C35.6453 163.008 45.9974 186.958 66.3568 194.021C75.1947 197.055 85.0268 196.822 93.9594 199.803C122.475 209.19 129.967 244.507 151.774 264.427C176.959 287.435 217.514 286.125 250.014 274.399C270.681 266.913 290.73 255.055 301.774 236.75C312.819 218.445 312.345 192.665 296.222 178.187C281.705 165.117 255.576 159.789 253.767 140.789C252.514 127.523 265.09 117.194 270.665 104.992C279.38 85.859 269.102 61.9285 250.709 50.6974C232.316 39.4664 214.167 33.6594 195.36 44.2275C186.724 49.0575 171.988 62.8151 164.704 69.6773Z" fill="#FBBE4B"/>
</g>
<defs>
<clipPath id="clip0_31_3">
<rect width="286.013" height="270.849" fill="white" transform="matrix(0.968606 0.248599 -0.269396 0.963029 72.9658 0.406189)"/>
</clipPath>
</defs>
</svg>
