<svg width="350" height="356" viewBox="0 0 350 356" fill="none" xmlns="http://www.w3.org/2000/svg">
<g clip-path="url(#clip0_26_255)">
<path d="M166.545 211.399C170.884 212.544 170.738 217.59 168.086 220.115C166.895 221.212 165.243 221.145 163.825 220.807C163.116 220.638 162.382 220.372 161.736 219.67" fill="#273253"/>
<path d="M196.596 195.043C197.036 197.091 196.223 198.653 194.495 199.844C192.802 200.974 191.21 200.942 189.518 199.955" fill="#273253"/>
<path d="M172.823 208.87C175.133 207.367 177.571 207.892 179.117 210.26C180.724 212.662 180.261 215.162 177.787 216.813C175.408 218.439 173.065 217.888 171.277 215.379C170.529 214.292 170.309 213.268 170.48 211.983" fill="#273253"/>
<path d="M182.905 205.465C185.154 203.926 187.592 204.452 189.234 206.793C190.901 209.231 190.378 211.695 187.904 213.347C185.524 214.973 183.086 214.447 181.454 211.948C179.813 209.607 180.335 207.142 182.905 205.465Z" fill="#273253"/>
<path d="M199.23 189.168C201.418 187.593 204.254 188.269 205.688 190.409C207.098 192.452 206.668 195.459 204.358 196.963C202.179 198.379 199.239 197.887 197.909 195.564" fill="#273253"/>
<path d="M165.8 222.284C167.823 220.858 170.738 221.254 172.319 223.56C173.754 225.7 173.263 228.671 170.928 230.079C168.653 231.521 166.155 230.96 164.625 228.847C162.948 226.566 163.811 223.649 165.8 222.284Z" fill="#273253"/>
<path d="M212.35 176.784C213.785 178.924 213.294 181.895 210.959 183.303C208.685 184.745 206.186 184.184 204.656 182.071" fill="#273253"/>
<path d="M191.085 208.768C189.72 206.507 190.236 203.631 192.476 202.25C194.845 200.781 197.49 201.509 198.95 203.745C200.264 205.814 199.653 208.715 197.569 210.106C195.45 211.558 192.571 211.1 191.085 208.768Z" fill="#273253"/>
<path d="M154.543 232.252C153.134 230.209 153.529 227.263 155.813 225.663C157.932 224.211 160.872 224.704 162.262 227.062C163.688 229.359 163.13 231.884 161.037 233.432C158.778 235.129 155.892 234.26 154.543 232.252Z" fill="#273253"/>
<path d="M145.912 229.174C148.282 227.706 150.65 228.354 152.241 230.503C153.685 232.485 153.255 235.492 150.971 237.092C148.792 238.508 145.947 237.99 144.522 235.693C143.036 233.361 143.612 230.521 145.912 229.174Z" fill="#273253"/>
<path d="M142.232 233.218C143.908 235.498 143.046 238.416 141.057 239.781C139.034 241.207 136.059 240.775 134.538 238.504" fill="#273253"/>
<path d="M219.29 129.281C220.553 131.157 220.009 134.505 218.246 135.757L219.29 129.281Z" fill="#273253"/>
<path d="M181.045 226.612C179.091 227.916 175.789 227.212 174.535 225.178C173.332 223.337 174.033 219.999 175.951 218.756C177.905 217.452 181.207 218.156 182.461 220.19C183.603 221.996 182.903 225.334 181.045 226.612Z" fill="#273253"/>
<path d="M132.089 236.588C133.473 238.535 132.989 241.917 131.096 243.256C129.238 244.535 125.951 244.084 124.653 242.269" fill="#273253"/>
<path d="M216.121 138.346C217.859 136.997 221.327 137.554 222.685 139.404C223.957 141.123 223.378 144.532 221.641 145.88C219.903 147.229 216.435 146.673 215.077 144.822" fill="#273253"/>
<path d="M208.051 192.194C206.813 190.413 207.418 187.101 209.156 185.753C210.954 184.439 214.421 184.995 215.745 186.907C216.982 188.687 216.378 191.999 214.64 193.348C212.842 194.661 209.314 194.07 208.051 192.194Z" fill="#273253"/>
<path d="M190.968 223.766C189.11 225.044 185.591 224.295 184.423 222.393C183.256 220.491 183.956 217.153 185.744 215.997C187.603 214.719 191.121 215.467 192.289 217.37C193.492 219.211 192.792 222.549 190.968 223.766Z" fill="#273253"/>
<path d="M207.626 206.604C205.767 207.882 202.249 207.134 201.081 205.231C199.913 203.329 200.578 200.052 202.402 198.835C204.26 197.557 207.779 198.306 208.946 200.208C210.114 202.11 209.414 205.448 207.626 206.604Z" fill="#273253"/>
<path d="M219.663 171.601C220.604 172.068 221.856 172.554 222.276 173.369C222.747 174.377 223.234 175.638 222.873 176.975C222.521 178.154 221.6 178.92 221.041 179.897C219.821 179.918 218.639 180.858 217.396 180.215C216.455 179.748 215.558 179.062 214.713 178.569" fill="#273253"/>
<path d="M201.929 214.033C203.536 216.435 203.146 218.244 200.671 219.896C198.327 221.46 196.537 221.068 194.845 218.534C193.385 216.298 193.749 214.393 196.033 212.793C198.438 211.264 200.322 211.63 201.929 214.033Z" fill="#273253"/>
<path d="M159.656 236.129C161.905 234.59 163.72 235.079 165.413 237.613C166.873 239.849 166.388 241.683 164.009 243.309C161.664 244.874 159.875 244.482 158.182 241.948C156.722 239.712 157.147 237.842 159.656 236.129Z" fill="#273253"/>
<path d="M174.126 239.843C171.746 241.469 169.957 241.077 168.325 238.578C166.778 236.21 167.168 234.401 169.678 232.689C171.892 231.211 173.777 231.577 175.323 233.944C176.929 236.347 176.54 238.156 174.126 239.843Z" fill="#273253"/>
<path d="M219.574 149.073C221.858 147.473 223.778 147.778 225.298 150.049C227.026 152.522 226.662 154.427 224.378 156.027C221.964 157.714 220.104 157.444 218.498 155.042" fill="#273253"/>
<path d="M153.92 246.303C151.541 247.929 149.656 247.563 148.015 245.222C146.408 242.819 146.772 240.914 149.212 239.323C151.496 237.723 153.381 238.089 154.901 240.361C156.594 242.895 156.265 244.739 153.92 246.303Z" fill="#273253"/>
<path d="M184.979 230.861C186.248 231.6 185.851 232.998 185.795 233.942C185.668 235.009 184.859 236.003 183.782 236.759C182.705 237.516 181.545 237.572 180.62 237.359C179.539 237.136 178.547 236.476 177.869 235.266C177.217 234.153 177.127 233.042 177.279 232.072C177.431 231.102 178.206 230.169 179.188 229.438C180.264 228.682 181.399 228.529 182.324 228.743C183.344 228.93 184.692 229.39 184.979 230.861Z" fill="#273253"/>
<path d="M144.956 244.09C146.225 244.83 145.829 246.227 145.772 247.172C145.646 248.238 144.836 249.232 143.759 249.988C142.682 250.745 141.522 250.801 140.597 250.588C139.517 250.365 138.56 249.644 137.847 248.496C137.195 247.382 137.105 246.271 137.257 245.301C137.409 244.331 138.183 243.398 139.165 242.668C140.181 241.876 141.376 241.758 142.301 241.972C143.287 242.221 144.669 242.62 144.956 244.09Z" fill="#273253"/>
<path d="M219.689 104.35C220.71 104.537 222.092 104.936 222.345 106.468C223.613 107.208 223.217 108.605 223.16 109.55C223.034 110.616 222.224 111.61 221.147 112.366C220.07 113.123 218.91 113.179 217.985 112.966" fill="#273253"/>
<path d="M217.424 202.708C216.631 203.955 215.204 203.775 214.183 203.587C213.223 203.435 212.266 202.714 211.544 201.723C210.797 200.635 210.707 199.524 210.859 198.554C211.02 197.426 211.795 196.494 212.811 195.702C213.863 194.849 215.048 194.889 215.948 195.006C216.873 195.22 217.909 195.661 218.622 196.81C219.248 197.827 219.65 198.956 219.402 199.952C219.12 201.009 218.88 202.416 217.424 202.708Z" fill="#273253"/>
<path d="M223.229 159.022C224.29 158.012 225.352 158.55 226.442 158.615C227.688 158.69 228.238 159.418 228.935 160.313C229.778 161.374 229.686 162.38 229.43 163.533C229.014 165.246 229.075 165.281 227.512 166.324C226.763 167.353 225.605 166.841 224.455 166.74C223.149 166.63 222.573 165.806 221.781 164.937" fill="#273253"/>
<path d="M193.813 233.161C191.954 234.439 189.24 233.834 188.012 231.896C186.809 230.055 187.411 227.311 189.365 226.007C191.153 224.851 193.807 225.421 195.01 227.263C196.273 229.139 195.766 231.857 193.813 233.161Z" fill="#273253"/>
<path d="M224.777 122.219C222.884 123.558 220.195 123.049 218.932 121.173C217.694 119.392 218.14 116.639 219.843 115.352C221.736 114.013 224.495 114.4 225.733 116.18C227.082 118.188 226.635 120.941 224.777 122.219Z" fill="#273253"/>
<path d="M224.273 189.6C222.415 190.878 219.666 190.334 218.438 188.396C217.175 186.519 217.777 183.776 219.695 182.533C221.484 181.377 224.138 181.947 225.375 183.727C226.673 185.543 226.132 188.322 224.273 189.6Z" fill="#273253"/>
<path d="M222.327 131.296C221.064 129.419 221.605 126.64 223.463 125.362C225.322 124.084 228.036 124.69 229.264 126.627C230.407 128.433 229.9 131.151 228.137 132.403C226.279 133.682 223.59 133.172 222.327 131.296Z" fill="#273253"/>
<path d="M210.823 216.368C208.965 217.646 206.215 217.102 204.952 215.225C203.689 213.349 204.291 210.605 206.21 209.362C207.999 208.206 210.688 208.715 211.925 210.496C213.188 212.372 212.681 215.09 210.823 216.368Z" fill="#273253"/>
<path d="M230.84 176.001C228.981 177.279 226.267 176.673 225.039 174.736C223.776 172.859 224.438 170.151 226.392 168.847C228.18 167.691 230.834 168.261 232.072 170.041C233.3 171.979 232.733 174.662 230.84 176.001Z" fill="#273253"/>
<path d="M225.073 141.285C223.81 139.409 224.352 136.63 226.21 135.352C228.068 134.073 230.783 134.679 232.011 136.617C233.153 138.423 232.646 141.14 230.883 142.393C229.086 143.706 226.397 143.197 225.073 141.285Z" fill="#273253"/>
<path d="M134.163 253.107C132.305 254.385 129.556 253.841 128.328 251.903C127.065 250.027 127.666 247.283 129.62 245.979C131.409 244.823 134.063 245.393 135.3 247.174C136.563 249.05 136.057 251.768 134.163 253.107Z" fill="#273253"/>
<path d="M204.127 230.054C202.268 231.332 199.554 230.727 198.326 228.789C197.123 226.948 197.725 224.204 199.679 222.9C201.467 221.744 204.121 222.314 205.324 224.156C206.587 226.032 206.045 228.811 204.127 230.054Z" fill="#273253"/>
<path d="M220.975 212.84C218.926 214.17 216.116 213.591 214.948 211.688C213.781 209.786 214.331 206.85 216.266 205.86C217.203 205.348 218.287 205.003 219.454 205.357C220.499 205.641 221.371 206.231 221.911 207.116C222.513 208.037 222.793 209.096 222.537 210.249C222.34 211.438 221.489 212.082 220.975 212.84Z" fill="#273253"/>
<path d="M122.319 248.888C123.625 248.998 124.347 249.99 125.339 250.649C125.585 251.77 126.186 252.69 125.834 253.87C125.631 254.647 124.663 256.2 124.107 256.609C122.319 257.765 119.69 257.291 118.418 255.572" fill="#273253"/>
<path d="M161.466 251.843C160.435 250.265 161.17 246.866 162.724 245.98C164.312 245.033 167.675 245.772 168.55 247.341C169.425 248.91 168.734 252.091 167.362 253.082C165.799 254.125 162.497 253.421 161.466 251.843Z" fill="#273253"/>
<path d="M177.746 249.853C176.304 250.967 172.932 250.385 171.866 248.867C170.886 247.482 171.361 244.257 172.777 243.047C174.159 241.898 177.506 242.383 178.667 243.875C179.767 245.331 179.188 248.739 177.746 249.853Z" fill="#273253"/>
<path d="M234.373 152.49C232.871 153.569 229.594 152.961 228.528 151.444C227.523 149.962 228.058 146.772 229.5 145.658C230.882 144.509 234.254 145.091 235.415 146.582C236.455 148.003 235.876 151.412 234.373 152.49Z" fill="#273253"/>
<path d="M221.833 198.519C220.802 196.941 221.537 193.542 223.09 192.656C224.679 191.709 228.042 192.448 228.917 194.017C229.792 195.586 229.101 198.767 227.729 199.758C226.201 200.74 222.863 200.097 221.833 198.519Z" fill="#273253"/>
<path d="M158.417 250.554C158.637 251.578 159.134 252.682 158.887 253.678C158.735 254.648 158.071 255.809 157.255 256.391C156.438 256.974 155.174 257.214 154.153 257.026C153.193 256.874 152.081 256.143 151.505 255.319C150.955 254.591 150.718 253.313 150.896 252.439C151.083 251.408 151.651 250.273 152.467 249.691C153.283 249.108 154.548 248.868 155.508 249.021C156.563 249.147 157.451 249.991 158.417 250.554Z" fill="#273253"/>
<path d="M208.373 225.445C208.188 224.359 207.726 223.195 207.973 222.199C208.22 221.203 208.849 220.103 209.726 219.556C210.507 219.034 211.832 218.83 212.818 219.078C213.803 219.327 214.856 220.022 215.396 220.908C215.877 221.758 216.018 223.061 215.831 224.093C215.619 225.028 214.965 226.031 214.183 226.552C213.306 227.1 212.077 227.278 211.117 227.126C210.131 226.877 209.279 225.973 208.373 225.445Z" fill="#273253"/>
<path d="M181.436 245.652C181.251 244.567 180.789 243.402 181.002 242.467C181.249 241.471 181.877 240.372 182.694 239.789C183.51 239.207 184.8 239.063 185.821 239.251C186.806 239.5 187.858 240.195 188.434 241.019C188.985 241.747 189.16 242.99 188.948 243.925C188.701 244.921 188.133 246.055 187.316 246.638C186.5 247.221 185.235 247.46 184.215 247.273C183.229 247.024 182.342 246.181 181.436 245.652Z" fill="#273253"/>
<path d="M234.295 186.159C233.221 186.347 232.102 186.754 231.143 186.601C230.157 186.353 229.07 185.719 228.529 184.833C228.014 184.044 227.812 182.705 228.06 181.709C228.307 180.713 228.996 179.649 229.812 179.066C230.594 178.545 231.823 178.366 232.688 178.544C233.673 178.793 234.856 179.401 235.337 180.252C235.817 181.102 236.339 182.302 235.962 183.385C235.594 184.31 234.914 185.217 234.295 186.159Z" fill="#273253"/>
<path d="M232.263 161.113C231.366 160.428 231.579 159.493 231.705 158.426C231.815 157.106 232.657 156.62 233.508 155.976C234.395 155.271 235.234 155.353 236.263 155.384C237.605 155.433 237.98 156.466 238.651 157.265C239.443 158.134 239.266 159.007 239.14 160.074C238.978 161.201 238.257 161.758 237.501 162.376C236.65 163.02 235.827 163.191 234.711 163.03C233.44 162.858 232.759 162.217 232.263 161.113Z" fill="#273253"/>
<path d="M230.027 209.405C229.347 210.311 228.422 210.098 227.367 209.971C226.061 209.861 225.58 209.011 224.944 208.151C224.248 207.256 224.33 206.409 224.361 205.368C224.411 204.013 225.434 203.632 226.225 202.953C227.05 202.213 227.95 202.33 229.005 202.457C230.121 202.619 230.671 203.347 231.282 204.11C231.918 204.97 232.087 205.801 231.926 206.929C231.79 208.152 231.155 208.841 230.027 209.405Z" fill="#273253"/>
<path d="M201.889 238.196C200.992 237.51 201.204 236.575 201.331 235.509C201.441 234.189 202.283 233.702 203.134 233.058C204.02 232.354 204.859 232.436 205.889 232.466C207.23 232.515 207.606 233.549 208.277 234.347C209.069 235.216 208.892 236.09 208.765 237.156C208.604 238.284 207.883 238.841 207.127 239.458C206.276 240.102 205.453 240.274 204.337 240.112C203.101 239.88 202.385 239.3 201.889 238.196Z" fill="#273253"/>
<path d="M198.014 237.647C198.781 238.419 198.95 239.251 198.788 240.378C198.592 241.567 198.017 242.29 197.106 242.899C196.194 243.508 195.431 243.714 194.376 243.588C193.105 243.416 192.554 242.688 191.918 241.829C191.282 240.969 191.113 240.138 191.335 239.045C191.556 237.953 192.036 237.256 192.913 236.708C193.824 236.1 194.692 235.709 195.893 236.003C196.818 236.216 197.638 236.613 198.014 237.647Z" fill="#273253"/>
<path d="M147.935 254.378C148.702 255.15 148.871 255.982 148.709 257.109C148.513 258.298 147.938 259.021 147.027 259.63C146.115 260.238 145.352 260.445 144.297 260.319C143.026 260.147 142.475 259.419 141.839 258.56C141.203 257.7 141.034 256.869 141.256 255.776C141.477 254.684 141.957 253.986 142.834 253.439C143.745 252.83 144.613 252.44 145.814 252.734C146.739 252.947 147.559 253.344 147.935 254.378Z" fill="#273253"/>
<path d="M225.402 83.0864C226.665 84.9629 226.256 87.0864 224.458 88.3998L225.402 83.0864Z" fill="#273253"/>
<path d="M224.62 217.735C225.883 219.611 225.475 221.735 223.556 222.978C221.698 224.256 219.632 223.784 218.404 221.847C217.261 220.041 217.635 217.978 219.398 216.726C221.256 215.448 223.357 215.858 224.62 217.735Z" fill="#273253"/>
<path d="M132.174 261.801C130.911 259.924 131.38 257.836 133.238 256.558C135.061 255.341 137.162 255.751 138.451 257.724C139.628 259.469 139.159 261.558 137.396 262.81C135.538 264.088 133.437 263.677 132.174 261.801Z" fill="#273253"/>
<path d="M231.975 195.149C230.712 193.272 231.146 191.245 232.858 189.8C234.3 188.687 236.998 189.038 237.969 190.582C239.197 192.519 238.944 194.652 237.181 195.904C235.374 197.375 233.238 197.025 231.975 195.149Z" fill="#273253"/>
<path d="M240.905 138.952C239.047 140.23 236.98 139.759 235.752 137.821C234.55 135.98 235.019 133.891 236.972 132.587C238.666 131.457 240.827 131.903 241.969 133.709C243.172 135.551 242.728 137.735 240.905 138.952Z" fill="#273253"/>
<path d="M232.323 127.759C231.06 125.882 231.529 123.794 233.447 122.551C235.271 121.334 237.337 121.806 238.625 123.779C239.742 125.488 239.299 127.673 237.51 128.829C235.687 130.046 233.586 129.635 232.323 127.759Z" fill="#273253"/>
<path d="M212.254 235.281C210.991 233.405 211.399 231.281 213.318 230.038C215.176 228.76 217.242 229.232 218.47 231.169C219.613 232.976 219.239 235.038 217.476 236.29C215.618 237.568 213.517 237.158 212.254 235.281Z" fill="#273253"/>
<path d="M234.446 118.41C232.587 119.688 230.486 119.277 229.258 117.34C227.995 115.463 228.464 113.375 230.383 112.132C232.171 110.976 234.212 111.351 235.449 113.132C236.712 115.008 236.304 117.132 234.446 118.41Z" fill="#273253"/>
<path d="M240.896 172.499C239.073 173.716 237.007 173.244 235.683 171.333C234.481 169.491 235.01 167.438 236.903 166.099C238.406 165.021 241.025 165.652 241.96 167.256C243.093 169.22 242.754 171.221 240.896 172.499Z" fill="#273253"/>
<path d="M225.889 107.313C224.626 105.436 224.974 103.278 226.832 102C228.595 100.747 230.731 101.097 231.908 102.842C233.231 104.754 232.918 106.851 231.12 108.165C229.287 109.539 227.152 109.189 225.889 107.313Z" fill="#273253"/>
<path d="M223.695 92.2709C225.553 90.9927 227.619 91.4645 228.847 93.4021C229.99 95.2082 229.616 97.2706 227.853 98.5229C225.995 99.8011 223.894 99.3904 222.596 97.5749" fill="#273253"/>
<path d="M176.007 253.318C177.7 252.188 180.224 252.845 181.306 254.616C182.19 256.027 181.477 258.543 180.095 259.692C179.174 260.458 178.093 260.235 177.349 260.127C176.485 259.949 175.509 259.543 174.822 258.49C174.195 257.473 174.814 256.531 174.333 255.681C175.099 254.906 174.812 253.436 176.007 253.318Z" fill="#273253"/>
<path d="M127.117 265.856C125.519 266.96 122.951 266.521 121.92 264.943C120.854 263.426 121.377 260.962 122.698 259.778C123.654 258.951 124.779 258.955 125.644 259.134C126.448 259.277 127.468 259.464 128.06 260.542C128.961 262.208 128.619 264.777 127.117 265.856Z" fill="#273253"/>
<path d="M243.729 182.62C242.75 182.782 241.666 183.128 240.802 182.949C239.937 182.771 239.075 182.024 238.585 181.331C238.13 180.578 237.764 179.387 238.027 178.644C238.361 177.78 238.652 176.566 239.675 176.185C240.508 175.856 241.626 175.449 242.36 175.715C243.155 176.015 244.106 176.325 244.707 177.246C245.308 178.166 245.242 179.268 245.186 180.212C245.199 181.034 244.278 181.8 243.729 182.62Z" fill="#273253"/>
<path d="M170.525 262.907C169.546 263.069 168.513 263.607 167.719 263.307C166.829 263.032 165.662 262.678 165.286 261.644C164.961 260.804 164.56 259.674 164.824 258.931C165.157 258.067 165.448 256.853 166.471 256.472C167.304 256.143 168.422 255.736 169.156 256.002C169.951 256.302 170.927 256.708 171.503 257.533C172.104 258.453 172.038 259.555 171.982 260.499C171.995 261.321 171.074 262.087 170.525 262.907Z" fill="#273253"/>
<path d="M190.47 256.62C189.491 256.782 188.407 257.128 187.543 256.95C186.678 256.771 185.816 256.024 185.326 255.332C184.871 254.578 184.505 253.387 184.768 252.645C185.102 251.78 185.393 250.566 186.416 250.185C187.249 249.856 188.367 249.449 189.101 249.715C189.896 250.015 190.847 250.325 191.448 251.246C192.049 252.166 191.983 253.268 191.927 254.212C191.94 255.034 191.019 255.8 190.47 256.62Z" fill="#273253"/>
<path d="M238.81 147.829C238.625 146.744 238.128 145.64 238.427 144.837C238.725 144.033 238.982 142.88 239.97 142.56C240.863 142.267 241.825 141.851 242.629 141.994C243.494 142.172 244.295 142.884 244.95 143.428C245.812 144.175 245.581 145.425 245.62 146.343C245.573 147.13 244.858 148.098 244.137 148.655C243.451 149.151 242.307 149.461 241.468 149.379C240.543 149.165 239.716 148.357 238.81 147.829Z" fill="#273253"/>
<path d="M236.374 199.994C237.771 199.099 240.737 199.688 241.561 201.064C242.446 202.476 241.764 205.499 240.436 206.272C238.918 207.096 236.359 206.5 235.405 205.211C234.441 204.079 235.046 200.767 236.374 199.994Z" fill="#273253"/>
<path d="M200.535 252.961C199.544 253.849 196.258 253.399 195.278 252.013C194.48 250.733 194.935 247.823 196.117 246.883C197.333 245.882 200.369 246.349 201.383 247.674C202.373 248.902 201.908 251.97 200.535 252.961Z" fill="#273253"/>
<path d="M156.32 259.999C157.718 259.104 160.709 259.79 161.472 261.131C162.357 262.542 161.615 265.53 160.252 266.364C158.924 267.137 156.054 266.522 155.221 265.303C154.336 263.892 155.062 260.65 156.32 259.999Z" fill="#273253"/>
<path d="M228.546 218.476C227.582 217.344 228.187 214.032 229.55 213.198C230.722 212.416 233.455 212.707 234.591 214.102C235.58 215.33 235.115 218.398 233.743 219.389C232.466 220.355 229.465 219.827 228.546 218.476Z" fill="#273253"/>
<path d="M226.951 233.101C226.067 233.237 225.105 233.653 224.059 233.369C223.134 233.156 222.653 232.306 221.859 232.005C221.829 230.929 221.082 229.842 221.71 228.742C222.094 228.071 222.472 226.988 223.044 226.833C223.902 226.6 224.769 226.21 225.85 226.433C226.775 226.646 227.29 227.435 228.05 227.797C228.352 227.973 228.391 228.892 228.579 229.408C228.757 230.082 228.484 230.982 228.196 231.628C227.907 232.274 227.386 232.622 226.951 233.101Z" fill="#273253"/>
<path d="M242.335 157.865C242.28 156.693 241.533 155.606 242.161 154.506C242.545 153.835 242.888 152.813 243.495 152.596C244.483 152.277 245.636 151.809 246.663 152.408C247.328 152.795 248.339 153.141 248.552 153.754C248.842 154.655 249.218 155.689 248.84 156.772C248.602 157.61 247.71 157.904 247.532 158.778C246.528 158.844 245.591 159.356 244.51 159.133C243.55 158.981 243.235 157.983 242.335 157.865Z" fill="#273253"/>
<path d="M205.36 248.608C205.216 247.872 205.073 247.137 204.964 246.341C204.789 245.099 205.684 244.236 206.389 243.426C206.729 242.972 207.698 242.968 208.452 242.918C209.646 242.8 210.604 243.521 211.405 244.233C211.853 244.576 211.952 245.529 212.036 246.229C212.176 247.533 211.427 248.562 210.627 249.398C210.192 249.878 209.162 249.847 208.374 249.958C207.144 250.136 206.396 249.049 205.36 248.608Z" fill="#273253"/>
<path d="M151.292 265.13C152.37 265.922 151.923 267.127 151.485 268.174C151.231 268.759 150.303 269.114 149.773 269.619C149.112 270.211 148.455 270.235 147.65 270.092C146.846 269.949 146.207 269.658 145.848 268.878C145.65 268.518 145.453 268.159 145.186 267.922C144.566 267.316 144.759 266.696 144.927 265.979C145.06 265.324 145.133 264.633 145.905 264.269C146.226 264.131 146.616 263.87 146.851 263.6C147.512 263.008 148.109 262.949 148.974 263.127C149.778 263.27 150.417 263.561 150.777 264.341C150.888 264.569 151.035 264.736 151.292 265.13Z" fill="#273253"/>
<path d="M247.832 187.7C249.155 189.612 248.829 190.887 246.84 192.252C244.947 193.592 243.685 193.263 242.336 191.255C241.013 189.343 241.339 188.068 243.328 186.703C245.186 185.424 246.483 185.692 247.832 187.7Z" fill="#273253"/>
<path d="M219.93 245.946C218.106 247.163 216.654 246.886 215.391 245.01C214.188 243.168 214.464 241.7 216.322 240.422C218.145 239.205 219.598 239.482 220.861 241.359C222.003 243.165 221.693 244.694 219.93 245.946Z" fill="#273253"/>
<path d="M139.885 272.405C138.528 273.65 136.316 273.011 135.311 271.529C134.305 270.047 134.749 267.863 136.216 266.845C137.684 265.828 139.845 266.274 140.851 267.756C141.786 269.36 141.489 271.711 139.885 272.405Z" fill="#273253"/>
<path d="M245.825 167.963C244.623 166.121 244.898 164.653 246.661 163.401C248.485 162.184 249.937 162.461 251.175 164.241C252.377 166.082 252.102 167.55 250.339 168.803C248.541 170.116 247.028 169.804 245.825 167.963Z" fill="#273253"/>
<path d="M243.472 215.615C241.648 216.832 240.161 216.616 238.958 214.775C237.755 212.934 237.971 211.43 239.794 210.213C241.617 208.996 243.105 209.212 244.307 211.053C245.545 212.834 245.235 214.363 243.472 215.615Z" fill="#273253"/>
<path d="M237.853 224.88C238.918 226.397 238.424 228.389 236.705 229.423C235.117 230.37 233.206 229.908 232.185 228.172C231.25 226.568 231.709 224.637 233.428 223.603C234.956 222.621 236.961 223.058 237.853 224.88Z" fill="#273253"/>
<path d="M249.16 178.05C248.47 177.567 248.613 176.754 248.825 175.819C249.002 174.945 249.024 174.062 250.056 173.524C250.768 173.125 251.41 172.847 252.204 173.148C253.034 173.387 253.978 173.286 254.544 174.268C254.964 175.083 255.368 175.644 255.061 176.605C254.728 177.469 254.862 178.362 253.89 178.935C252.397 179.856 250.226 179.568 249.16 178.05Z" fill="#273253"/>
<path d="M193.289 265.919C192.809 266.617 191.945 266.438 191.08 266.26C190.216 266.082 189.342 266.061 188.81 265.018C188.415 264.299 188.142 263.651 188.44 262.847C188.678 262.009 188.579 261.055 189.551 260.482C190.358 260.057 190.913 259.648 191.864 259.958C192.719 260.293 193.602 260.157 194.169 261.139C195.079 262.647 194.791 264.841 193.289 265.919Z" fill="#273253"/>
<path d="M251.08 197.656C252.171 199.27 251.668 201.419 250.26 202.472C249.374 203.177 248.554 202.78 247.68 202.759C246.685 202.667 246.281 202.106 245.696 201.439C244.939 200.509 245.428 199.654 245.51 198.806C245.592 197.958 246.027 197.479 246.653 196.948C247.513 196.147 248.369 196.482 249.233 196.661C250.072 196.743 250.946 196.764 251.08 197.656Z" fill="#273253"/>
<path d="M230.711 237.655C231.802 239.268 231.298 241.418 229.891 242.47C229.005 243.175 228.184 242.778 227.31 242.757C226.316 242.666 225.912 242.105 225.326 241.438C224.569 240.508 225.058 239.652 225.14 238.804C225.222 237.957 225.657 237.477 226.283 236.946C227.144 236.145 227.999 236.481 228.863 236.659C229.728 236.838 230.637 236.798 230.711 237.655Z" fill="#273253"/>
<path d="M184.224 264.868C185.146 265.65 184.622 266.567 184.601 267.45C184.544 268.394 183.953 268.864 183.293 269.456C182.372 270.222 181.561 269.668 180.687 269.647C179.657 269.616 179.262 268.898 178.738 268.266C177.946 267.397 178.53 266.516 178.551 265.633C178.573 264.75 179.129 264.341 179.755 263.81C180.615 263.009 181.436 263.405 182.335 263.523C183.174 263.605 183.909 263.87 184.224 264.868Z" fill="#273253"/>
<path d="M243.853 114.774C243.244 115.559 242.465 115.512 241.575 115.238C240.745 114.998 239.836 115.038 239.305 113.995C238.91 113.277 238.602 112.69 238.9 111.886C239.138 111.048 238.978 110.059 240.011 109.521C240.818 109.095 241.408 108.625 242.324 108.996C243.119 109.297 244.097 109.135 244.629 110.177C245.049 110.992 245.418 111.615 245.11 112.576C244.847 113.318 245.032 114.403 243.853 114.774Z" fill="#273253"/>
<path d="M234.162 84.5294C232.799 85.3635 230.421 84.873 229.657 83.5319C228.833 82.1556 229.382 79.7878 230.744 78.9537C232.072 78.1807 234.294 78.6618 235.093 79.9418C236.098 81.4238 235.264 83.8691 234.162 84.5294Z" fill="#273253"/>
<path d="M174.202 268.309C175.027 269.685 174.539 272.088 173.211 272.861C171.848 273.695 169.505 273.144 168.681 271.767C167.918 270.426 168.396 268.181 169.663 267.372C171.131 266.355 173.525 267.099 174.202 268.309Z" fill="#273253"/>
<path d="M238.573 90.1965C239.398 91.5728 238.849 93.9405 237.487 94.7747C236.124 95.6088 233.721 95.022 232.992 93.6198C232.228 92.2787 232.802 90.0072 234.009 89.1638C235.372 88.3297 237.749 88.8202 238.573 90.1965Z" fill="#273253"/>
<path d="M214.174 254.887C215.017 255.949 214.771 258.492 213.303 259.51C212.096 260.353 209.804 259.994 208.875 258.801C207.886 257.573 208.253 255.1 209.53 254.134C210.807 253.168 213.22 253.598 214.174 254.887Z" fill="#273253"/>
<path d="M248.205 120.406C249.029 121.783 248.541 124.186 247.213 124.959C245.85 125.793 243.508 125.241 242.684 123.865C241.92 122.524 242.398 120.278 243.666 119.47C245.099 118.514 247.492 119.258 248.205 120.406Z" fill="#273253"/>
<path d="M130.124 275.671C128.761 276.505 126.418 275.954 125.594 274.578C124.77 273.201 125.353 270.772 126.741 270.035C128.069 269.262 130.317 269.839 131.15 271.058C131.974 272.434 131.452 274.898 130.124 275.671Z" fill="#273253"/>
<path d="M251.6 130.529C252.57 132.072 251.771 134.457 250.669 135.117C249.306 135.951 246.928 135.461 246.104 134.084C245.306 132.804 245.784 130.559 246.965 129.619C248.042 128.862 250.534 129.012 251.6 130.529Z" fill="#273253"/>
<path d="M254.254 145.188C252.977 146.154 250.625 145.76 249.671 144.47C248.837 143.252 249.16 140.997 250.316 139.96C251.533 138.96 253.92 139.293 254.969 140.556C255.898 141.749 255.566 144.162 254.254 145.188Z" fill="#273253"/>
<path d="M159.076 275.044C158.252 273.667 158.74 271.264 160.068 270.491C161.431 269.657 163.773 270.209 164.597 271.585C165.361 272.926 164.883 275.172 163.615 275.98C162.147 276.997 159.754 276.253 159.076 275.044Z" fill="#273253"/>
<path d="M204.448 258.093C205.402 259.382 205.01 261.759 203.733 262.725C202.526 263.568 200.295 263.245 199.27 262.077C198.281 260.849 198.613 258.437 199.865 257.375C201.142 256.409 203.494 256.803 204.448 258.093Z" fill="#273253"/>
<path d="M241.107 104.785C240.091 105.577 237.538 105.392 236.533 103.91C235.735 102.63 236.118 100.41 237.299 99.4702C238.576 98.5045 240.928 98.8987 241.883 100.188C242.811 101.381 242.384 103.819 241.107 104.785Z" fill="#273253"/>
<path d="M242.318 224.959C242.47 223.989 241.487 223.172 242.011 222.256C242.395 221.584 242.738 220.562 243.345 220.346C244.107 220.139 244.993 219.434 245.9 219.962C246.564 220.35 247.254 220.834 247.884 221.282C247.49 222.111 248.517 222.71 248.209 223.671C247.972 224.51 247.044 224.864 246.962 225.712C246.097 225.534 245.392 226.345 244.372 226.157C243.447 225.943 243.227 224.919 242.318 224.959Z" fill="#273253"/>
<path d="M257.052 188.76C256.229 188.932 255.502 189.077 254.713 189.188C253.674 189.315 253.273 188.185 252.443 187.946C252.525 187.098 251.905 186.492 251.927 185.609C251.958 184.568 253.102 184.258 253.219 183.349C254.049 183.588 254.658 182.804 255.558 182.921C256.553 183.012 256.738 184.098 257.612 184.118C257.816 184.889 258.019 185.659 258.128 186.456C258.383 187.419 257.083 187.719 257.052 188.76Z" fill="#273253"/>
<path d="M257.862 150.712C257.71 151.682 258.632 152.464 258.108 153.381C257.724 154.052 257.312 155.196 256.775 155.291C255.952 155.462 255.091 156.263 254.22 155.674C253.59 155.225 252.519 154.845 252.366 154.267C252.197 153.436 251.466 152.602 252.085 151.66C252.494 151.084 252.802 150.124 253.313 149.933C254.076 149.726 254.962 149.022 255.868 149.55C256.568 149.876 257.232 150.264 257.862 150.712Z" fill="#273253"/>
<path d="M223.29 256.13C222.441 256.206 221.548 256.499 220.744 256.356C220.035 256.187 219.129 255.659 218.821 255.072C218.486 254.388 218.422 253.374 218.625 252.596C218.793 251.88 219.282 251.024 219.898 250.651C220.514 250.277 221.519 250.211 222.227 250.38C222.936 250.549 223.817 250.981 224.186 251.604C224.581 252.322 224.645 253.337 224.502 254.15C224.369 254.805 223.709 255.397 223.29 256.13Z" fill="#273253"/>
<path d="M149.239 278.021C148.062 276.276 148.153 275.271 149.786 274.106C151.419 272.94 152.534 273.102 153.695 274.594C154.977 276.155 154.467 277.894 153.104 278.728C151.48 279.736 150.33 279.635 149.239 278.021Z" fill="#273253"/>
<path d="M236.117 238.201C234.972 236.964 235.492 235.068 236.82 234.295C238.634 233.235 239.559 233.449 240.831 235.168C241.811 236.554 241.336 238.231 239.912 239.03C238.324 239.977 237.208 239.815 236.117 238.201Z" fill="#273253"/>
<path d="M249.602 211.372C248.511 209.758 248.707 208.57 250.305 207.466C252.068 206.213 253.089 206.401 254.291 208.242C255.322 209.821 255.065 210.974 253.468 212.078C251.835 213.244 250.694 212.985 249.602 211.372Z" fill="#273253"/>
<path d="M260.832 194.547C261.777 195.994 261.466 197.523 260.129 198.453C258.696 199.41 257.183 199.097 256.264 197.747C255.319 196.3 255.629 194.771 256.967 193.841C258.4 192.884 259.852 193.161 260.832 194.547Z" fill="#273253"/>
<path d="M232.923 252.382C232.348 253.106 231.563 252.648 230.845 252.636C229.875 252.641 229.611 251.835 229.112 251.3C228.466 250.598 228.79 249.891 228.837 249.104C228.833 248.124 229.631 247.856 230.161 247.351C230.857 246.698 231.556 247.025 232.335 247.071C233.304 247.066 233.568 247.872 234.068 248.408C234.713 249.11 234.45 249.852 234.282 250.569C234.095 251.6 234.095 251.6 232.923 252.382Z" fill="#273253"/>
<path d="M260.068 165.028C258.67 165.924 257.157 165.612 256.212 164.165C255.328 162.753 255.638 161.224 257.071 160.268C258.468 159.373 259.982 159.685 260.926 161.131C261.811 162.543 261.5 164.072 260.068 165.028Z" fill="#273253"/>
<path d="M196.521 275.622C195.358 276.247 193.696 276.336 192.665 274.758C191.953 273.61 191.961 271.904 193.489 270.922C194.626 270.201 196.314 270.208 197.284 271.751C198.032 272.838 197.963 274.508 196.521 275.622Z" fill="#273253"/>
<path d="M182.549 278.224C181.82 276.822 182.009 275.223 183.468 274.363C184.83 273.529 186.439 273.815 187.288 275.287C188.112 276.664 187.827 278.289 186.369 279.149C185.041 279.922 183.528 279.61 182.549 278.224Z" fill="#273253"/>
<path d="M243.145 248.732C241.877 249.541 240.088 249.149 239.254 247.93C238.456 246.65 238.845 244.841 240.052 243.998C241.32 243.189 243.109 243.581 243.943 244.8C244.741 246.08 244.412 247.924 243.145 248.732Z" fill="#273253"/>
<path d="M206.187 272.381C204.884 273.25 203.069 272.762 202.322 271.674C201.463 270.359 201.948 268.525 203.024 267.768C204.327 266.899 206.142 267.387 206.889 268.474C207.844 269.764 207.359 271.598 206.187 272.381Z" fill="#273253"/>
<path d="M176.574 282.477C175.176 283.372 173.628 283.121 172.674 281.832C171.659 280.507 172.039 278.856 173.281 277.951C174.593 276.925 176.227 277.307 177.121 278.561C178.135 279.886 177.73 281.441 176.574 282.477Z" fill="#273253"/>
<path d="M264.261 171.219C265.12 172.535 264.635 174.369 263.558 175.126C262.255 175.995 260.44 175.507 259.693 174.419C258.834 173.104 259.319 171.27 260.396 170.513C261.733 169.583 263.488 170.036 264.261 171.219Z" fill="#273253"/>
<path d="M252.8 221.136C252.001 219.856 252.331 218.012 253.503 217.229C254.71 216.386 256.595 216.752 257.368 217.936C258.201 219.155 257.837 221.06 256.665 221.842C255.423 222.747 253.573 222.319 252.8 221.136Z" fill="#273253"/>
<path d="M143.082 282.168C141.554 283.151 139.93 282.611 139.182 281.523C138.116 280.006 138.713 278.399 139.825 277.582C141.327 276.503 142.917 277.104 143.725 278.227C144.79 279.744 144.073 281.28 143.082 282.168Z" fill="#273253"/>
<path d="M246.173 234.699C245.375 233.419 245.764 231.611 246.972 230.767C248.239 229.959 250.029 230.351 250.862 231.57C251.661 232.85 251.271 234.659 250.064 235.502C248.796 236.31 246.972 235.979 246.173 234.699Z" fill="#273253"/>
<path d="M216.371 269.361C214.922 270.063 213.399 269.908 212.55 268.436C211.726 267.059 212.011 265.434 213.469 264.574C214.832 263.74 216.44 264.026 217.29 265.499C218.053 266.84 217.743 268.369 216.371 269.361Z" fill="#273253"/>
<path d="M259.268 208.131C258.753 207.342 259.259 204.624 260.006 204.164C260.752 203.703 263.165 204.132 263.75 204.799C264.335 205.466 263.924 208.158 263.168 208.776C262.472 209.429 259.844 208.955 259.268 208.131Z" fill="#273253"/>
<path d="M222.657 265.127C222.107 264.399 222.578 261.742 223.395 261.159C224.081 260.664 226.528 261.032 227.174 261.734C227.759 262.401 227.383 265.032 226.652 265.746C225.931 266.303 223.328 265.925 222.657 265.127Z" fill="#273253"/>
<path d="M267.63 181.246C268.197 182.228 267.795 184.763 266.988 185.188C266.502 185.475 265.844 185.498 265.316 185.435C263.292 185.313 262.493 184.033 263.013 182.137C263.374 180.801 264.191 180.218 265.523 180.425C266.327 180.568 267.052 180.99 267.63 181.246Z" fill="#273253"/>
<path d="M236.951 258.721C237.871 260.071 237.658 261.006 236.321 261.937C234.853 262.954 234.024 262.715 232.993 261.136C232.134 259.821 232.407 258.921 233.839 257.965C235.142 257.096 236.006 257.274 236.951 258.721Z" fill="#273253"/>
<path d="M132.768 285.276C131.396 286.267 130.471 286.053 129.551 284.703C128.546 283.221 128.723 282.347 130.191 281.33C131.528 280.399 132.418 280.674 133.398 282.06C134.318 283.41 134.105 284.345 132.768 285.276Z" fill="#273253"/>
<path d="M162.69 284.643C161.71 283.257 161.922 282.322 163.26 281.392C164.727 280.375 165.592 280.553 166.597 282.035C167.517 283.385 167.304 284.32 165.906 285.215C164.534 286.207 163.609 285.993 162.69 284.643Z" fill="#273253"/>
<path d="M257.42 117.391C258.399 118.777 258.187 119.711 256.85 120.642C255.382 121.659 254.518 121.481 253.512 119.999C252.593 118.648 252.865 117.749 254.238 116.757C255.575 115.827 256.5 116.04 257.42 117.391Z" fill="#273253"/>
<path d="M259.377 231.892C258.039 232.823 257.114 232.609 256.195 231.259C255.19 229.777 255.427 228.938 256.99 227.895C258.293 227.026 259.183 227.3 260.128 228.747C260.987 230.062 260.809 230.936 259.377 231.892Z" fill="#273253"/>
<path d="M250.257 100.755C248.825 101.711 247.925 101.594 247.066 100.279C246.121 98.832 246.178 97.8877 247.48 97.0184C248.983 95.94 249.882 96.0573 250.827 97.504C251.772 98.9508 251.595 99.8246 250.257 100.755Z" fill="#273253"/>
<path d="M253.652 110.878C252.28 111.87 251.355 111.656 250.401 110.367C249.395 108.885 249.512 107.976 251.04 106.994C252.378 106.063 253.302 106.277 254.187 107.688C255.167 109.074 255.05 109.983 253.652 110.878Z" fill="#273253"/>
<path d="M260.175 130.887C258.837 131.818 257.912 131.604 256.993 130.254C255.988 128.772 256.225 127.933 257.788 126.89C259.091 126.02 259.981 126.295 260.926 127.742C261.82 128.996 261.607 129.931 260.175 130.887Z" fill="#273253"/>
<path d="M263.179 141.271C261.841 142.202 260.916 141.988 260.032 140.576C259.087 139.13 259.264 138.256 260.827 137.213C262.13 136.343 262.959 136.583 263.965 138.065C264.884 139.415 264.611 140.315 263.179 141.271Z" fill="#273253"/>
<path d="M263.427 150.7C262.74 149.647 263.015 148.179 264.057 147.484C265.229 146.701 266.742 147.014 267.385 148.284C268.003 149.459 267.806 150.647 266.599 151.491C265.592 152.125 264.114 151.752 263.427 150.7Z" fill="#273253"/>
<path d="M266.296 218.662C265.219 219.419 263.862 219.116 263.079 218.09C262.271 216.967 262.581 215.438 263.719 214.716C264.726 214.082 266.239 214.394 266.926 215.446C267.674 216.534 267.373 217.906 266.296 218.662Z" fill="#273253"/>
<path d="M156.276 288.395C155.294 289.126 153.807 288.91 153.085 287.919C152.251 286.7 152.473 285.608 153.499 284.659C154.585 283.745 156.098 284.057 156.846 285.144C157.593 286.232 157.318 287.7 156.276 288.395Z" fill="#273253"/>
<path d="M269.467 194.94C268.39 195.697 266.912 195.323 266.251 194.367C265.477 193.184 265.753 191.716 266.986 190.968C267.993 190.334 269.531 190.743 270.158 191.759C270.845 192.812 270.544 194.183 269.467 194.94Z" fill="#273253"/>
<path d="M247.193 90.3358C246.151 91.0313 244.724 90.8507 243.976 89.7633C243.254 88.7722 243.469 87.2688 244.39 86.5029C245.502 85.6853 246.989 85.9011 247.762 87.0848C248.51 88.1722 248.2 89.7014 247.193 90.3358Z" fill="#273253"/>
<path d="M252.775 245.553C251.734 246.248 250.316 245.91 249.629 244.858C248.77 243.543 249.487 242.006 250.424 241.494C251.491 240.895 252.97 241.268 253.561 242.346C254.153 243.424 253.782 244.918 252.775 245.553Z" fill="#273253"/>
<path d="M244.393 77.058C244.934 77.9435 244.449 79.778 243.667 80.2996C242.791 80.8471 240.976 80.3588 240.46 79.5697C239.919 78.6843 240.404 76.8497 241.186 76.3281C242.063 75.7806 243.852 76.1726 244.393 77.058Z" fill="#273253"/>
<path d="M269.901 161.071C269.085 161.654 267.261 161.323 266.685 160.499C266.109 159.674 266.438 157.83 267.255 157.248C268.071 156.665 269.895 156.996 270.471 157.82C271.047 158.645 270.718 160.488 269.901 161.071Z" fill="#273253"/>
<path d="M242.709 258.088C242.134 257.264 242.498 255.359 243.375 254.811C244.191 254.229 246.076 254.595 246.617 255.48C247.192 256.304 246.828 258.21 245.952 258.757C245.135 259.34 243.285 258.912 242.709 258.088Z" fill="#273253"/>
<path d="M219.441 278.643C218.85 279.113 216.714 278.763 216.189 278.131C215.725 277.535 216.073 275.376 216.698 274.845C217.289 274.375 219.425 274.725 219.95 275.357C220.449 275.892 220.066 278.112 219.441 278.643Z" fill="#273253"/>
<path d="M206.142 281.476C205.773 280.853 206.156 278.634 206.807 278.199C207.424 277.825 209.62 278.21 210.049 278.868C210.419 279.49 210.036 281.71 209.384 282.145C208.768 282.518 206.572 282.133 206.142 281.476Z" fill="#273253"/>
<path d="M190.302 285.514C190.766 286.111 190.323 288.295 189.732 288.765C189.141 289.235 186.98 288.789 186.516 288.192C186.051 287.596 186.495 285.411 187.085 284.941C187.641 284.533 189.838 284.917 190.302 285.514Z" fill="#273253"/>
<path d="M273.261 171.255C272.61 171.69 270.388 171.209 270.019 170.586C269.59 169.929 270.068 167.683 270.684 167.31C271.336 166.875 273.557 167.356 273.927 167.978C274.321 168.697 273.878 170.882 273.261 171.255Z" fill="#273253"/>
<path d="M272.957 205.037C272.341 205.411 270.145 205.026 269.715 204.369C269.346 203.746 269.729 201.526 270.38 201.092C270.997 200.718 273.193 201.103 273.622 201.761C273.992 202.383 273.513 204.629 272.957 205.037Z" fill="#273253"/>
<path d="M199.398 285.524C198.807 285.994 196.671 285.644 196.146 285.013C195.682 284.416 196.03 282.257 196.656 281.726C197.246 281.257 199.382 281.606 199.907 282.238C200.372 282.834 200.023 284.993 199.398 285.524Z" fill="#273253"/>
<path d="M227.435 271.985C228.773 271.054 228.954 271.16 229.994 272.581C230.914 273.931 230.834 274.211 229.271 275.254C228.099 276.036 227.727 275.982 226.817 274.475C225.924 273.22 225.968 273.002 227.435 271.985Z" fill="#273253"/>
<path d="M143.307 290.932C142.388 289.582 142.493 289.398 143.9 288.346C145.237 287.415 145.514 287.495 146.545 289.074C147.318 290.257 147.204 290.598 145.771 291.554C144.494 292.52 144.278 292.475 143.307 290.932Z" fill="#273253"/>
<path d="M169.104 294.979C168.288 295.562 167.112 295.365 166.501 294.602C165.804 293.707 166.035 292.457 167.007 291.884C167.789 291.362 169.025 291.594 169.541 292.384C170.117 293.208 169.92 294.397 169.104 294.979Z" fill="#273253"/>
<path d="M269.271 227.97C268.454 228.553 267.304 228.452 266.693 227.689C266.057 226.829 266.227 225.544 267.079 224.901C267.86 224.379 269.036 224.576 269.647 225.339C270.283 226.199 270.087 227.388 269.271 227.97Z" fill="#273253"/>
<path d="M239.539 269.269C240.115 270.094 239.919 271.282 239.198 271.839C238.311 272.544 237.075 272.312 236.474 271.391C235.958 270.602 236.189 269.352 236.971 268.831C237.848 268.283 238.989 268.541 239.539 269.269Z" fill="#273253"/>
<path d="M260.041 241.156C259.465 240.332 259.661 239.143 260.417 238.525C261.303 237.821 262.54 238.053 263.106 239.035C263.622 239.824 263.391 241.073 262.609 241.595C261.793 242.178 260.617 241.981 260.041 241.156Z" fill="#273253"/>
<path d="M276.094 214.766C275.278 215.349 274.102 215.152 273.526 214.327C272.864 213.371 273.121 212.218 274.033 211.609C274.875 211.123 276.016 211.381 276.592 212.206C277.167 213.03 276.876 214.244 276.094 214.766Z" fill="#273253"/>
<path d="M276.198 181.193C275.382 181.776 274.231 181.675 273.621 180.912C272.984 180.052 273.155 178.767 274.067 178.159C274.848 177.637 276.024 177.834 276.635 178.597C277.116 179.448 276.919 180.636 276.198 181.193Z" fill="#273253"/>
<path d="M253.182 254.422C252.606 253.598 252.707 252.435 253.523 251.852C254.41 251.147 255.646 251.38 256.247 252.3C256.763 253.089 256.532 254.339 255.75 254.861C254.934 255.443 253.758 255.246 253.182 254.422Z" fill="#273253"/>
<path d="M176.557 291.1C175.981 290.276 176.178 289.087 176.934 288.469C177.82 287.764 179.056 287.997 179.623 288.978C180.138 289.767 179.907 291.017 179.125 291.539C178.344 292.06 177.107 291.828 176.557 291.1Z" fill="#273253"/>
<path d="M136.061 295.013C135.775 295.091 135.584 295.143 135.429 295.133C134.841 295.035 134.218 294.997 133.639 294.741C133.423 294.697 133.286 294.373 133.21 294.084C133.159 293.891 133.298 293.647 133.343 293.428C133.707 291.523 133.446 291.697 135.331 292.063C136.447 292.225 136.663 292.27 136.337 293.545C136.213 294.043 136.15 294.577 136.061 295.013Z" fill="#273253"/>
<path d="M277.041 191.131C276.965 190.842 276.879 190.711 276.853 190.614C276.951 190.02 277.084 189.365 277.182 188.77C277.306 188.272 277.592 188.195 278.024 188.284C278.517 188.408 279.08 188.411 279.598 188.631C279.814 188.676 280.106 189.01 280.062 189.228C279.99 189.919 279.822 190.635 279.689 191.29C279.619 191.413 279.454 191.561 279.358 191.586C278.589 191.382 277.785 191.239 277.041 191.131Z" fill="#273253"/>
<path d="M265.902 251.333C265.085 251.916 264.523 251.913 263.973 251.185C263.362 250.422 263.4 249.793 264.06 249.201C264.946 248.496 265.569 248.533 266.145 249.358C266.721 250.182 266.623 250.776 265.902 251.333Z" fill="#273253"/>
<path d="M248.926 268.065C248.11 268.648 247.582 268.584 246.972 267.821C246.396 266.997 246.399 266.428 247.12 265.872C248.006 265.167 248.594 265.265 249.23 266.125C249.806 266.949 249.708 267.543 248.926 268.065Z" fill="#273253"/>
<path d="M276.574 145.173C277.15 145.997 277.087 146.53 276.27 147.113C275.324 147.782 274.831 147.658 274.23 146.737C273.714 145.948 273.873 145.389 274.689 144.806C275.506 144.224 275.998 144.348 276.574 145.173Z" fill="#273253"/>
<path d="M272.468 237.734C271.652 238.317 271.124 238.254 270.539 237.587C269.928 236.823 269.966 236.194 270.626 235.602C271.513 234.897 272.101 234.995 272.737 235.855C273.287 236.583 273.189 237.177 272.468 237.734Z" fill="#273253"/>
<path d="M273.24 135.085C273.755 135.874 273.597 136.433 272.815 136.954C271.938 137.502 271.35 137.403 270.784 136.422C270.329 135.668 270.522 135.048 271.364 134.561C272.146 134.04 272.699 134.199 273.24 135.085Z" fill="#273253"/>
<path d="M269.325 126.857C268.543 127.379 267.99 127.219 267.475 126.43C266.934 125.545 267.032 124.95 268.004 124.377C268.751 123.917 269.364 124.111 269.845 124.962C270.325 125.812 270.202 126.31 269.325 126.857Z" fill="#273253"/>
<path d="M264.633 116.466C264.057 115.642 264.216 115.083 264.937 114.526C265.849 113.918 266.376 113.981 267.003 114.998C267.518 115.787 267.36 116.346 266.483 116.894C265.737 117.354 265.209 117.291 264.633 116.466Z" fill="#273253"/>
<path d="M261.178 106.308C260.602 105.484 260.761 104.925 261.482 104.368C262.393 103.759 262.921 103.823 263.548 104.84C264.063 105.629 263.905 106.188 263.028 106.735C262.342 107.231 261.754 107.133 261.178 106.308Z" fill="#273253"/>
<path d="M159.129 296.085C159.704 296.909 159.641 297.443 158.885 298.06C158.069 298.643 157.506 298.641 156.956 297.913C156.259 297.018 156.358 296.424 157.209 295.78C158.025 295.197 158.553 295.261 159.129 296.085Z" fill="#273253"/>
<path d="M220.4 287.672C219.824 286.847 219.888 286.314 220.644 285.696C221.46 285.114 222.022 285.116 222.573 285.844C223.269 286.739 223.171 287.333 222.32 287.977C221.504 288.559 220.976 288.496 220.4 287.672Z" fill="#273253"/>
<path d="M212.602 289.477C213.178 290.302 213.115 290.835 212.359 291.453C211.543 292.035 210.98 292.033 210.43 291.305C209.733 290.41 209.831 289.816 210.682 289.172C211.499 288.59 212.087 288.688 212.602 289.477Z" fill="#273253"/>
<path d="M232.515 282.683C232.373 283.496 232.24 284.151 232.046 284.771C231.932 285.112 230.012 284.807 230.066 284.431C230.043 283.766 230.065 282.883 230.491 282.561C230.821 282.265 231.676 282.601 232.515 282.683Z" fill="#273253"/>
<path d="M189.783 297.834C190.021 296.996 190.058 296.366 190.312 295.781C190.487 295.476 192.311 295.807 192.318 296.218C192.28 296.847 192.224 297.791 191.833 298.052C191.442 298.313 190.622 297.916 189.783 297.834Z" fill="#273253"/>
<path d="M256.385 86.6558C255.555 86.4163 254.681 86.3954 254.423 86.0008C254.165 85.6062 254.499 84.7418 254.692 84.1216C254.806 83.781 256.691 84.1471 256.698 84.5581C256.66 85.1876 256.527 85.843 256.385 86.6558Z" fill="#273253"/>
<path d="M283.088 198.729C282.85 199.567 282.828 200.45 282.438 200.711C282.047 200.972 281.192 200.636 280.578 200.441C280.241 200.326 280.666 198.457 281.012 198.414C281.575 198.417 282.249 198.647 283.088 198.729Z" fill="#273253"/>
<path d="M279.907 157.377C279.103 157.234 278.219 157.37 277.901 156.94C277.583 156.511 277.821 155.672 277.954 155.017C277.973 154.702 279.902 154.849 280.004 155.235C280.061 155.838 279.894 156.555 279.907 157.377Z" fill="#273253"/>
<path d="M279.882 222.512C279.644 223.35 279.622 224.234 279.231 224.494C278.841 224.755 277.986 224.42 277.372 224.225C277.035 224.11 277.46 222.24 277.806 222.197C278.464 222.174 279.077 222.369 279.882 222.512Z" fill="#273253"/>
<path d="M202.449 295.121C201.645 294.978 200.962 294.905 200.383 294.649C200.046 294.534 200.35 292.594 200.722 292.648C201.379 292.624 202.253 292.645 202.511 293.04C202.829 293.47 202.531 294.273 202.449 295.121Z" fill="#273253"/>
<path d="M260.207 94.3407C260.064 95.1534 260.198 96.046 259.773 96.3679C259.347 96.6897 258.517 96.4503 257.869 96.3165C257.557 96.2978 257.705 94.3482 258.087 94.2448C258.719 94.1249 259.428 94.2938 260.207 94.3407Z" fill="#273253"/>
<path d="M259.059 264.852C258.229 264.613 257.607 264.575 257.028 264.319C256.691 264.204 257.055 262.299 257.462 262.292C258.085 262.33 259.019 262.386 259.277 262.78C259.535 263.175 259.141 264.004 259.059 264.852Z" fill="#273253"/>
<path d="M148.997 300.846C148.145 301.49 148.145 301.49 147.57 300.665C147.226 300.139 147.089 299.815 147.74 299.38C148.617 298.833 148.557 298.798 149.168 299.561C149.511 300.087 149.673 300.507 148.997 300.846Z" fill="#273253"/>
<path d="M182.331 299.597C182.805 300.036 182.812 300.447 182.196 300.821C181.319 301.368 181.379 301.404 180.768 300.64C180.425 300.114 180.288 299.79 180.939 299.355C181.721 298.834 181.756 298.773 182.331 299.597Z" fill="#273253"/>
<path d="M281.989 166.979C281.293 167.632 281.089 166.862 280.832 166.467C280.342 165.774 280.437 165.748 281.288 165.105C282.07 164.583 282.188 165.222 282.446 165.616C282.961 166.406 282.961 166.406 281.989 166.979Z" fill="#273253"/>
<path d="M241.619 280.988C241.054 281.554 240.761 281.22 240.453 280.633C239.972 279.783 239.937 279.844 240.789 279.2C241.379 278.73 241.647 278.968 241.99 279.494C242.496 280.44 242.496 280.44 241.619 280.988Z" fill="#273253"/>
<path d="M285.712 210.764C285.098 210.569 284.536 210.567 284.399 210.243C284.227 209.98 284.481 209.395 284.535 209.019C285.028 209.143 285.565 209.049 285.892 209.322C286.038 209.489 285.81 210.17 285.712 210.764Z" fill="#273253"/>
<path d="M285.851 177.13C285.263 177.032 284.856 177.039 284.459 176.888C284.122 176.773 284.223 175.611 284.604 175.507C284.985 175.404 285.608 175.441 285.78 175.704C285.952 175.967 285.793 176.526 285.851 177.13Z" fill="#273253"/>
<path d="M282.663 232.44C282.47 233.06 282.457 233.786 282.267 233.838C281.886 233.941 281.367 233.721 280.875 233.596C280.963 233.159 280.966 232.591 281.227 232.417C281.427 232.208 281.98 232.367 282.663 232.44Z" fill="#273253"/>
<path d="M275.941 246.03C275.843 246.624 275.85 247.035 275.701 247.437C275.586 247.777 274.436 247.677 274.334 247.291C274.232 246.906 274.27 246.277 274.53 246.103C274.765 245.833 275.318 245.992 275.941 246.03Z" fill="#273253"/>
<path d="M252.235 278.057C251.647 277.958 251.18 277.93 250.818 277.719C250.455 277.507 250.677 276.415 251.058 276.312C251.439 276.208 252.027 276.307 252.26 276.605C252.431 276.868 252.273 277.427 252.235 278.057Z" fill="#273253"/>
<path d="M268.289 260.543C268.072 260.498 267.786 260.576 267.475 260.557C267.564 260.12 267.687 259.622 267.776 259.185C268.208 259.274 268.71 259.241 268.978 259.479C269.382 260.04 268.593 260.15 268.289 260.543Z" fill="#273253"/>
<path d="M183.877 310.841C184.087 310.475 184.166 310.195 184.392 310.082C184.522 309.995 184.884 310.207 184.884 310.207C184.901 310.46 184.821 310.74 184.656 310.888C184.647 311.045 184.345 310.869 183.877 310.841Z" fill="#273253"/>
<path d="M223.935 297.551C224.144 297.184 224.224 296.905 224.449 296.792C224.579 296.705 224.942 296.916 224.942 296.916C224.958 297.17 224.879 297.449 224.713 297.598C224.704 297.755 224.367 297.64 223.935 297.551Z" fill="#273253"/>
<path d="M285.958 142.989C285.525 142.9 285.214 142.881 285.188 142.785C285.137 142.592 285.156 142.277 285.261 142.094C285.296 142.033 285.703 142.026 285.789 142.157C285.935 142.324 285.856 142.604 285.958 142.989Z" fill="#273253"/>
<path d="M215.527 300.141C215.318 300.507 215.299 300.822 215.143 300.813C214.892 300.829 214.651 300.688 214.434 300.644C214.479 300.425 214.498 300.11 214.653 300.12C214.879 300.007 215.155 300.087 215.527 300.141Z" fill="#273253"/>
<path d="M281.387 132.668C281.596 132.302 281.675 132.022 281.901 131.91C282.031 131.823 282.394 132.034 282.394 132.034C282.41 132.288 282.331 132.567 282.165 132.715C282.156 132.873 281.854 132.697 281.387 132.668Z" fill="#273253"/>
<path d="M137.481 303.66C137.63 303.258 137.614 303.004 137.779 302.856C137.849 302.734 138.186 302.849 138.342 302.858C138.298 303.077 138.374 303.366 138.234 303.61C138.2 303.671 137.888 303.652 137.481 303.66Z" fill="#273253"/>
<path d="M172.11 303.247C171.9 303.613 171.881 303.928 171.726 303.919C171.475 303.935 171.233 303.794 171.017 303.75C171.061 303.531 171.08 303.216 171.236 303.226C171.426 303.174 171.643 303.219 172.11 303.247Z" fill="#273253"/>
<path d="M287.992 153.378C288.141 152.976 288.125 152.722 288.325 152.513C288.395 152.391 288.732 152.506 288.888 152.515C288.844 152.734 288.92 153.023 288.78 153.267C288.745 153.328 288.434 153.309 287.992 153.378Z" fill="#273253"/>
<path d="M279.365 123.102C278.933 123.013 278.621 122.994 278.596 122.898C278.545 122.705 278.564 122.39 278.669 122.207C278.703 122.146 279.11 122.139 279.196 122.27C279.282 122.402 279.263 122.717 279.365 123.102Z" fill="#273253"/>
<path d="M292.221 229.951C292.012 230.317 291.993 230.632 291.837 230.623C291.586 230.639 291.344 230.498 291.128 230.454C291.173 230.235 291.191 229.921 291.347 229.93C291.538 229.878 291.754 229.923 292.221 229.951Z" fill="#273253"/>
<path d="M194.02 307.471C194.169 307.069 194.153 306.816 194.353 306.606C194.423 306.484 194.76 306.599 194.915 306.609C194.871 306.827 194.947 307.116 194.808 307.36C194.798 307.518 194.426 307.464 194.02 307.471Z" fill="#273253"/>
<path d="M151.562 310.73C151.165 310.579 150.914 310.596 150.707 310.394C150.586 310.323 150.7 309.983 150.71 309.825C150.926 309.87 151.212 309.792 151.454 309.933C151.609 309.943 151.555 310.318 151.562 310.73Z" fill="#273253"/>
<path d="M276.087 112.07C275.878 112.436 275.859 112.751 275.703 112.741C275.452 112.758 275.211 112.617 274.994 112.572C275.039 112.354 275.058 112.039 275.213 112.049C275.404 111.997 275.681 112.077 276.087 112.07Z" fill="#273253"/>
<path d="M288.814 220.554C288.452 220.342 288.175 220.262 288.064 220.035C287.978 219.903 288.187 219.537 288.187 219.537C288.438 219.52 288.715 219.6 288.861 219.767C289.017 219.776 288.903 220.117 288.814 220.554Z" fill="#273253"/>
<path d="M272.741 102.708C272.378 102.496 272.102 102.416 271.99 102.189C271.904 102.057 272.114 101.691 272.114 101.691C272.365 101.674 272.641 101.754 272.788 101.921C272.943 101.93 272.769 102.235 272.741 102.708Z" fill="#273253"/>
<path d="M162.053 306.749C161.844 307.115 161.825 307.43 161.669 307.42C161.418 307.437 161.177 307.296 160.96 307.251C161.005 307.033 161.024 306.718 161.179 306.728C161.405 306.615 161.621 306.659 162.053 306.749Z" fill="#273253"/>
<path d="M205.036 304.122C204.638 303.971 204.387 303.988 204.181 303.786C204.06 303.716 204.174 303.375 204.183 303.218C204.4 303.262 204.686 303.185 204.927 303.325C205.083 303.335 205.029 303.711 205.036 304.122Z" fill="#273253"/>
<path d="M268.421 92.3708C268.57 91.9691 268.554 91.7154 268.754 91.5063C268.824 91.3842 269.161 91.4992 269.316 91.5085C269.272 91.727 269.349 92.0159 269.209 92.2602C269.139 92.3824 268.862 92.3026 268.421 92.3708Z" fill="#273253"/>
<path d="M295.723 205.933C295.513 206.299 295.495 206.614 295.339 206.605C295.088 206.621 294.846 206.48 294.63 206.436C294.674 206.217 294.693 205.903 294.849 205.912C295.04 205.86 295.316 205.94 295.723 205.933Z" fill="#273253"/>
<path d="M292.586 196.204C292.376 196.571 292.357 196.885 292.202 196.876C291.951 196.893 291.709 196.752 291.493 196.707C291.537 196.489 291.556 196.174 291.712 196.183C291.937 196.07 292.179 196.211 292.586 196.204Z" fill="#273253"/>
<path d="M289.044 185.914C288.956 186.351 288.937 186.666 288.842 186.692C288.651 186.744 288.339 186.725 288.158 186.619C288.098 186.584 288.091 186.173 288.221 186.086C288.387 185.938 288.603 185.983 289.044 185.914Z" fill="#273253"/>
<path d="M235.132 294.307C234.7 294.218 234.388 294.199 234.363 294.103C234.312 293.91 234.331 293.596 234.436 293.412C234.471 293.351 234.877 293.344 234.963 293.476C235.049 293.607 235.03 293.922 235.132 294.307Z" fill="#273253"/>
<path d="M295.449 173.443C295.087 173.232 294.81 173.152 294.699 172.924C294.613 172.792 294.822 172.426 294.822 172.426C295.074 172.409 295.35 172.489 295.496 172.656C295.652 172.665 295.538 173.006 295.449 173.443Z" fill="#273253"/>
<path d="M292.252 163.679C291.889 163.468 291.613 163.388 291.501 163.16C291.415 163.029 291.625 162.662 291.625 162.662C291.876 162.646 292.153 162.725 292.299 162.892C292.455 162.902 292.34 163.242 292.252 163.679Z" fill="#273253"/>
<path d="M84.5292 163.252C97.4767 186.111 82.1925 226.795 84.8179 245.59C87.226 262.793 104.833 281.447 122.097 290.699C139.36 299.95 163.591 296.733 174.783 280.537C179.612 273.499 181.697 264.779 186.501 257.645C201.715 234.837 235.63 236.94 258.868 222.638C285.709 206.12 293.995 170.07 290.912 138.548C288.925 118.496 282.812 97.9116 268.723 83.6704C254.634 69.4292 231.045 63.4932 214.091 74.1297C198.795 83.6973 187.836 105.403 170.109 102.315C157.735 100.149 151.268 86.5246 141.458 78.6059C126.07 66.2136 101.874 69.3702 87.3468 82.8062C72.8193 96.2422 63.2886 110.8 68.5171 129.973C70.8972 138.772 79.9821 155.144 84.5292 163.252Z" fill="#273253"/>
</g>
<defs>
<clipPath id="clip0_26_255">
<rect width="260.944" height="255.235" fill="white" transform="matrix(0.496308 -0.868147 0.863878 0.503701 0 227)"/>
</clipPath>
</defs>
</svg>
