<svg width="475" height="651" viewBox="0 0 475 651" fill="none" xmlns="http://www.w3.org/2000/svg">
<path d="M52.4306 550.643C123.76 493.279 267.236 491.068 329.22 464.726C385.987 440.604 440.907 375.518 464.09 321.101C487.273 266.685 465.616 206.766 406.225 194.569C380.286 189.197 350.124 192.944 324.085 187.857C240.415 171.883 232.216 81.3808 173.62 35.7698C106.223 -16.8673 -18.9371 -1.17777 -123.713 39.6139C-190.324 65.5201 -256.616 102.686 -298.216 154.129C-339.816 205.573 -349.105 272.937 -305.835 306.275C-266.811 336.146 -188.889 342.23 -191.373 391.652C-193.081 426.209 -236.016 457.127 -258.072 490.809C-292.981 543.617 -271.224 603.251 -219.727 627.248C-168.025 651.148 -114.925 660.842 -52.7033 627.495C-23.6917 611.454 27.261 570.817 52.4306 550.643Z" stroke="#FFD537" stroke-width="3.0313" stroke-miterlimit="10"/>
</svg>
