<svg width="290" height="651" viewBox="0 0 290 651" fill="none" xmlns="http://www.w3.org/2000/svg">
<path d="M389.006 550.538C460.335 493.174 603.811 490.963 665.795 464.621C722.563 440.499 777.482 375.413 800.665 320.996C823.849 266.58 802.191 206.661 742.8 194.464C716.861 189.092 686.699 192.839 660.661 187.752C576.99 171.778 568.791 81.2759 510.195 35.6649C442.798 -16.9721 317.638 -1.28263 212.862 39.509C146.251 65.4152 79.9589 102.581 38.3591 154.025C-3.24066 205.468 -12.53 272.832 30.7404 306.17C69.7645 336.042 147.686 342.126 145.202 391.547C143.494 426.104 100.559 457.022 78.5033 490.704C43.594 543.513 65.3512 603.146 116.848 627.143C168.55 651.044 221.65 660.737 283.872 627.39C312.883 611.349 363.836 570.712 389.006 550.538Z" stroke="#FFD537" stroke-width="3.0313" stroke-miterlimit="10"/>
</svg>
