<svg width="360" height="284" viewBox="0 0 360 284" fill="none" xmlns="http://www.w3.org/2000/svg">
<path d="M84.897 14.8892C86.9682 14.4714 88.0723 12.6264 87.5705 10.5128C87.0686 8.39929 85.1771 7.16838 83.1997 7.62074C81.3163 8.10758 80.1775 10.047 80.6201 12.0316C81.122 14.1452 82.9196 15.3416 84.897 14.8892Z" fill="#FBBE4B"/>
<path d="M85.3368 28.7691C87.1855 28.3767 88.4529 26.3773 88.0694 24.5216C87.6614 22.4425 86.0168 21.4095 83.9456 21.8274C81.8499 22.0219 80.7356 24.1847 81.1191 26.0404C81.5964 27.9306 83.839 29.0761 85.3368 28.7691Z" fill="#FBBE4B"/>
<path d="M255.952 177.952C253.975 178.404 252.812 180.121 253.255 182.105C253.638 183.961 255.717 185.261 257.472 184.834C259.321 184.441 260.529 182.313 260.146 180.457C259.703 178.473 257.93 177.5 255.952 177.952Z" fill="#FBBE4B"/>
<path d="M187.927 160.994C189.682 160.568 190.821 158.628 190.403 156.867C190.019 155.011 187.999 153.84 186.15 154.233C184.395 154.659 183.257 156.599 183.675 158.36C184.152 160.25 186.078 161.387 187.927 160.994Z" fill="#FBBE4B"/>
<path d="M215.744 173.144C217.592 172.752 218.86 170.753 218.348 168.957C217.964 167.101 215.979 165.836 214.189 166.357C212.34 166.75 211.073 168.749 211.585 170.545C212.003 172.306 213.989 173.571 215.744 173.144Z" fill="#FBBE4B"/>
<path d="M86.0786 42.1171C87.8927 41.8191 89.1355 39.5964 88.6235 37.8006C88.0522 35.8759 86.7831 34.9809 84.618 35.3642C82.7345 35.8511 81.5121 37.4382 81.8711 39.0706C82.2199 41.0208 84.0073 42.5349 86.0786 42.1171Z" fill="#FBBE4B"/>
<path d="M244.098 185.279C246.076 184.826 246.947 183.324 246.505 181.34C246.037 179.132 244.581 178.168 242.603 178.62C240.72 179.107 239.754 180.574 240.232 182.465C240.629 184.861 241.993 185.791 244.098 185.279Z" fill="#FBBE4B"/>
<path d="M285.862 196.873C287.617 196.446 288.652 194.79 288.174 192.9C287.697 191.01 286.087 189.882 284.367 190.215C282.518 190.607 281.414 192.452 281.916 194.566C282.393 196.456 284.073 197.395 285.862 196.873Z" fill="#FBBE4B"/>
<path d="M299.117 196.171C300.966 195.778 301.966 194.216 301.583 192.361C301.116 190.153 299.6 189.06 297.622 189.512C295.867 189.939 294.833 191.595 295.216 193.451C295.718 195.565 297.234 196.657 299.117 196.171Z" fill="#FBBE4B"/>
<path d="M97.909 79.7957C98.317 81.8748 99.8331 82.9677 101.81 82.5154C103.659 82.1229 104.659 80.5612 104.276 78.7055C103.809 76.4975 102.293 75.4046 100.315 75.8569C98.6888 76.2239 97.5255 77.94 97.909 79.7957Z" fill="#FBBE4B"/>
<path d="M322.77 192.108C323.178 194.187 324.635 195.151 326.578 194.793C328.555 194.341 329.52 192.873 329.172 190.923C328.67 188.81 327.06 187.682 325.176 188.169C323.421 188.596 322.387 190.252 322.77 192.108Z" fill="#FBBE4B"/>
<path d="M230.363 186.126C232.212 185.734 233.153 184.043 232.769 182.187C232.327 180.203 230.623 179.041 228.774 179.433C226.925 179.826 225.915 181.705 226.452 183.724C226.929 185.614 228.48 186.613 230.363 186.126Z" fill="#FBBE4B"/>
<path d="M202.206 173.744C204.055 173.351 205.149 171.824 204.765 169.968C204.298 167.76 202.876 166.702 200.84 167.025C199.119 167.358 197.956 169.074 198.34 170.929C198.841 173.043 200.264 174.101 202.206 173.744Z" fill="#FBBE4B"/>
<path d="M309.07 192.861C309.478 194.94 310.994 196.033 312.937 195.675C314.785 195.283 315.879 193.756 315.496 191.9C315.029 189.692 313.606 188.634 311.57 188.957C309.85 189.29 308.652 191.1 309.07 192.861Z" fill="#FBBE4B"/>
<path d="M145.383 135.287C147.326 134.929 148.42 133.402 147.977 131.417C147.51 129.209 145.994 128.116 144.017 128.569C142.262 128.996 141.227 130.652 141.61 132.508C142.112 134.621 143.534 135.68 145.383 135.287Z" fill="#FBBE4B"/>
<path d="M159.78 148.294C161.629 147.902 162.664 146.246 162.28 144.39C161.897 142.534 160.252 141.501 158.438 141.799C156.589 142.192 155.461 143.813 155.844 145.669C156.193 147.619 157.897 148.781 159.78 148.294Z" fill="#FBBE4B"/>
<path d="M67.1177 12.5362C67.5012 14.3919 69.205 15.5538 70.9599 15.1269C72.6801 14.7944 73.7842 12.9495 73.4946 11.1282C73.0764 9.36694 71.0665 7.8782 69.5585 8.50301C68.0504 9.12781 66.477 10.8003 67.1177 12.5362Z" fill="#FBBE4B"/>
<path d="M116.776 109.343C118.497 109.01 119.635 107.071 119.217 105.309C118.893 103.583 117.095 102.386 115.375 102.719C113.783 102.991 112.516 104.991 112.934 106.752C113.352 108.513 115.056 109.675 116.776 109.343Z" fill="#FBBE4B"/>
<path d="M127.168 119.913C127.586 121.674 129.196 122.802 131.045 122.409C132.894 122.017 133.929 120.361 133.545 118.505C133.162 116.649 131.458 115.487 129.574 115.974C127.819 116.401 126.785 118.057 127.168 119.913Z" fill="#FBBE4B"/>
<path d="M82.9332 53.2868C83.3514 55.048 84.9613 56.1755 86.8101 55.7831C88.6589 55.3907 89.6936 53.7345 89.3101 51.8788C88.9266 50.0231 87.1881 48.9556 85.3393 49.348C83.5844 49.7749 82.515 51.5255 82.9332 53.2868Z" fill="#FBBE4B"/>
<path d="M174.074 161.584C175.735 161.123 176.839 159.278 176.386 157.611C175.968 155.85 174.417 154.851 172.534 155.338C170.779 155.765 169.744 157.421 170.162 159.182C170.615 160.849 172.541 161.986 174.074 161.584Z" fill="#FBBE4B"/>
<path d="M271.998 197.781C273.625 197.414 274.823 195.603 274.404 193.842C274.021 191.986 272.435 191.082 270.587 191.474C268.738 191.867 267.738 193.429 268.121 195.284C268.574 196.951 270.372 198.148 271.998 197.781Z" fill="#FBBE4B"/>
<path d="M68.0615 26.4939C68.4552 28.0318 70.3467 29.2627 71.8792 28.8613C73.4117 28.4598 74.6444 26.5549 74.2853 24.9225C73.808 23.0323 72.3511 22.0683 70.4676 22.5551C68.4556 23.1019 67.5841 24.6037 68.0615 26.4939Z" fill="#FBBE4B"/>
<path d="M83.4526 66.6601C83.8952 68.6447 85.6582 69.9355 87.4131 69.5086C88.9456 69.1072 90.1436 67.2967 89.6907 65.6298C89.2725 63.8685 87.885 62.7156 85.9321 63.3913C84.0833 63.7837 83.0935 65.0277 83.4526 66.6601Z" fill="#FBBE4B"/>
<path d="M98.4183 93.4873C98.861 95.472 100.436 96.6938 102.156 96.3613C103.783 95.9944 105.015 94.0894 104.563 92.4226C104.051 90.6268 102.722 89.6028 100.933 90.1242C99.0838 90.5166 98.0593 91.855 98.4183 93.4873Z" fill="#FBBE4B"/>
<path d="M258.308 198.216C259.934 197.849 261.039 196.004 260.586 194.338C260.167 192.576 258.78 191.423 256.862 192.005C255.013 192.397 254.048 193.864 254.407 195.497C254.849 197.481 256.553 198.643 258.308 198.216Z" fill="#FBBE4B"/>
<path d="M216.544 186.622C218.171 186.255 219.275 184.41 218.916 182.777C218.498 181.016 217.11 179.863 215.192 180.444C213.343 180.837 212.284 182.269 212.737 183.936C213.12 185.792 214.79 187.048 216.544 186.622Z" fill="#FBBE4B"/>
<path d="M188.412 174.462C190.132 174.13 191.202 172.379 190.877 170.652C190.518 169.02 188.721 167.824 187.06 168.285C185.433 168.652 184.364 170.402 184.723 172.035C185.176 173.702 186.82 174.735 188.412 174.462Z" fill="#FBBE4B"/>
<path d="M244.455 198.806C246.21 198.379 247.012 197.066 246.628 195.21C246.151 193.32 244.882 192.425 243.033 192.817C241.278 193.244 240.441 194.652 240.918 196.542C241.396 198.432 242.665 199.327 244.455 198.806Z" fill="#FBBE4B"/>
<path d="M128.191 133.364C128.599 135.444 129.775 136.304 131.658 135.817C133.507 135.425 134.368 134.241 133.891 132.351C133.483 130.272 132.214 129.377 130.33 129.863C128.704 130.23 127.808 131.509 128.191 133.364Z" fill="#FBBE4B"/>
<path d="M68.7582 40.2545C69.2355 42.1447 70.4455 42.9109 72.2005 42.484C74.0839 41.9971 74.8513 40.7786 74.4086 38.794C73.9313 36.9038 72.6621 36.0087 70.8725 36.5301C69.0237 36.9225 68.3155 38.2699 68.7582 40.2545Z" fill="#FBBE4B"/>
<path d="M145.927 148.884C147.647 148.552 148.647 146.99 148.323 145.263C147.999 143.536 146.448 142.538 144.693 142.965C143.066 143.332 142.101 144.799 142.425 146.526C142.75 148.253 144.301 149.251 145.927 148.884Z" fill="#FBBE4B"/>
<path d="M88.0856 83.0456C89.8405 82.6187 90.5834 81.1769 90.1999 79.3212C89.8062 77.7832 88.1024 76.6213 86.6984 76.9628C85.1659 77.3643 84.1904 79.1493 84.6433 80.8162C84.9676 82.543 86.4592 83.4126 88.0856 83.0456Z" fill="#FBBE4B"/>
<path d="M156.976 159.696C157.335 161.328 158.92 162.232 160.582 161.771C162.208 161.404 163.114 159.808 162.755 158.175C162.396 156.543 160.845 155.545 159.219 155.912C157.558 156.373 156.558 157.935 156.976 159.696Z" fill="#FBBE4B"/>
<path d="M117.32 122.939C118.946 122.572 119.946 121.011 119.587 119.378C119.263 117.651 117.584 116.713 115.923 117.174C114.296 117.541 113.39 119.137 113.843 120.804C114.108 122.402 115.694 123.306 117.32 122.939Z" fill="#FBBE4B"/>
<path d="M75.2587 52.7174C74.9344 50.9906 73.2306 49.8286 71.6981 50.2301C70.2941 50.5716 69.1656 52.1932 69.5001 53.6023C69.8836 55.458 71.365 56.6454 72.9914 56.2784C74.4892 55.9714 75.5239 54.3152 75.2587 52.7174Z" fill="#FBBE4B"/>
<path d="M310.034 206.184C310.417 208.039 311.933 209.132 313.56 208.765C315.058 208.458 316.092 206.802 315.827 205.204C315.503 203.477 314.046 202.513 312.395 202.657C310.991 202.999 309.734 204.68 310.034 206.184Z" fill="#FBBE4B"/>
<path d="M299.918 209.648C301.416 209.341 302.451 207.685 302.186 206.087C301.861 204.36 300.405 203.396 298.719 203.634C297.256 203.847 296.093 205.563 296.393 207.066C296.682 208.887 298.198 209.98 299.918 209.648Z" fill="#FBBE4B"/>
<path d="M202.785 187.246C204.411 186.879 205.317 185.283 204.958 183.65C204.599 182.018 203.014 181.114 201.387 181.481C199.855 181.882 198.89 183.349 199.249 184.982C199.573 186.709 201.158 187.613 202.785 187.246Z" fill="#FBBE4B"/>
<path d="M174.662 174.769C176.16 174.462 177.195 172.806 176.93 171.208C176.512 169.447 175.336 168.586 173.581 169.013C171.733 169.405 170.965 170.624 171.29 172.351C171.555 173.948 173.165 175.076 174.662 174.769Z" fill="#FBBE4B"/>
<path d="M230.601 199.396C232.099 199.089 233.133 197.433 232.774 195.801C232.356 194.039 231.146 193.273 229.297 193.666C227.449 194.058 226.681 195.277 227.099 197.038C227.458 198.67 229.103 199.703 230.601 199.396Z" fill="#FBBE4B"/>
<path d="M286.277 210.53C287.81 210.128 288.751 208.438 288.357 206.9C287.939 205.139 286.694 204.467 284.845 204.859C283.09 205.286 282.323 206.505 282.706 208.36C283.135 209.804 284.779 210.837 286.277 210.53Z" fill="#FBBE4B"/>
<path d="M272.365 210.991C273.734 210.744 274.803 208.993 274.503 207.49C274.204 205.986 272.84 205.057 271.471 205.304C269.306 205.687 268.514 206.682 268.933 208.444C268.906 210.256 271.218 211.212 272.365 210.991Z" fill="#FBBE4B"/>
<path d="M90.8722 92.8579C90.5132 91.2255 89.1746 90.5193 87.5482 90.8863C85.5709 91.3386 85.0015 92.3083 85.2911 94.1296C85.4624 95.693 87.5519 96.6751 88.6987 96.4534C90.1618 96.2408 91.2067 94.2669 90.8722 92.8579Z" fill="#FBBE4B"/>
<path d="M75.921 66.5719C75.5864 65.1628 74.1642 64.1044 72.6664 64.4114C71.1686 64.7184 70.0748 66.2457 70.4685 67.7836C70.803 69.1926 72.2252 70.2511 73.723 69.9441C75.1861 69.7315 76.3147 68.1098 75.921 66.5719Z" fill="#FBBE4B"/>
<path d="M99.515 107.609C99.8148 109.112 101.331 110.205 102.829 109.898C104.326 109.591 105.42 108.064 105.214 106.595C104.949 104.997 103.433 103.904 101.841 104.176C100.25 104.449 99.2498 106.011 99.515 107.609Z" fill="#FBBE4B"/>
<path d="M120.156 133.198C119.856 131.695 118.399 130.731 116.901 131.038C115.403 131.345 114.438 132.812 114.738 134.315C115.038 135.819 116.494 136.783 117.992 136.476C119.49 136.169 120.455 134.702 120.156 133.198Z" fill="#FBBE4B"/>
<path d="M60.1053 25.8213C59.7707 24.4123 58.373 23.5771 56.8752 23.8842C55.2488 24.2512 54.3182 25.624 54.6528 27.033C54.9526 28.5365 56.5626 29.664 58.0257 29.4513C59.4643 29.0154 60.499 27.3592 60.1053 25.8213Z" fill="#FBBE4B"/>
<path d="M185.583 185.641C185.977 187.179 187.493 188.272 188.991 187.965C190.394 187.623 191.394 186.062 191.095 184.558C190.76 183.149 189.303 182.185 187.805 182.492C186.179 182.859 185.248 184.232 185.583 185.641Z" fill="#FBBE4B"/>
<path d="M217.158 200.029C218.562 199.688 219.562 198.126 219.262 196.622C218.962 195.119 217.505 194.155 215.972 194.556C214.44 194.958 213.415 196.296 213.75 197.705C214.109 199.338 215.66 200.336 217.158 200.029Z" fill="#FBBE4B"/>
<path d="M128.854 147.219C129.153 148.723 130.763 149.85 132.261 149.543C133.759 149.236 134.735 147.451 134.435 145.947C134.1 144.538 132.609 143.669 131.205 144.01C129.484 144.343 128.519 145.81 128.854 147.219Z" fill="#FBBE4B"/>
<path d="M259.015 211.659C260.419 211.317 261.385 209.85 261.05 208.441C260.75 206.937 259.293 205.973 257.795 206.28C256.298 206.587 255.391 208.184 255.726 209.593C256.026 211.096 257.517 211.966 259.015 211.659Z" fill="#FBBE4B"/>
<path d="M146.693 162.455C148.191 162.148 149.191 160.587 148.763 159.143C148.428 157.734 147.065 156.805 145.602 157.017C144.104 157.324 143.139 158.792 143.439 160.295C143.738 161.798 145.195 162.762 146.693 162.455Z" fill="#FBBE4B"/>
<path d="M105.64 119.934C105.222 118.172 104.046 117.312 102.549 117.619C100.922 117.986 100.249 119.239 100.573 120.966C100.932 122.598 102.107 123.458 103.768 122.997C105.266 122.69 106.034 121.472 105.64 119.934Z" fill="#FBBE4B"/>
<path d="M157.777 173.173C158.101 174.9 159.311 175.666 160.938 175.299C162.47 174.897 163.203 173.773 162.938 172.175C162.52 170.414 161.438 169.588 159.846 169.861C158.22 170.227 157.418 171.54 157.777 173.173Z" fill="#FBBE4B"/>
<path d="M60.792 39.8991C60.4085 38.0434 59.2332 37.1828 57.6069 37.5498C56.109 37.8568 55.4009 39.2042 55.666 40.8021C55.9904 42.5289 57.2004 43.2951 58.6982 42.988C60.3245 42.6211 61.0919 41.4026 60.792 39.8991Z" fill="#FBBE4B"/>
<path d="M76.1484 80.1597C75.8241 78.4329 74.8018 77.7357 73.0224 77.9393C71.5593 78.1519 70.7225 79.5592 71.1163 81.0972C71.4406 82.824 72.7445 83.6246 74.277 83.2232C75.6809 82.8816 76.4483 81.6631 76.1484 80.1597Z" fill="#FBBE4B"/>
<path d="M245.221 212.377C246.625 212.036 247.427 210.723 247.127 209.22C246.768 207.587 245.533 206.598 244.001 206.999C242.503 207.306 241.701 208.619 242.095 210.157C242.419 211.884 243.629 212.65 245.221 212.377Z" fill="#FBBE4B"/>
<path d="M203.363 200.748C204.861 200.441 205.663 199.128 205.363 197.625C205.064 196.122 203.7 195.192 202.237 195.405C200.997 195.592 199.997 197.153 200.237 198.528C200.631 200.066 201.866 201.055 203.363 200.748Z" fill="#FBBE4B"/>
<path d="M91.1485 106.892C90.8487 105.389 89.3918 104.425 88.0225 104.672C86.7818 104.859 85.7472 106.515 86.0225 107.795C86.3816 109.427 87.6507 110.323 89.1485 110.016C90.6116 109.803 91.4484 108.396 91.1485 106.892Z" fill="#FBBE4B"/>
<path d="M228.3 210.876C228.635 212.285 230.033 213.12 231.402 212.873C232.771 212.626 233.608 211.219 233.402 209.75C233.102 208.246 231.892 207.48 230.3 207.753C228.674 208.12 227.907 209.338 228.3 210.876Z" fill="#FBBE4B"/>
<path d="M61.0888 53.2981C60.695 51.7602 59.5789 51.0286 57.9525 51.3955C56.42 51.797 55.7813 52.9555 56.1158 54.3646C56.4157 55.868 57.9073 56.7376 59.3112 56.3961C60.5866 56.1145 61.4233 54.7072 61.0888 53.2981Z" fill="#FBBE4B"/>
<path d="M134.815 159.698C134.54 158.418 133.142 157.583 131.867 157.865C130.592 158.146 129.592 159.708 129.961 161.023C130.33 162.337 131.728 163.172 133.038 162.796C134.254 162.386 135.091 160.978 134.815 159.698Z" fill="#FBBE4B"/>
<path d="M177.335 185.182C177.001 183.773 175.544 182.809 174.105 183.245C172.795 183.621 171.958 185.029 172.199 186.403C172.533 187.812 173.931 188.647 175.241 188.271C176.774 187.87 177.704 186.497 177.335 185.182Z" fill="#FBBE4B"/>
<path d="M300.66 222.996C301.842 222.679 302.748 221.083 302.473 219.803C302.138 218.394 300.928 217.628 299.524 217.97C297.992 218.371 297.2 219.366 297.44 220.741C297.893 222.408 299.35 223.372 300.66 222.996Z" fill="#FBBE4B"/>
<path d="M286.807 223.585C287.988 223.269 288.954 221.802 288.713 220.427C288.472 219.053 287.168 218.252 285.671 218.559C284.267 218.901 283.44 219.99 283.716 221.271C284.075 222.903 285.497 223.961 286.807 223.585Z" fill="#FBBE4B"/>
<path d="M120.581 146.537C120.247 145.128 119.037 144.362 117.633 144.704C116.1 145.105 115.308 146.1 115.549 147.475C115.943 149.013 117.365 150.071 118.675 149.695C119.95 149.414 120.857 147.817 120.581 146.537Z" fill="#FBBE4B"/>
<path d="M149.272 172.834C148.868 171.614 148.172 170.608 146.289 171.095C144.885 171.436 144.093 172.432 144.309 173.583C144.574 175.181 145.996 176.239 147.4 175.898C148.77 175.651 149.735 174.183 149.272 172.834Z" fill="#FBBE4B"/>
<path d="M105.962 133.556C105.415 131.854 104.476 131.509 102.978 131.816C101.574 132.158 100.748 133.247 101.058 134.433C101.417 136.066 102.874 137.03 104.149 136.748C105.425 136.466 106.425 134.905 105.962 133.556Z" fill="#FBBE4B"/>
<path d="M76.786 93.7909C76.2392 92.0895 75.3006 91.7446 73.8028 92.0517C72.3989 92.3932 71.5724 93.4828 71.8824 94.6685C72.1476 96.2664 73.6984 97.2649 74.9737 96.9833C76.2838 96.6073 77.1552 95.1055 76.786 93.7909Z" fill="#FBBE4B"/>
<path d="M272.978 224.399C274.253 224.117 275.184 222.744 274.908 221.464C274.633 220.184 273.329 219.383 272.089 219.571C270.719 219.818 269.823 221.096 270.064 222.471C270.339 223.751 271.703 224.68 272.978 224.399Z" fill="#FBBE4B"/>
<path d="M217.549 213.463C219.175 213.096 219.675 212.315 219.316 210.682C218.898 208.921 218.029 208.387 216.531 208.694C214.998 209.096 214.464 209.971 214.882 211.732C215.182 213.236 216.051 213.77 217.549 213.463Z" fill="#FBBE4B"/>
<path d="M186.829 199.067C187.153 200.793 188.022 201.327 189.52 201.02C191.146 200.653 191.646 199.872 191.287 198.24C190.963 196.513 190.035 195.85 188.502 196.252C187.004 196.559 186.47 197.434 186.829 199.067Z" fill="#FBBE4B"/>
<path d="M61.6227 67.2126C61.2045 65.4513 60.4638 64.8576 58.8721 65.1302C57.2458 65.4972 56.8049 66.4069 57.164 68.0393C57.523 69.6717 58.3922 70.2054 59.9247 69.804C61.3878 69.5914 61.9225 68.7161 61.6227 67.2126Z" fill="#FBBE4B"/>
<path d="M91.5885 120.772C91.2886 119.269 90.1133 118.408 88.8032 118.784C87.6217 119.1 86.9482 120.353 87.1645 121.505C87.4296 123.102 88.358 123.765 89.8211 123.552C91.1904 123.305 91.8883 122.276 91.5885 120.772Z" fill="#FBBE4B"/>
<path d="M259.312 225.057C260.716 224.716 261.285 223.746 261.02 222.148C260.686 220.739 259.57 220.008 258.294 220.289C257.113 220.605 256.345 221.824 256.586 223.198C256.886 224.702 257.908 225.399 259.312 225.057Z" fill="#FBBE4B"/>
<path d="M163.353 185.832C163.078 184.552 161.808 183.657 160.592 184.068C159.411 184.384 158.609 185.697 158.978 187.011C159.372 188.549 160.3 189.212 161.739 188.776C163.049 188.4 163.653 187.336 163.353 185.832Z" fill="#FBBE4B"/>
<path d="M243.059 223.48C243.334 224.76 244.475 225.715 245.681 225.622C246.922 225.435 247.817 224.156 247.542 222.876C247.267 221.596 245.938 220.572 244.757 220.888C243.773 220.956 242.843 222.328 243.059 223.48Z" fill="#FBBE4B"/>
<path d="M62.0968 80.9986C61.8806 79.8474 60.6461 78.8579 59.4054 79.0451C58.3872 79.2068 57.4219 80.674 57.6381 81.8252C57.9135 83.1054 59.0541 84.0604 60.2948 83.8732C61.4416 83.6515 62.3722 82.2787 62.0968 80.9986Z" fill="#FBBE4B"/>
<path d="M205.789 210.963C205.479 209.778 204.21 208.883 203.063 209.104C202.01 209.361 201.079 210.733 201.389 211.919C201.665 213.199 202.934 214.094 204.081 213.873C205.228 213.651 206.064 212.244 205.789 210.963Z" fill="#FBBE4B"/>
<path d="M177.434 198.83C177.159 197.55 176.255 197.11 174.757 197.417C173.224 197.819 172.724 198.6 173.059 200.009C173.369 201.194 174.673 201.995 175.82 201.773C177.001 201.457 177.744 200.015 177.434 198.83Z" fill="#FBBE4B"/>
<path d="M120.705 160.408C120.429 159.128 119.525 158.689 118.028 158.996C116.495 159.397 115.995 160.178 116.33 161.587C116.64 162.773 117.909 163.668 119.09 163.352C120.272 163.036 121.015 161.594 120.705 160.408Z" fill="#FBBE4B"/>
<path d="M106.519 147.694C106.303 146.542 105.093 145.776 103.946 145.998C102.799 146.219 101.904 147.498 102.12 148.649C102.336 149.8 103.64 150.601 104.787 150.379C106.003 149.969 106.77 148.75 106.519 147.694Z" fill="#FBBE4B"/>
<path d="M135.231 173.355C134.861 172.04 133.923 171.696 132.682 171.883C131.407 172.164 130.709 173.194 130.984 174.474C131.294 175.66 132.598 176.46 133.686 176.11C134.832 175.888 135.541 174.541 135.231 173.355Z" fill="#FBBE4B"/>
<path d="M77.0281 107.92C76.8119 106.768 75.508 105.968 74.3612 106.189C73.2144 106.411 72.4123 107.724 72.6285 108.875C72.8447 110.026 74.1486 110.827 75.2954 110.605C76.5708 110.324 77.3382 109.105 77.0281 107.92Z" fill="#FBBE4B"/>
<path d="M232.144 226.221C233.325 225.905 234.033 224.557 233.723 223.372C233.354 222.057 232.45 221.618 231.175 221.899C229.899 222.181 229.202 223.211 229.477 224.491C229.752 225.771 231.056 226.571 232.144 226.221Z" fill="#FBBE4B"/>
<path d="M91.9345 134.618C91.5897 133.527 90.9531 132.65 89.4797 133.18C88.0758 133.521 87.5758 134.302 87.8165 135.677C88.1266 136.863 89.2427 137.594 90.4242 137.278C91.5119 136.928 92.2445 135.803 91.9345 134.618Z" fill="#FBBE4B"/>
<path d="M62.6653 94.8183C62.3205 93.727 61.6839 92.8501 60.1167 93.346C58.7475 93.5931 58.2128 94.4683 58.4882 95.7485C58.7635 97.0286 59.8797 97.7602 61.0612 97.4441C62.3366 97.1626 63.0692 96.0385 62.6653 94.8183Z" fill="#FBBE4B"/>
<path d="M149.371 186.482C149.026 185.391 148.389 184.514 146.728 184.975C145.453 185.257 144.953 186.037 145.194 187.412C145.469 188.692 146.585 189.424 147.767 189.108C148.914 188.886 149.646 187.762 149.371 186.482Z" fill="#FBBE4B"/>
<path d="M191.762 212.026C191.487 210.745 190.499 209.954 189.377 210.399C188.383 210.784 187.507 211.427 187.971 212.776C188.246 214.056 189.174 214.719 190.356 214.403C191.537 214.087 192.072 213.211 191.762 212.026Z" fill="#FBBE4B"/>
<path d="M219.756 224.562C219.55 223.093 218.552 222.62 217.405 222.841C216.387 223.003 215.477 223.74 215.811 225.149C216.052 226.524 216.98 227.187 218.127 226.965C219.437 226.589 219.937 225.808 219.756 224.562Z" fill="#FBBE4B"/>
<path d="M163.852 199.841C163.646 198.372 162.613 197.993 161.466 198.214C160.448 198.376 159.597 199.242 159.966 200.557C160.242 201.837 161.136 202.594 162.317 202.278C163.533 201.867 164.033 201.087 163.852 199.841Z" fill="#FBBE4B"/>
<path d="M77.5961 121.74C77.2861 120.554 76.5107 120.055 75.3639 120.276C74.1232 120.464 73.4946 121.304 73.77 122.584C74.0454 123.865 74.8555 124.269 76.19 124.117C77.1838 123.732 77.8715 123.02 77.5961 121.74Z" fill="#FBBE4B"/>
<path d="M107.029 161.385C106.778 160.328 105.908 159.794 104.855 160.05C103.709 160.272 103.174 161.147 103.39 162.298C103.606 163.45 104.51 163.889 105.716 163.796C106.71 163.411 107.339 162.57 107.029 161.385Z" fill="#FBBE4B"/>
<path d="M121.297 174.451C120.987 173.266 120.306 172.801 119.159 173.023C118.012 173.244 117.324 173.956 117.634 175.142C117.851 176.293 118.779 176.956 119.832 176.7C120.979 176.478 121.326 175.534 121.297 174.451Z" fill="#FBBE4B"/>
<path d="M177.968 212.744C177.658 211.559 176.719 211.214 175.631 211.564C174.544 211.915 174.172 212.636 174.354 213.881C174.733 214.878 175.568 215.506 176.655 215.156C177.743 214.805 178.184 213.895 177.968 212.744Z" fill="#FBBE4B"/>
<path d="M135.472 187.484C135.068 186.264 134.258 185.859 133.077 186.175C131.989 186.526 131.524 187.212 131.74 188.363C132.05 189.549 132.919 190.083 134.066 189.861C135.189 189.416 135.629 188.506 135.472 187.484Z" fill="#FBBE4B"/>
<path d="M63.3276 108.673C62.9236 107.453 62.1135 107.048 60.932 107.364C59.8444 107.714 59.3791 108.401 59.5953 109.552C59.9054 110.738 60.7746 111.272 61.9214 111.05C63.0091 110.699 63.4499 109.79 63.3276 108.673Z" fill="#FBBE4B"/>
<path d="M205.843 225.023C205.627 223.872 204.817 223.467 203.704 223.594C202.558 223.816 201.964 224.562 202.145 225.808C202.49 226.899 203.231 227.493 204.378 227.271C205.618 227.084 206.059 226.174 205.843 225.023Z" fill="#FBBE4B"/>
<path d="M92.4089 148.403C92.0988 147.218 91.1601 146.873 90.0725 147.223C88.9848 147.574 88.6134 148.295 88.8296 149.446C89.2091 150.443 90.009 151.166 91.1905 150.849C92.2781 150.499 92.7536 149.495 92.4089 148.403Z" fill="#FBBE4B"/>
<path d="M48.2679 81.8112C47.864 80.5911 47.0192 80.2807 45.8724 80.5023C44.7847 80.8529 44.2847 81.6337 44.6295 82.725C44.9396 83.9107 45.8088 84.4444 46.9904 84.1284C48.0433 83.8722 48.4841 82.9624 48.2679 81.8112Z" fill="#FBBE4B"/>
<path d="M78.1155 135.113C77.8891 134.28 77.3463 133.437 76.0363 133.813C75.1466 133.915 74.3405 134.369 74.5567 135.52C74.7729 136.672 75.5381 137.489 76.7441 137.396C77.8562 137.269 78.3664 136.17 78.1155 135.113Z" fill="#FBBE4B"/>
<path d="M149.741 200.551C149.56 199.305 148.784 198.806 147.731 199.062C146.901 199.293 146.154 199.876 146.499 200.967C146.715 202.118 147.198 202.832 148.474 202.55C149.527 202.294 149.863 201.667 149.741 200.551Z" fill="#FBBE4B"/>
<path d="M233.59 237.362C233.502 236.151 232.529 235.901 231.605 236.097C230.552 236.353 230.086 237.04 230.49 238.26C230.835 239.351 231.329 239.747 232.476 239.525C233.622 239.304 233.9 238.548 233.59 237.362Z" fill="#FBBE4B"/>
<path d="M191.837 225.45C191.704 224.651 190.894 224.246 189.841 224.502C188.916 224.699 188.416 225.479 188.667 226.536C188.918 227.593 189.471 228.118 190.618 227.896C191.765 227.674 192.136 226.953 191.837 225.45Z" fill="#FBBE4B"/>
<path d="M48.4953 95.3993C48.2791 94.2481 47.469 93.8432 46.5446 94.0394C45.5263 94.2011 45.0263 94.982 45.2426 96.1332C45.4935 97.19 46.0464 97.7147 47.1932 97.493C48.3401 97.2714 48.6176 96.516 48.4953 95.3993Z" fill="#FBBE4B"/>
<path d="M63.4611 122.226C63.2102 121.169 62.4348 120.67 61.5104 120.866C60.5513 121.157 59.9922 121.809 60.3023 122.995C60.5532 124.051 61.2347 124.516 62.3815 124.294C63.3406 124.004 63.712 123.283 63.4611 122.226Z" fill="#FBBE4B"/>
<path d="M163.916 213.583C163.759 212.561 162.949 212.156 162.025 212.352C161.006 212.514 160.635 213.235 160.792 214.257C161.078 215.219 161.759 215.684 162.683 215.488C163.643 215.197 164.108 214.511 163.916 213.583Z" fill="#FBBE4B"/>
<path d="M220.146 237.996C219.989 236.973 219.238 236.697 218.349 236.799C217.39 237.09 216.806 237.519 217.057 238.575C217.308 239.632 217.955 240.191 219.008 239.935C219.897 239.833 220.304 239.018 220.146 237.996Z" fill="#FBBE4B"/>
<path d="M107.187 175.161C106.901 174.199 106.209 174.052 105.285 174.248C104.361 174.444 103.836 175.002 104.112 176.282C104.373 177.021 105.079 177.709 106.073 177.324C107.032 177.033 107.438 176.218 107.187 175.161Z" fill="#FBBE4B"/>
<path d="M92.8935 161.871C92.6079 160.909 91.9161 160.762 91.0264 160.863C90.102 161.06 89.5776 161.617 89.7938 162.768C90.1141 163.636 90.7609 164.195 91.8139 163.939C92.773 163.649 93.1791 162.833 92.8935 161.871Z" fill="#FBBE4B"/>
<path d="M78.3678 148.924C78.0822 147.962 77.4251 147.72 76.3722 147.977C75.5764 148.113 75.1457 148.705 75.4314 149.667C75.717 150.63 76.3638 151.189 77.3229 150.898C78.1534 150.667 78.5249 149.946 78.3678 148.924Z" fill="#FBBE4B"/>
<path d="M135.888 201.141C135.602 200.178 134.945 199.937 133.857 200.287C133.062 200.424 132.631 201.016 132.917 201.978C133.202 202.94 133.884 203.405 134.808 203.209C135.673 202.884 136.045 202.163 135.888 201.141Z" fill="#FBBE4B"/>
<path d="M121.737 188.332C121.511 187.498 120.735 186.999 119.905 187.23C118.946 187.52 118.48 188.207 118.766 189.169C118.993 190.003 119.709 190.373 120.727 190.211C121.405 189.817 121.929 189.26 121.737 188.332Z" fill="#FBBE4B"/>
<path d="M49.0882 109.442C48.9556 108.644 48.3088 108.084 47.4782 108.315C46.5885 108.417 46.1232 109.103 46.1864 110.091C46.4129 110.925 47.0005 111.355 47.7964 111.219C48.8146 111.057 49.2799 110.37 49.0882 109.442Z" fill="#FBBE4B"/>
<path d="M178.16 226.427C178.063 225.533 177.51 225.008 176.585 225.205C175.661 225.401 175.418 226.062 175.61 226.99C175.801 227.918 176.201 228.279 177.126 228.083C178.05 227.886 178.446 227.389 178.16 226.427Z" fill="#FBBE4B"/>
<path d="M206.095 238.835C205.903 237.907 205.316 237.476 204.391 237.673C203.432 237.963 203.283 238.659 203.509 239.492C203.701 240.42 204.23 240.721 205.095 240.396C206.266 240.398 206.287 239.762 206.095 238.835Z" fill="#FBBE4B"/>
<path d="M149.84 214.199C149.614 213.365 149.12 212.969 148.324 213.106C147.434 213.207 147.098 213.834 147.289 214.762C147.481 215.69 147.975 216.085 148.899 215.889C149.789 215.787 150.032 215.126 149.84 214.199Z" fill="#FBBE4B"/>
<path d="M63.9599 136.235C63.862 135.342 63.4029 134.852 62.5132 134.954C61.6235 135.055 61.2868 135.682 61.3255 136.446C61.4826 137.469 62.0355 137.993 62.866 137.763C63.6619 137.626 64.0925 137.034 63.9599 136.235Z" fill="#FBBE4B"/>
<path d="M107.637 188.724C107.445 187.796 106.906 187.812 106.204 187.983C105.502 188.154 104.86 188.453 105.145 189.416C105.372 190.249 105.865 190.645 106.661 190.509C107.492 190.278 107.735 189.617 107.637 188.724Z" fill="#FBBE4B"/>
<path d="M49.6666 122.945C49.4749 122.017 48.9015 122.128 48.2342 122.204C47.5322 122.375 46.8894 122.675 47.1751 123.637C47.4015 124.47 47.8953 124.866 48.6911 124.73C49.6155 124.534 49.8584 123.873 49.6666 122.945Z" fill="#FBBE4B"/>
<path d="M164.248 226.887C164.209 226.123 163.413 226.259 162.711 226.43C162.009 226.601 161.554 226.969 161.781 227.803C162.007 228.636 162.56 229.161 163.391 228.93C164.221 228.7 164.464 228.039 164.248 226.887Z" fill="#FBBE4B"/>
<path d="M93.0763 175.871C92.9192 174.849 92.2866 174.831 91.1398 175.052C90.695 175.103 90.2399 175.472 90.5255 176.434C90.7519 177.268 91.2457 177.663 92.0763 177.433C92.966 177.331 93.1741 176.764 93.0763 175.871Z" fill="#FBBE4B"/>
<path d="M78.8913 163.156C78.8526 162.392 78.2302 162.056 77.5629 162.132C76.8018 162.174 76.4651 162.801 76.5385 163.471C76.7057 164.175 77.2342 164.477 78.0892 164.469C78.5096 164.195 78.9647 163.826 78.8913 163.156Z" fill="#FBBE4B"/>
<path d="M121.767 202.168C121.728 201.404 121.106 201.068 120.438 201.144C119.677 201.186 119.341 201.812 119.414 202.483C119.581 203.187 120.11 203.488 120.965 203.481C121.479 203.241 121.84 202.838 121.767 202.168Z" fill="#FBBE4B"/>
<path d="M136.105 215.046C135.938 214.341 135.632 214.014 134.801 214.245C133.971 214.476 134.02 214.922 134.187 215.627C134.354 216.331 134.66 216.658 135.619 216.368C136.193 216.257 136.272 215.75 136.105 215.046Z" fill="#FBBE4B"/>
<path d="M150.339 228.207C150.231 227.632 149.89 227.399 149.317 227.51C148.743 227.621 148.323 227.895 148.49 228.6C148.598 229.175 148.998 229.537 149.7 229.366C150.239 229.349 150.412 228.877 150.339 228.207Z" fill="#FBBE4B"/>
<path d="M93.6098 189.786C93.4425 189.081 92.9385 189.003 92.459 189.148C91.8855 189.259 91.6529 189.602 91.8549 190.213C92.0568 190.823 92.3976 191.055 93.0302 191.073C93.4505 190.799 93.7179 190.361 93.6098 189.786Z" fill="#FBBE4B"/>
<path d="M49.8146 137.039C49.6473 136.335 49.1433 136.257 48.6638 136.402C48.0904 136.513 47.8577 136.856 48.0597 137.466C48.2617 138.076 48.6024 138.308 49.235 138.327C49.7492 138.087 50.0166 137.649 49.8146 137.039Z" fill="#FBBE4B"/>
<path d="M64.5284 150.055C64.4203 149.48 63.9857 149.213 63.3184 149.289C62.6511 149.365 62.2552 149.863 62.4225 150.567C62.4959 151.237 63.0244 151.539 63.6917 151.463C64.3345 151.163 64.6018 150.725 64.5284 150.055Z" fill="#FBBE4B"/>
<path d="M107.701 202.466C107.618 202.113 107.173 202.164 106.787 202.344C106.436 202.429 105.863 202.54 105.971 203.116C106.079 203.692 106.444 204.147 107.146 203.976C107.66 203.737 107.74 203.23 107.701 202.466Z" fill="#FBBE4B"/>
<path d="M79.2821 176.59C79.1739 176.014 78.5658 176.219 78.2149 176.305C77.8639 176.39 77.2905 176.501 77.5863 177.146C77.823 177.661 78.0943 178.083 78.7024 177.877C79.2758 177.766 79.4249 177.071 79.2821 176.59Z" fill="#FBBE4B"/>
<path d="M64.7806 163.866C64.8358 163.136 64.2623 163.247 63.9114 163.332C63.4665 163.383 62.8339 163.365 63.0604 164.198C63.2032 164.68 63.5092 165.006 64.1418 165.024C64.6561 164.785 64.701 164.372 64.7806 163.866Z" fill="#FBBE4B"/>
<path d="M122.217 215.73C122.144 215.06 121.664 215.206 121.313 215.291C120.868 215.342 120.295 215.453 120.462 216.157C120.605 216.639 120.911 216.965 121.543 216.983C122.092 216.649 122.231 216.272 122.217 215.73Z" fill="#FBBE4B"/>
</svg>
